
<!-- Generator: visioncortex VTracer 0.6.4 -->
<svg version="1.1" xmlns="http://www.w3.org/2000/svg" viewBox="0 0 1633 1224" preserveAspectRatio="xMidYMid meet">
<path d="M0 0 C538.89 0 1077.78 0 1633 0 C1633 403.92 1633 807.84 1633 1224 C1094.11 1224 555.22 1224 0 1224 C0 820.08 0 416.16 0 0 Z " fill="#FEFEFD" transform="translate(0,0)"/>
<path d="M0 0 C3.98487 1.34987 7.51856 3.65261 11.11572 5.79834 C12.97311 6.88285 14.83122 7.96612 16.68994 9.04834 C17.67269 9.62326 18.65544 10.19818 19.66797 10.79053 C24.66515 13.70197 29.70859 16.53184 34.75375 19.35904 C36.40891 20.28751 38.06182 21.21989 39.7146 22.15259 C40.73621 22.72613 41.75793 23.29946 42.77979 23.87256 C43.67778 24.37747 44.57577 24.88238 45.50098 25.40259 C47.8588 26.71873 47.8588 26.71873 50.80322 27.61084 C50.80322 28.27084 50.80322 28.93084 50.80322 29.61084 C52.19898 30.10043 53.59932 30.57919 55.01514 31.00732 C58.24441 32.09727 61.18199 33.75254 64.17822 35.36084 C64.90445 35.74788 65.63067 36.13492 66.37891 36.53369 C73.85012 40.56084 81.16711 44.85234 88.48071 49.15674 C93.67464 52.21188 98.88073 55.23896 104.13525 58.18896 C104.9086 58.62339 104.9086 58.62339 105.69757 59.06659 C108.1466 60.44066 110.59846 61.80942 113.05371 63.17236 C117.23846 65.51338 121.31477 67.90629 125.27588 70.61084 C130.2535 73.99272 135.49274 76.79139 140.80322 79.61084 C142.65429 80.61196 144.50454 81.61458 146.354 82.61865 C147.28817 83.12405 148.22234 83.62944 149.18481 84.15015 C152.81631 86.11488 156.44654 88.08196 160.07652 90.04948 C162.62132 91.42876 165.16649 92.80735 167.7124 94.18457 C184.59236 103.31881 201.34584 112.65262 217.76367 122.59766 C222.1174 125.2263 226.54048 127.69362 231.02197 130.09912 C234.16415 131.80702 237.26579 133.57782 240.36572 135.36084 C245.77778 138.46998 251.21886 141.52306 256.67822 144.54834 C269.92747 151.89185 283.11223 159.34829 296.29834 166.80444 C303.83165 171.06362 311.37137 175.31124 318.91602 179.55029 C320.86957 180.64813 322.82278 181.74657 324.77588 182.84521 C325.44087 183.21928 326.10587 183.59335 326.79102 183.97876 C328.11954 184.72619 329.44799 185.47375 330.77637 186.22144 C334.26895 188.18693 337.76332 190.14917 341.26025 192.10693 C341.98922 192.51557 342.71818 192.9242 343.46924 193.34521 C344.86713 194.12875 346.26554 194.91135 347.66455 195.69287 C348.29426 196.04607 348.92396 196.39928 349.57275 196.76318 C350.4019 197.22713 350.4019 197.22713 351.2478 197.70044 C351.76109 198.00087 352.27438 198.3013 352.80322 198.61084 C353.36485 198.9377 353.92648 199.26456 354.50513 199.60132 C354.9335 199.93446 355.36187 200.2676 355.80322 200.61084 C355.80322 201.27084 355.80322 201.93084 355.80322 202.61084 C354.01343 203.66919 354.01343 203.66919 351.51025 204.82568 C345.64722 207.64336 340.087 210.86339 334.49072 214.17334 C332.37585 215.41725 330.2595 216.65864 328.14307 217.8999 C327.34801 218.36671 327.34801 218.36671 326.5369 218.84294 C321.23301 221.95348 315.89653 225.00607 310.55322 228.04834 C305.07797 231.16612 299.60963 234.29222 294.17822 237.48584 C289.68746 240.11923 285.13648 242.61989 280.55713 245.09521 C277.75533 246.6372 274.99663 248.23838 272.24072 249.86084 C263.44299 255.03862 254.48039 259.92678 245.54297 264.85791 C231.90189 272.38547 218.40753 280.14583 204.97119 288.03271 C191.35043 296.02224 177.62861 303.7959 163.71729 311.271 C158.39777 314.13842 153.18447 317.1487 147.99072 320.23584 C140.16738 324.88484 132.20928 329.26388 124.20239 333.58789 C123.3127 334.06855 122.423 334.54921 121.50635 335.04443 C120.71905 335.46781 119.93176 335.89119 119.12061 336.32739 C117.43211 337.26254 115.77317 338.25165 114.13428 339.27124 C111.80322 340.61084 111.80322 340.61084 109.80322 340.61084 C109.80322 341.27084 109.80322 341.93084 109.80322 342.61084 C107.84042 343.70578 105.90161 344.66885 103.86572 345.61084 C98.30709 348.28252 92.9679 351.19101 87.67822 354.36084 C80.75433 358.49753 73.74234 362.43474 66.66138 366.29565 C61.20058 369.27838 55.77805 372.32058 50.37354 375.40405 C39.6911 381.49705 28.89339 387.30615 17.95557 392.92725 C14.82524 394.54067 11.73359 396.19272 8.68213 397.95068 C8.08739 398.28987 7.49265 398.62905 6.87988 398.97852 C5.38708 399.83898 3.90506 400.71807 2.42432 401.59912 C-1.11053 402.96354 -2.55146 402.74437 -6.19678 401.61084 C-9.79704 399.84142 -13.23959 397.8305 -16.69678 395.79834 C-18.22859 394.91222 -19.76245 394.02974 -21.29657 393.14763 C-22.34956 392.54214 -23.40201 391.93569 -24.45392 391.32832 C-29.90281 388.18731 -35.41844 385.17201 -40.94678 382.17334 C-41.81367 381.70243 -42.68057 381.23152 -43.57373 380.74634 C-45.26475 379.82831 -46.95616 378.91099 -48.64795 377.99438 C-51.2767 376.56746 -53.90087 375.13236 -56.5249 373.69678 C-60.52861 371.51111 -64.54553 369.35219 -68.57178 367.2085 C-70.22488 366.3263 -71.87784 365.44382 -73.53076 364.56128 C-74.6407 363.96972 -75.75137 363.37954 -76.86279 362.79077 C-83.68458 359.17446 -90.28961 355.40149 -96.75317 351.16846 C-100.56123 348.7411 -104.53746 346.64695 -108.5166 344.5166 C-118.77522 338.98631 -128.90626 333.24156 -138.93042 327.2981 C-144.41572 324.05159 -149.95415 320.90979 -155.51831 317.80078 C-160.40425 315.06777 -165.24402 312.26584 -170.06006 309.41162 C-173.74551 307.26412 -177.50792 305.25595 -181.25513 303.21899 C-185.96822 300.64242 -190.64629 298.00489 -195.32178 295.36084 C-195.82111 295.07883 -196.32044 294.79681 -196.8349 294.50626 C-203.03674 291.00202 -209.20325 287.44619 -215.32178 283.79834 C-224.706 278.21741 -234.29373 273.0055 -243.8609 267.74753 C-244.48479 267.40465 -245.10867 267.06177 -245.75146 266.7085 C-246.37616 266.36521 -247.00085 266.02193 -247.64447 265.66824 C-253.88445 262.237 -260.10792 258.77665 -266.32178 255.29834 C-267.0965 254.86482 -267.0965 254.86482 -267.88687 254.42255 C-275.35586 250.23956 -282.77138 245.97165 -290.16357 241.65479 C-296.15606 238.17239 -302.22615 234.84625 -308.32178 231.54834 C-315.5517 227.6351 -322.70675 223.63324 -329.76196 219.41284 C-333.75458 217.02857 -337.77806 214.71769 -341.84521 212.4624 C-342.80613 211.92615 -343.76705 211.3899 -344.75708 210.8374 C-346.6397 209.78946 -348.52709 208.75003 -350.41968 207.72021 C-351.27296 207.24326 -352.12624 206.76631 -353.00537 206.2749 C-353.76648 205.85676 -354.52759 205.43862 -355.31177 205.00781 C-357.48057 203.40052 -358.37915 202.17955 -359.19678 199.61084 C-357.25928 197.93506 -357.25928 197.93506 -354.19678 196.29834 C-353.64353 195.99622 -353.09028 195.69409 -352.52026 195.38281 C-348.13177 193.01414 -343.64465 190.83564 -339.16528 188.64526 C-330.31878 184.2626 -321.80897 179.23893 -313.23877 174.3457 C-308.29519 171.52428 -303.33945 168.72433 -298.38428 165.92334 C-297.42264 165.37911 -296.461 164.83489 -295.47021 164.27417 C-289.75098 161.04099 -284.01257 157.84539 -278.25928 154.67334 C-270.64402 150.47017 -263.13447 146.09224 -255.6315 141.69308 C-248.57843 137.55956 -241.48787 133.50963 -234.32544 129.5686 C-228.03157 126.09672 -221.79341 122.53185 -215.55862 118.95544 C-205.5791 113.23119 -195.57279 107.56123 -185.50928 101.98584 C-184.95276 101.67741 -184.39625 101.36898 -183.82288 101.05121 C-181.59141 99.81462 -179.35975 98.57838 -177.12787 97.34253 C-156.4008 85.8648 -135.73271 74.28426 -115.50195 61.94507 C-113.05296 60.5276 -110.55769 59.27693 -108.00928 58.04834 C-99.43762 53.83905 -91.20578 49.01092 -82.9106 44.28749 C-77.71012 41.32856 -72.48942 38.40621 -67.26614 35.48776 C-55.86592 29.1176 -44.49182 22.70199 -33.12744 16.26807 C-30.0038 14.50172 -26.87786 12.73949 -23.75146 10.97803 C-22.1633 10.08262 -20.5752 9.1871 -18.98712 8.29153 C-17.48111 7.44269 -15.97445 6.59499 -14.46777 5.74731 C-13.5585 5.23435 -12.64923 4.72138 -11.7124 4.19287 C-10.91093 3.74146 -10.10945 3.29004 -9.28369 2.82495 C-7.23612 1.6786 -7.23612 1.6786 -5.57739 0.44629 C-3.65519 -0.71689 -2.14232 -0.45555 0 0 Z " fill="#010101" transform="translate(816.19677734375,153.38916015625)"/>
<path d="M0 0 C1.94555 1.06976 3.78576 2.24139 5.63818 3.46582 C8.35596 5.23122 11.14396 6.85434 13.95703 8.46094 C14.49812 8.77079 15.03921 9.08063 15.59669 9.39987 C17.33427 10.39339 19.07327 11.38438 20.8125 12.375 C21.72414 12.89523 21.72414 12.89523 22.65421 13.42596 C34.39023 20.12164 46.19361 26.6927 58.01468 33.23666 C63.62998 36.34636 69.23637 39.4719 74.83829 42.60565 C76.36852 43.46142 77.89945 44.31595 79.43042 45.17041 C85.43404 48.53048 91.39114 51.9613 97.32788 55.4375 C100.39405 57.23042 103.47465 58.99472 106.5625 60.75 C111.24897 63.41882 115.92109 66.11117 120.58423 68.82056 C134.4538 76.87697 148.41437 84.77207 162.42188 92.58594 C164.57302 93.78627 166.72406 94.98679 168.875 96.1875 C169.40186 96.48154 169.92873 96.77557 170.47156 97.07852 C177.85552 101.20248 185.1793 105.41641 192.45239 109.73291 C196.96853 112.40918 201.53211 114.97086 206.15625 117.45703 C209.64642 119.35074 213.10441 121.29849 216.5625 123.25 C219.37467 124.83393 222.18731 126.41701 225 128 C225.79052 128.44521 226.58104 128.89042 227.39551 129.34912 C229.82436 130.71517 232.25565 132.07679 234.6875 133.4375 C235.44168 133.86257 236.19586 134.28764 236.9729 134.72559 C239.97274 136.40033 242.7826 137.92097 246.01953 139.09766 C246.67309 139.39543 247.32664 139.6932 248 140 C248 140.99 248 141.98 248 143 C246.33301 144.28003 246.33301 144.28003 243.95312 145.57422 C243.05989 146.06849 242.16665 146.56277 241.24634 147.07202 C240.25755 147.60513 239.26875 148.13824 238.25 148.6875 C237.21336 149.25784 236.17749 149.82957 235.14233 150.40259 C233.49472 151.31436 231.84663 152.22515 230.19627 153.13194 C224.37097 156.33313 218.59732 159.62261 212.82938 162.92575 C211.04895 163.94526 209.26758 164.96308 207.48608 165.98071 C199.90141 170.31708 192.34971 174.7067 184.8125 179.125 C175.65076 184.49371 166.41889 189.72211 157.1438 194.89111 C150.57254 198.5539 144.02521 202.25563 137.5 206 C129.94051 210.33456 122.35509 214.62105 114.75 218.875 C114.22762 219.16729 113.70523 219.45959 113.16702 219.76074 C107.87057 222.7239 102.57164 225.68258 97.26868 228.63408 C86.4922 234.63346 75.76064 240.69022 65.125 246.9375 C55.46325 252.61272 45.70649 258.09451 35.89771 263.51074 C27.81659 267.97514 19.78542 272.51749 11.79614 277.14502 C9.53944 278.44618 7.27296 279.72749 5 281 C4.28119 281.41331 3.56237 281.82661 2.82178 282.25244 C-2.24187 285.01776 -2.24187 285.01776 -5.66797 284.9375 C-8.39838 283.83985 -10.79932 282.53563 -13.3125 281 C-14.37026 280.3632 -15.4289 279.72786 -16.48828 279.09375 C-17.05241 278.75473 -17.61653 278.4157 -18.19775 278.06641 C-22.04415 275.79046 -25.96075 273.63645 -29.8645 271.46094 C-35.95599 268.05355 -41.97824 264.52858 -48 261 C-49.405 260.17677 -49.405 260.17677 -50.83838 259.33691 C-52.21196 258.53206 -52.21196 258.53206 -53.61328 257.71094 C-64.75803 251.18399 -75.94173 244.73947 -87.19653 238.40381 C-91.81773 235.80166 -96.4286 233.18867 -101 230.5 C-114.21334 222.74766 -127.58074 215.26794 -141.07614 208.01944 C-149.91049 203.27424 -158.54684 198.39392 -167 193 C-173.89534 188.67027 -180.8145 184.47542 -187.99219 180.625 C-196.26613 176.15492 -204.45414 171.51337 -212.5625 166.75 C-218.56725 163.22655 -224.62589 159.79936 -230.6875 156.375 C-231.66211 155.82425 -232.63672 155.2735 -233.64087 154.70605 C-243.25769 149.00114 -243.25769 149.00114 -253.25269 144.04834 C-254.11761 143.52941 -254.11761 143.52941 -255 143 C-255 142.01 -255 141.02 -255 140 C-253.69336 138.97607 -253.69336 138.97607 -251.84375 138.05469 C-251.15861 137.70438 -250.47348 137.35408 -249.76758 136.99316 C-249.01928 136.62417 -248.27098 136.25518 -247.5 135.875 C-245.93652 135.07743 -244.37405 134.2779 -242.8125 133.47656 C-242.01199 133.06825 -241.21148 132.65994 -240.38672 132.23926 C-236.70847 130.3294 -233.10293 128.29753 -229.5 126.25 C-228.49719 125.68164 -228.49719 125.68164 -227.47412 125.10181 C-226.20874 124.38455 -224.94359 123.66688 -223.67871 122.94873 C-221.50355 121.71943 -219.31502 120.51509 -217.125 119.3125 C-211.50137 116.19656 -206.02107 112.84037 -200.53125 109.49609 C-196.35787 106.96697 -192.16155 104.51789 -187.86719 102.19922 C-182.22768 99.13565 -176.6418 95.98404 -171.0625 92.8125 C-163.58936 88.57547 -156.09637 84.3783 -148.5625 80.25 C-136.83525 73.82273 -125.15119 67.33036 -113.64844 60.50781 C-111.81199 59.46228 -109.94098 58.47609 -108.04688 57.53906 C-104.86663 55.93263 -101.88723 54.14487 -98.875 52.25 C-89.80081 46.61841 -80.71362 41.18258 -71.07056 36.57202 C-67.2906 34.7411 -63.77877 32.6412 -60.23633 30.3877 C-55.867 27.67642 -51.35924 25.20229 -46.875 22.6875 C-45.84556 22.108 -44.81627 21.52825 -43.78711 20.94824 C-41.76694 19.80978 -39.7464 18.67199 -37.72559 17.53467 C-34.31315 15.61326 -30.90379 13.68669 -27.5 11.75 C-26.96617 11.44868 -26.43233 11.14736 -25.88232 10.83691 C-22.87904 9.12782 -19.94305 7.34164 -17.03125 5.48047 C-16.02288 4.84577 -16.02288 4.84577 -14.99414 4.19824 C-13.70224 3.38147 -12.41895 2.55084 -11.14648 1.7041 C-7.08741 -0.84904 -4.75493 -1.64361 0 0 Z " fill="#FDFDFD" transform="translate(818,213)"/>
<path d="M0 0 C0.16014 32.7995 0.28353 65.59895 0.35746 98.39876 C0.36621 102.2691 0.37527 106.13943 0.38452 110.00977 C0.38636 110.78029 0.38819 111.55082 0.39009 112.3447 C0.42056 124.82898 0.47577 137.31304 0.54007 149.79718 C0.60548 162.60249 0.6444 175.40768 0.65862 188.21314 C0.66824 196.11803 0.69863 204.02227 0.75542 211.92696 C0.79235 217.34398 0.80362 222.76067 0.79451 228.1778 C0.79002 231.30574 0.79701 234.43257 0.83444 237.56032 C0.87469 240.94873 0.86096 244.33568 0.84178 247.7243 C0.87237 249.21262 0.87237 249.21262 0.90357 250.73101 C0.86344 253.3414 0.77952 255.50801 0 258 C-2.10686 260.02395 -4.28928 260.9895 -7 262 C-10.08621 263.76587 -13.16878 265.53794 -16.25 267.3125 C-17.03246 267.76045 -17.81492 268.2084 -18.62109 268.66992 C-22.84687 271.10681 -27.00256 273.61889 -31.10547 276.25781 C-38.31243 280.88021 -45.69131 285.2087 -53.0625 289.5625 C-55.16283 290.80525 -57.26286 292.0485 -59.36282 293.29187 C-60.71588 294.09289 -62.06913 294.8936 -63.42258 295.69397 C-67.18051 297.91731 -70.92867 300.15561 -74.66797 302.41016 C-77.82457 304.30846 -80.99882 306.14175 -84.25 307.875 C-99.42118 316.07679 -114.29037 324.87591 -129.01953 333.84375 C-131 335 -131 335 -133.10144 335.56485 C-135.12391 336.77179 -135.12391 336.77179 -135.34425 338.54351 C-135.45365 340.74598 -135.42383 342.91437 -135.35748 345.11871 C-135.34805 345.96809 -135.33862 346.81747 -135.3289 347.69258 C-135.29282 350.55639 -135.22854 353.41891 -135.16504 356.28223 C-135.1345 358.32872 -135.10605 360.37524 -135.07954 362.42178 C-135.02019 366.83961 -134.95058 371.25712 -134.87455 375.67469 C-134.75893 382.66828 -134.69437 389.6619 -134.64325 396.65619 C-134.63429 397.84819 -134.62531 399.04019 -134.61631 400.23219 C-134.59821 402.64607 -134.58034 405.05996 -134.56256 407.47385 C-134.51646 413.68378 -134.46631 419.89366 -134.41064 426.10352 C-134.40508 426.72674 -134.39951 427.34997 -134.39378 427.99208 C-134.30149 438.06506 -134.13602 448.1357 -133.94668 458.20727 C-133.75412 468.5606 -133.65425 478.91207 -133.63552 489.26718 C-133.62215 495.07747 -133.56258 500.88146 -133.39954 506.68977 C-132.414 543.12266 -132.414 543.12266 -138.34624 550.28154 C-143.62162 555.45613 -150.17624 557.99151 -157.15189 560.0845 C-161.09106 561.35072 -164.39483 563.30563 -167.875 565.5 C-168.95677 566.1222 -170.0413 566.73963 -171.12891 567.35156 C-174.51029 569.29298 -177.85197 571.29362 -181.1875 573.3125 C-185.62061 575.97237 -190.08845 578.57309 -194.55005 581.18481 C-198.38653 583.43792 -202.1929 585.72625 -205.95947 588.09424 C-212.03187 591.9109 -218.26029 595.319 -224.61743 598.63818 C-229.27354 601.07262 -233.87886 603.57494 -238.4375 606.1875 C-239.21468 606.63223 -239.21468 606.63223 -240.00757 607.08594 C-246.56418 610.86737 -253.02703 614.80947 -259.50781 618.71875 C-277.29909 629.44423 -295.2266 639.91767 -313.33716 650.09424 C-319.91555 653.79842 -326.44292 657.5817 -332.95282 661.40424 C-340.20552 665.66189 -347.46408 669.89686 -354.875 673.875 C-355.78476 674.36674 -355.78476 674.36674 -356.71289 674.86841 C-360.74856 677 -360.74856 677 -363 677 C-363.20897 669.54169 -363.36865 662.08461 -363.46631 654.62409 C-363.51319 651.15931 -363.57672 647.69654 -363.67896 644.23291 C-363.7771 640.88701 -363.83062 637.54304 -363.8539 634.19582 C-363.87047 632.92215 -363.90283 631.64859 -363.95157 630.37574 C-364.31706 620.43086 -364.31706 620.43086 -361.10966 616.94632 C-358.80387 615.38412 -356.52769 614.16226 -354 613 C-353.11272 612.4652 -352.22544 611.9304 -351.31128 611.37939 C-350.20393 610.76234 -350.20393 610.76234 -349.07422 610.13281 C-348.20926 609.6478 -347.3443 609.16279 -346.45312 608.66309 C-345.54047 608.15552 -344.62781 607.64795 -343.6875 607.125 C-342.1851 606.28225 -340.68271 605.43948 -339.18082 604.59583 C-338.12241 604.00131 -337.06379 603.40715 -336.00497 602.81335 C-329.4861 599.15584 -322.99096 595.45676 -316.5 591.75 C-315.59361 591.23246 -315.59361 591.23246 -314.66891 590.70447 C-307.59005 586.65954 -300.53551 582.58215 -293.56494 578.35254 C-288.03919 575.00369 -282.45889 571.7508 -276.875 568.5 C-275.85838 567.90775 -274.84177 567.31547 -273.8252 566.72314 C-271.6892 565.47871 -269.55313 564.23442 -267.41699 562.99023 C-266.86137 562.6666 -266.30574 562.34296 -265.73328 562.00952 C-264.55306 561.32212 -263.3728 560.63479 -262.1925 559.94751 C-257.79288 557.38529 -253.39526 554.81969 -249 552.25 C-248.37699 551.88583 -247.75398 551.52166 -247.11209 551.14645 C-239.48932 546.68626 -231.93748 542.1447 -224.4873 537.40015 C-218.22091 533.44148 -211.73396 529.8977 -205.23438 526.33984 C-200.48268 523.7337 -195.82848 520.97716 -191.1875 518.17969 C-189 517 -189 517 -187 517 C-187.00513 515.69892 -187.00513 515.69892 -187.01036 514.37156 C-187.16036 476.149 -187.29907 437.92641 -187.38109 399.70364 C-187.38233 399.12507 -187.38357 398.5465 -187.38485 397.95039 C-187.41179 385.37676 -187.43672 372.80312 -187.45959 360.22948 C-187.47081 354.06347 -187.48248 347.89746 -187.49438 341.73145 C-187.49556 341.11785 -187.49674 340.50425 -187.49795 339.87206 C-187.53631 319.97964 -187.60392 300.08744 -187.68667 280.19515 C-187.77396 259.1758 -187.82796 238.1566 -187.8468 217.13708 C-187.85916 204.54285 -187.89824 191.94929 -187.97125 179.35527 C-188.01873 170.72518 -188.03322 162.09544 -188.02151 153.46522 C-188.01573 148.48187 -188.02474 143.49968 -188.07285 138.51653 C-188.11656 133.95616 -188.11892 129.39772 -188.08809 124.83726 C-188.08428 123.18571 -188.09578 121.53404 -188.12395 119.88273 C-188.32255 107.52468 -188.32255 107.52468 -185.02712 103.7256 C-182.73072 102.16342 -180.56601 101.04551 -178 100 C-177.03191 99.44313 -176.06383 98.88625 -175.06641 98.3125 C-174.24012 97.87937 -173.41383 97.44625 -172.5625 97 C-168.99279 95.09615 -165.50793 93.12026 -162.0625 91 C-158.65522 88.92693 -155.22045 87.09961 -151.625 85.375 C-146.16836 82.69868 -141.00322 79.65826 -135.8125 76.5 C-128.04344 71.77578 -120.19187 67.23712 -112.25 62.8125 C-111.71319 62.51321 -111.17637 62.21391 -110.62329 61.90555 C-107.08429 59.93326 -103.54248 57.96605 -100 56 C-90.19376 50.55324 -80.49535 44.95202 -70.84839 39.22729 C-63.46822 34.85309 -56.05687 30.53567 -48.625 26.25 C-48.06944 25.92962 -47.51389 25.60924 -46.9415 25.27914 C-39.8503 21.19249 -32.74183 17.13856 -25.5896 13.15942 C-22.14682 11.23643 -18.74243 9.26087 -15.35938 7.23438 C-14.58022 6.76878 -13.80106 6.30319 -12.99829 5.82349 C-11.49261 4.92039 -9.9903 4.01164 -8.49194 3.09644 C-7.81784 2.69207 -7.14375 2.28771 -6.44922 1.87109 C-5.85456 1.50943 -5.2599 1.14777 -4.64722 0.77515 C-3 0 -3 0 0 0 Z " fill="#020202" transform="translate(1203,395)"/>
<path d="M0 0 C3.54823 1.39026 6.82696 2.92775 10.14844 4.80078 C11.63996 5.63899 11.63996 5.63899 13.16162 6.49414 C14.23278 7.1002 15.30391 7.70632 16.375 8.3125 C17.48634 8.93842 18.59783 9.56406 19.70947 10.18945 C23.1421 12.12198 26.57137 14.0604 30 16 C31.08073 16.61117 32.16146 17.22233 33.24219 17.8335 C34.28646 18.42415 35.33073 19.01481 36.375 19.60547 C36.88407 19.89336 37.39314 20.18125 37.91763 20.47786 C40.32026 21.83679 42.7221 23.19705 45.12256 24.55981 C50.56814 27.64671 56.04434 30.67061 61.54395 33.66016 C71.64358 39.16978 81.53427 45.05944 91.4642 50.86694 C97.61452 54.46256 103.7768 58.03147 110 61.5 C116.75933 65.26735 123.44532 69.1564 130.125 73.0625 C131.18081 73.67956 132.23663 74.29658 133.29248 74.91357 C133.80536 75.21328 134.31823 75.51299 134.84665 75.82178 C146.47052 82.61399 158.15987 89.22562 170.01221 95.61377 C170.90021 96.09443 171.78821 96.57509 172.70312 97.07031 C173.87343 97.70091 173.87343 97.70091 175.06738 98.34424 C176.03515 98.89064 177.00291 99.43704 178 100 C178.80321 100.31244 179.60642 100.62489 180.43398 100.9468 C183.48711 102.33648 185.61885 103.6216 188 106 C189.49297 110.98099 189.26752 115.84208 189.13525 121.00146 C189.13243 122.53927 189.13402 124.0771 189.13968 125.6149 C189.14254 129.78089 189.08383 133.94399 189.01394 138.1093 C188.95136 142.46535 188.94555 146.82146 188.93369 151.17789 C188.90262 159.42316 188.82059 167.66711 188.72019 175.9118 C188.60835 185.29972 188.55342 194.68771 188.50324 204.07613 C188.39875 223.38483 188.2229 242.69233 188 262 C182.38831 259.78846 177.25224 256.95065 172 254 C171.22962 253.56833 170.45925 253.13665 169.66553 252.69189 C160.60336 247.60166 151.55896 242.4958 142.8125 236.875 C141.95821 236.32622 141.95821 236.32622 141.08667 235.76636 C138.84627 234.30219 136.89888 232.89888 135 231 C134.76063 229.31825 134.76063 229.31825 134.77536 227.26923 C134.77596 226.10433 134.77596 226.10433 134.77657 224.91591 C134.78697 224.06291 134.79738 223.20991 134.80811 222.33105 C134.81091 221.43332 134.81371 220.53558 134.8166 219.61064 C134.82311 217.65665 134.83371 215.70266 134.84787 213.74871 C134.86729 210.65511 134.86954 207.56198 134.866 204.46832 C134.85629 195.67089 134.85592 186.8739 134.9209 178.07666 C134.95937 172.69883 134.95901 167.3222 134.93332 161.94431 C134.93091 159.895 134.943 157.84561 134.96991 155.79647 C135.00606 152.92513 134.99273 150.0579 134.96826 147.18652 C134.99082 146.34162 135.01337 145.49671 135.03661 144.62621 C134.9605 140.99662 134.81796 138.86222 132.25798 136.16372 C130.23162 134.62184 128.19876 133.28111 126 132 C124.54014 131.09737 124.54014 131.09737 123.05078 130.17651 C122.14715 129.67869 121.24352 129.18087 120.3125 128.66797 C119.81199 128.38996 119.31147 128.11195 118.79579 127.82552 C117.20014 126.94072 115.60015 126.06412 114 125.1875 C112.88433 124.5703 111.76902 123.95245 110.65405 123.33398 C108.45037 122.11238 106.24523 120.89348 104.03857 119.67725 C93.17772 113.68222 82.36909 107.62159 71.85547 101.03125 C71.29948 100.68457 70.74349 100.3379 70.17065 99.98071 C69.10833 99.31736 68.04832 98.65029 66.99146 97.97827 C63.67875 95.90949 60.28259 94.10959 56.7832 92.37329 C55.88638 91.92752 54.98955 91.48175 54.06555 91.02248 C53.38392 90.68506 52.70229 90.34764 52 90 C51.85292 134.21399 51.76884 178.42772 51.7694 222.64197 C51.76941 227.86035 51.7689 233.07874 51.76807 238.29712 C51.76791 239.33602 51.76775 240.37491 51.76759 241.44529 C51.7638 258.2731 51.71769 275.10053 51.65597 291.92821 C51.5936 309.19154 51.57662 326.45449 51.60191 343.71791 C51.61607 354.37303 51.59472 365.02687 51.5281 375.6818 C51.48582 382.98566 51.48759 390.28869 51.52415 397.59258 C51.54395 401.80889 51.54419 406.02283 51.49216 410.23892 C51.44494 414.10008 51.45308 417.95705 51.50515 421.81811 C51.51422 423.21394 51.50302 424.61008 51.46945 426.00554 C51.37443 430.22977 51.48266 433.99207 53 438 C56.68048 441.29685 60.44699 443.0618 65 445 C66.69683 445.89927 68.38619 446.81303 70.0625 447.75 C70.96484 448.23855 71.86719 448.72711 72.79688 449.23047 C80.28324 453.33348 87.63082 457.69161 95 462 C95.90847 462.53109 96.81693 463.06219 97.75293 463.60938 C107.98342 469.60004 118.18254 475.62237 128.16675 482.01782 C128.76528 482.39866 129.3638 482.7795 129.98047 483.17188 C130.49505 483.50284 131.00962 483.83381 131.53979 484.1748 C133.19365 485.17091 133.19365 485.17091 136 486 C136 447.72 136 409.44 136 370 C136.99 370 137.98 370 139 370 C139 370.66 139 371.32 139 372 C140.6545 372.69631 142.32477 373.35516 144 374 C146.1987 375.20743 148.31483 376.53933 150.4375 377.875 C150.98471 378.21402 151.53191 378.55305 152.0957 378.90234 C154.79171 380.58057 157.45291 382.29694 160.08203 384.07812 C162.75037 385.83558 165.42876 387.37991 168.25 388.875 C172.85746 391.35159 177.34906 393.9701 181.80859 396.70312 C183.9252 398.04266 183.9252 398.04266 186.10858 398.78688 C188 400 188 400 188.48102 402.08336 C188.47214 402.94909 188.46325 403.81482 188.4541 404.70679 C188.45368 406.19588 188.45368 406.19588 188.45325 407.71506 C188.42225 409.35464 188.42225 409.35464 188.39062 411.02734 C188.38166 412.78949 188.37269 414.55165 188.36377 416.3138 C188.35027 418.21051 188.32685 420.10687 188.30066 422.00345 C188.24667 425.9527 188.22302 429.90177 188.2041 433.85132 C188.15587 442.94792 188.06764 452.04405 187.97919 461.14034 C187.89854 469.47593 187.82625 477.81137 187.78633 486.14727 C187.76636 490.07599 187.72686 494.00388 187.67261 497.93227 C187.64999 499.78616 187.63647 501.63986 187.62708 503.49387 C187.61556 505.75769 187.58955 508.0215 187.54675 510.28494 C187.54633 511.77404 187.54633 511.77404 187.5459 513.29321 C187.53702 514.15894 187.52813 515.02468 187.51898 515.91664 C187.78432 518.16764 187.78432 518.16764 189.86769 519.20958 C190.92318 519.60084 190.92318 519.60084 192 520 C206.53668 527.65277 220.94018 535.49717 235 544 C236.72906 545.04184 238.45821 546.08353 240.1875 547.125 C241.34572 547.82303 241.34572 547.82303 242.52734 548.53516 C245.41524 550.24599 248.33092 551.90575 251.25 553.5625 C260.34388 558.72768 269.32507 564.08427 278.32275 569.41455 C287.54101 574.87355 296.76327 580.32265 306.07593 585.61938 C310.02969 587.86966 313.97427 590.13553 317.91406 592.41016 C318.4484 592.71864 318.98274 593.02712 319.53326 593.34496 C322.33587 594.96333 325.13788 596.58272 327.93945 598.20288 C333.36055 601.33599 338.78867 604.45486 344.24219 607.53125 C345.68743 608.34868 345.68743 608.34868 347.16187 609.18262 C348.96893 610.20305 350.77823 611.21954 352.59009 612.23145 C353.39438 612.68616 354.19868 613.14088 355.02734 613.60938 C355.72594 614.00093 356.42453 614.39248 357.14429 614.7959 C359.15115 616.09808 360.51154 617.11595 362 619 C362.36076 621.56267 362.36076 621.56267 362.34058 624.66479 C362.34101 625.23094 362.34145 625.79709 362.3419 626.38039 C362.33982 628.24743 362.3165 630.11358 362.29297 631.98047 C362.28737 633.27655 362.2831 634.57264 362.28011 635.86873 C362.26866 639.27686 362.2392 642.68461 362.20599 646.09259 C362.17528 649.57144 362.1616 653.05035 362.14648 656.5293 C362.11433 663.35304 362.06314 670.17647 362 677 C358.03166 676.28516 355.22793 675.20006 351.73828 673.14844 C351.23926 672.85788 350.74023 672.56732 350.22609 672.26796 C348.58433 671.31013 346.94854 670.34256 345.3125 669.375 C344.15229 668.69595 342.99164 668.01766 341.83057 667.34009 C339.41773 665.93128 337.00683 664.51921 334.59717 663.10498 C329.57823 660.1632 324.53356 657.26634 319.49014 654.36682 C315.17686 651.88504 310.86945 649.39305 306.56128 646.9024 C305.03395 646.01962 303.50623 645.13749 301.97852 644.25537 C290.20976 637.45362 278.53599 630.52416 266.9375 623.4375 C255.6905 616.56756 244.31719 609.98047 232.80322 603.56494 C227.98342 600.87422 223.17961 598.15523 218.375 595.4375 C217.41924 594.8969 216.46348 594.3563 215.47876 593.79932 C213.57616 592.7228 211.67373 591.64598 209.77148 590.56885 C207.96599 589.54682 206.16002 588.52561 204.35352 587.50537 C193.55402 581.40264 182.85751 575.14861 172.23898 568.73746 C163.5669 563.50351 154.82409 558.4048 146.03726 553.36621 C138.8087 549.22 131.62836 545.00452 124.5 540.6875 C117.76992 536.61545 110.96952 532.71653 104.07495 528.93066 C97.59785 525.36207 91.19736 521.66764 84.8125 517.9375 C84.29206 517.63345 83.77162 517.3294 83.23541 517.01614 C77.34202 513.56993 71.46643 510.09614 65.625 506.5625 C58.9924 502.55063 52.27983 498.67997 45.5625 494.8125 C44.44431 494.16817 43.32615 493.52381 42.20801 492.87939 C37.67594 490.26793 33.14386 487.65649 28.60791 485.05176 C25.87739 483.48332 23.14998 481.90959 20.42453 480.33237 C18.92388 479.46573 17.42012 478.60447 15.91626 477.74341 C14.99257 477.20804 14.06887 476.67268 13.11719 476.12109 C12.3191 475.66146 11.52101 475.20183 10.69873 474.72827 C9.80815 474.15794 8.91757 473.58761 8 473 C7.34669 472.72524 6.69338 472.45047 6.02027 472.16738 C3.29069 470.72845 1.82979 469.51123 0 467 C-1.62235 461.09435 -1.04282 454.61086 -0.96204 448.54935 C-0.96552 446.61788 -0.97253 444.68641 -0.98275 442.75497 C-1.00066 437.4435 -0.96861 432.13333 -0.92852 426.82203 C-0.89756 421.68401 -0.90421 416.54613 -0.90998 411.40804 C-0.92049 400.89823 -0.89377 390.38882 -0.84584 379.87912 C-0.7985 369.47331 -0.76771 359.06766 -0.75902 348.66174 C-0.75847 348.01473 -0.75792 347.36772 -0.75735 346.7011 C-0.75464 343.41525 -0.75223 340.1294 -0.74994 336.84356 C-0.73313 313.57007 -0.67924 290.2968 -0.60352 267.02344 C-0.53004 244.41375 -0.47337 221.80412 -0.43945 199.19434 C-0.4384 198.4974 -0.43735 197.80047 -0.43626 197.08241 C-0.42572 190.0835 -0.41551 183.08459 -0.40555 176.08568 C-0.38526 161.8281 -0.36269 147.57053 -0.33875 133.31296 C-0.33765 132.65742 -0.33655 132.00188 -0.33542 131.32647 C-0.26181 87.55089 -0.13488 43.77543 0 0 Z " fill="#010101" transform="translate(426,395)"/>
<path d="M0 0 C3.00691 1.49112 5.93951 3.06659 8.85938 4.72266 C9.80281 5.25689 10.74624 5.79113 11.71826 6.34155 C12.71874 6.90947 13.71921 7.47738 14.75 8.0625 C16.8305 9.2426 18.91127 10.4222 20.99219 11.60156 C21.50762 11.89379 22.02305 12.18602 22.55411 12.48711 C25.61477 14.22077 28.68229 15.94129 31.75781 17.64844 C32.46196 18.04023 33.16611 18.43203 33.8916 18.83569 C35.15489 19.53747 36.41971 20.2365 37.68652 20.93188 C38.81108 21.55795 39.92739 22.19916 41.03282 22.8584 C42.42222 23.6647 43.84186 24.41993 45.27936 25.13696 C51.48941 28.58129 51.48941 28.58129 52.82682 32.29736 C53.13773 35.17271 53.15679 37.92846 53.08229 40.81992 C53.08998 41.91127 53.09767 43.00262 53.10559 44.12704 C53.12567 47.14739 53.0898 50.16485 53.04459 53.18483 C53.00566 56.44446 53.01888 59.70394 53.02571 62.96375 C53.03043 68.60839 53.00223 74.25209 52.95157 79.8965 C52.87837 88.05715 52.85498 96.21735 52.84368 104.3783 C52.82399 117.61916 52.76412 130.85951 52.67896 144.1001 C52.59632 156.96075 52.53263 169.82127 52.49438 182.68213 C52.49202 183.47509 52.48966 184.26806 52.48722 185.08505 C52.47547 189.06319 52.4641 193.04133 52.45291 197.01947 C52.35964 230.01333 52.20114 263.00663 52 296 C54.7134 293.36598 56.908 290.79407 58.95947 287.60645 C60.77776 284.79924 62.74134 282.0944 64.6875 279.375 C65.12103 278.7689 65.55456 278.1628 66.00122 277.53833 C71.34477 270.09389 76.8151 262.75031 82.5 255.5625 C85.65175 251.53406 88.55981 247.36575 91.45312 243.15088 C100.42606 230.08045 109.77909 217.29463 119.58984 204.83984 C120.0552 204.2327 120.52055 203.62555 121 203 C121.35334 202.57472 121.70668 202.14944 122.07073 201.71127 C123.35837 199.34006 123.26265 197.47253 123.27847 194.77986 C123.28964 193.69873 123.3008 192.61759 123.3123 191.50369 C123.31467 190.3056 123.31684 189.10751 123.31885 187.90942 C123.32815 186.64791 123.33831 185.3864 123.34929 184.12489 C123.37662 180.69957 123.39175 177.27429 123.40472 173.84889 C123.42034 170.26939 123.44713 166.68997 123.47275 163.11052 C123.51956 156.33203 123.55629 149.55353 123.58942 142.77497 C123.62763 135.05795 123.67704 127.34101 123.7274 119.62405 C123.83076 103.74943 123.92001 87.87476 124 72 C126.90552 73.14873 129.7136 74.30046 132.45312 75.80469 C133.06857 76.1392 133.68402 76.47371 134.31812 76.81836 C134.95564 77.16705 135.59316 77.51574 136.25 77.875 C141.73256 80.84123 147.23063 83.62346 153 86 C153 85.34 153 84.68 153 84 C154.78833 82.76318 154.78833 82.76318 157.26953 81.39844 C158.15834 80.90859 159.04715 80.41875 159.96289 79.91406 C160.90326 79.40617 161.84363 78.89828 162.8125 78.375 C163.74127 77.85938 164.67004 77.34375 165.62695 76.8125 C172.61149 73 172.61149 73 176 73 C176.35962 74.95268 176.35962 74.95268 176.33817 77.74739 C176.3377 78.80009 176.33723 79.85279 176.33675 80.93739 C176.32121 82.11948 176.30548 83.30156 176.28955 84.48364 C176.28384 85.717 176.27956 86.95037 176.27663 88.18375 C176.26799 90.8505 176.25068 93.517 176.2273 96.18366 C176.19193 100.40835 176.1855 104.63277 176.18503 108.85759 C176.18006 120.87528 176.1513 132.89255 176.05859 144.90991 C176.0077 151.5394 175.98927 158.16817 176.00618 164.79784 C176.01368 168.30497 176.00454 171.81027 175.95493 175.31709 C175.90813 178.62645 175.90386 181.93327 175.93051 185.24283 C175.93394 187.01935 175.89297 188.79579 175.85008 190.57179 C175.9943 200.07254 179.77798 204.43243 186 211 C186.77065 212.04766 187.51665 213.11509 188.21094 214.21484 C190.51251 217.79787 193.06055 221.16486 195.625 224.5625 C196.15134 225.26286 196.67768 225.96323 197.21997 226.68481 C200.10295 230.51328 203.01335 234.31836 205.95508 238.10181 C210.45848 243.8961 214.70572 249.81795 218.84766 255.875 C222.12575 260.66028 225.57212 265.32132 229 270 C229.71294 270.98387 230.42517 271.96825 231.13672 272.95312 C231.49049 273.44216 231.84425 273.9312 232.20874 274.43506 C233.18646 275.78713 234.16356 277.13964 235.14062 278.49219 C236.46757 280.2819 237.81207 281.9868 239.23438 283.69531 C241 286 241 286 241 288 C241.99 288.33 242.98 288.66 244 289 C245.6875 291.5625 245.6875 291.5625 247 294 C247.00022 293.44751 247.00043 292.89503 247.00066 292.3258 C247.01417 259.59166 247.05363 226.85764 247.12686 194.12357 C247.13562 190.19444 247.14417 186.26531 247.15259 182.33618 C247.15427 181.55395 247.15595 180.77172 247.15768 179.96579 C247.18436 167.29477 247.19344 154.62379 247.19604 141.95275 C247.1991 128.95413 247.22103 115.95564 247.26052 102.95708 C247.28431 94.93417 247.29332 86.91152 247.28351 78.88858 C247.2782 73.38929 247.2912 67.89024 247.31866 62.39102 C247.33397 59.21664 247.34114 56.04278 247.3266 52.86839 C247.31105 49.42788 247.334 45.98825 247.36076 42.54781 C247.35009 41.54294 247.33942 40.53808 247.32842 39.50276 C247.43803 31.97774 247.43803 31.97774 250.38802 28.93656 C252.86676 27.09879 255.24069 25.56422 257.98828 24.16406 C258.94944 23.66036 259.9106 23.15666 260.90088 22.6377 C261.40637 22.37348 261.91187 22.10926 262.43268 21.83704 C265.15424 20.38357 267.81514 18.82693 270.48047 17.27344 C271.02946 16.95482 271.57845 16.6362 272.14407 16.30792 C274.39487 15.00125 276.64408 13.69189 278.89233 12.38086 C296.7082 2 296.7082 2 301 2 C301.23867 47.07162 301.3932 92.14286 301.43486 137.21512 C301.43985 142.53607 301.44554 147.85703 301.45166 153.17798 C301.45287 154.23729 301.45407 155.29659 301.45532 156.388 C301.47651 173.54118 301.55415 190.69366 301.65264 207.84654 C301.75244 225.44664 301.7916 243.04613 301.77445 260.6465 C301.76578 271.50779 301.80442 282.36679 301.90357 293.22763 C301.96703 300.6751 301.97158 308.12115 301.92985 315.56876 C301.90751 319.86701 301.9111 324.16111 301.98466 328.45888 C302.3911 353.61976 302.3911 353.61976 298.42939 359.22033 C294.70613 362.5432 290.69719 364.14568 285.92329 365.4104 C283.00617 366.30467 280.86752 367.81744 278.375 369.5625 C256.76616 383.55617 256.76616 383.55617 250 385 C247.75781 384.21094 247.75781 384.21094 246 383 C246 382.34 246 381.68 246 381 C245.01 380.67 244.02 380.34 243 380 C241.83203 378.66016 241.83203 378.66016 240.8125 377.0625 C240.46832 376.53785 240.12414 376.0132 239.76953 375.47266 C239 374 239 374 239 372 C238.34 372 237.68 372 237 372 C237 371.01 237 370.02 237 369 C236.34 369 235.68 369 235 369 C233.92969 367.75781 233.92969 367.75781 232.875 366.125 C232.5218 365.59133 232.16859 365.05766 231.80469 364.50781 C231 363 231 363 231 361 C230.34 361 229.68 361 229 361 C226 356.61538 226 356.61538 226 354 C225.34 354 224.68 354 224 354 C222.59766 352.17188 222.59766 352.17188 221.0625 349.75 C219.54115 347.36876 218.0455 345.05842 216.30859 342.82812 C215 341 215 341 215 339 C214.34 339 213.68 339 213 339 C211.59766 337.17188 211.59766 337.17188 210.0625 334.75 C208.54115 332.36876 207.0455 330.05842 205.30859 327.82812 C204 326 204 326 204 324 C203.34 324 202.68 324 202 324 C201.66667 322.66667 201.33333 321.33333 201 320 C200.34 320 199.68 320 199 320 C197.92969 318.75781 197.92969 318.75781 196.875 317.125 C196.5218 316.59133 196.16859 316.05766 195.80469 315.50781 C195 314 195 314 195 312 C194.34 312 193.68 312 193 312 C192.33333 310 191.66667 308 191 306 C190.34 306 189.68 306 189 306 C189 305.34 189 304.68 189 304 C188.34 304 187.68 304 187 304 C186.66667 302.66667 186.33333 301.33333 186 300 C185.34 300 184.68 300 184 300 C183.66667 298.66667 183.33333 297.33333 183 296 C182.34 296 181.68 296 181 296 C180.66667 294.66667 180.33333 293.33333 180 292 C179.34 292 178.68 292 178 292 C176.92969 290.75781 176.92969 290.75781 175.875 289.125 C175.5218 288.59133 175.16859 288.05766 174.80469 287.50781 C174 286 174 286 174 284 C173.34 284 172.68 284 172 284 C170.84375 282.48828 170.84375 282.48828 169.5 280.3125 C166.36625 275.41698 162.87521 270.88046 159.25195 266.34302 C156 262.21147 156 262.21147 156 260 C155.34 260 154.68 260 154 260 C151 255.61538 151 255.61538 151 253 C147.27005 256.59602 143.98846 260.34786 140.8125 264.4375 C140.10456 265.3446 140.10456 265.3446 139.38232 266.27002 C132.80559 274.75903 126.25604 283.39563 120.9375 292.74219 C120.62812 293.15727 120.31875 293.57234 120 294 C119.34 294 118.68 294 118 294 C116.97349 295.7152 116.97349 295.7152 116 298 C115.07006 300.06096 114.08593 302.00913 113 304 C112.34 304 111.68 304 111 304 C110.28866 305.31005 109.63116 306.6495 109 308 C108.02682 309.47636 107.02359 310.93312 106 312.375 C105.38383 313.24641 104.76766 314.11781 104.13281 315.01562 C102.59215 317.17637 101.04301 319.33092 99.49219 321.48438 C98.61966 322.69782 97.74726 323.91136 96.875 325.125 C96.22918 326.02122 96.22918 326.02122 95.57031 326.93555 C92.82894 330.76415 90.26834 334.64608 87.9375 338.74219 C87.62812 339.15727 87.31875 339.57234 87 340 C86.34 340 85.68 340 85 340 C83.93283 341.79933 83.93283 341.79933 83 344 C82 346.25 82 346.25 81 348 C80.34 348 79.68 348 79 348 C79 348.66 79 349.32 79 350 C78.34 350 77.68 350 77 350 C76.56177 351.44952 76.12481 352.89944 75.69531 354.35156 C74.69501 356.72307 73.09986 358.07071 71.22656 359.78516 C69.39276 361.60144 68.28094 363.77228 67 366 C66.29875 366.86625 65.5975 367.7325 64.875 368.625 C62.8329 370.93523 62.8329 370.93523 62 374 C61.34 374 60.68 374 60 374 C58.66656 376.3113 57.68223 378.73665 56.625 381.1875 C55 384 55 384 53.15723 384.80298 C50.37986 385.05664 49.24677 384.3811 46.85938 382.96484 C46.04735 382.49168 45.23532 382.01851 44.39868 381.53101 C43.52462 381.00515 42.65055 380.47929 41.75 379.9375 C40.8392 379.40326 39.92839 378.86903 38.98999 378.3186 C36.51135 376.86331 34.03907 375.3978 31.5683 373.9292 C27.27213 371.38377 22.95408 368.87541 18.6405 366.35965 C17.09099 365.45415 15.54376 364.54484 13.99707 363.63452 C13.04026 363.07322 12.08346 362.51191 11.09766 361.93359 C10.25727 361.43916 9.41688 360.94472 8.55103 360.4353 C5.9686 358.90464 5.9686 358.90464 2.8867 357.78085 C0 356 0 356 -0.74519 353.34472 C-0.74291 352.26442 -0.74063 351.18411 -0.73829 350.07107 C-0.74867 349.16429 -0.74867 349.16429 -0.75927 348.23919 C-0.77523 346.19984 -0.74817 344.1633 -0.72153 342.1241 C-0.72414 340.65307 -0.72939 339.18205 -0.73706 337.71105 C-0.75052 333.65851 -0.72642 329.60692 -0.69639 325.5545 C-0.67055 321.18846 -0.67925 316.82247 -0.68381 312.45638 C-0.68696 304.88847 -0.66809 297.32088 -0.63438 289.75306 C-0.58567 278.81124 -0.57 267.86956 -0.56245 256.92764 C-0.54931 239.17636 -0.50936 221.42526 -0.45264 203.67407 C-0.39759 186.42766 -0.3551 169.1813 -0.32959 151.93481 C-0.32801 150.87223 -0.32644 149.80965 -0.32481 148.71487 C-0.31698 143.38435 -0.3094 138.05383 -0.30194 132.72332 C-0.23971 88.4821 -0.13401 44.24106 0 0 Z " fill="#020202" transform="translate(664,529)"/>
<path d="M0 0 C0.66 0 1.32 0 2 0 C2.49187 17.76711 2.86149 35.53282 3.08806 53.30534 C3.19609 61.55899 3.34315 69.8084 3.58423 78.05933 C3.79441 85.25635 3.92921 92.4503 3.97586 99.6503 C4.00312 103.46023 4.06645 107.26138 4.22033 111.06847 C5.11737 134.14241 5.11737 134.14241 -0.04031 140.52479 C-4.98739 144.76336 -10.45331 147.48651 -16.45729 149.92485 C-20.03822 151.439 -23.23908 153.42255 -26.51562 155.49609 C-27.63814 156.16094 -28.76283 156.82216 -29.89062 157.47803 C-30.43912 157.7981 -30.98762 158.11817 -31.55273 158.44794 C-32.11283 158.77449 -32.67293 159.10105 -33.25 159.4375 C-33.84555 159.78597 -34.44109 160.13444 -35.05469 160.49347 C-46.81234 167.37187 -58.6772 174.05243 -70.59766 180.64404 C-72.30036 181.6051 -73.97281 182.62069 -75.62109 183.67236 C-78 185 -78 185 -81 185 C-81.37424 167.03291 -81.65613 149.06646 -81.82899 131.09626 C-81.9114 122.75157 -82.02368 114.4093 -82.20703 106.06616 C-82.36683 98.79155 -82.4698 91.51869 -82.50542 84.24238 C-82.52623 80.39064 -82.57488 76.54392 -82.69168 72.6938 C-83.37525 49.27375 -83.37525 49.27375 -79.44618 43.8584 C-75.71974 40.59822 -71.66143 38.94083 -66.94098 37.60567 C-64.07366 36.71094 -61.77915 35.28605 -59.23047 33.70703 C-57.97037 32.98411 -57.97037 32.98411 -56.68481 32.24658 C-55.8607 31.77333 -55.03659 31.30009 -54.1875 30.8125 C-47.93914 27.2309 -41.67287 23.70413 -35.33203 20.28906 C-32.00743 18.45134 -28.77472 16.46997 -25.52734 14.5 C-21.09124 11.86714 -16.5421 9.44382 -12 7 C-9.95688 5.89847 -7.91565 4.79362 -5.875 3.6875 C-4.96492 3.19637 -4.05484 2.70523 -3.11719 2.19922 C-1.08167 1.17059 -1.08167 1.17059 0 0 Z " fill="#FBFBFB" transform="translate(1148,485)"/>
<path d="M0 0 C0.13897 7.77104 0.2456 15.54164 0.31087 23.31365 C0.3422 26.92252 0.38469 30.53054 0.45264 34.13892 C0.5178 37.62084 0.5537 41.10196 0.56926 44.58445 C0.58036 45.91345 0.60202 47.2424 0.63438 48.57105 C0.67791 50.43223 0.68394 52.29001 0.68115 54.15161 C0.69448 55.21084 0.7078 56.27007 0.72153 57.3614 C0 60 0 60 -2.88689 61.78056 C-4.42788 62.38418 -4.42788 62.38418 -6 63 C-7.65667 63.90408 -9.30654 64.82074 -10.94922 65.75 C-12.33077 66.53069 -12.33077 66.53069 -13.74023 67.32715 C-14.71283 67.87919 -15.68543 68.43123 -16.6875 69 C-18.22559 69.87158 -18.22559 69.87158 -19.76367 70.74316 C-32.46871 77.94967 -45.12623 85.23091 -57.62842 92.78467 C-62.49189 95.71602 -67.40604 98.5517 -72.34692 101.35034 C-74.8384 102.76162 -77.29508 104.18794 -79.71094 105.72656 C-82 107 -82 107 -85 107 C-85.23234 99.42877 -85.40969 91.85878 -85.51812 84.28475 C-85.57018 80.76708 -85.6407 77.25186 -85.75439 73.7356 C-85.86357 70.33778 -85.92294 66.94231 -85.94877 63.54288 C-85.96716 62.25043 -86.00308 60.95811 -86.0573 59.66667 C-86.22035 55.61949 -86.18272 51.92028 -85 48 C-82.0561 44.82372 -78.84015 42.9382 -75 41 C-73.53536 40.15257 -72.07266 39.30177 -70.61328 38.44531 C-69.18236 37.66694 -67.7487 36.89359 -66.3125 36.125 C-60.80836 33.12238 -55.35525 30.07364 -50 26.8125 C-42.97483 22.54507 -35.86847 18.42154 -28.75 14.3125 C-28.20005 13.99439 -27.65011 13.67629 -27.0835 13.34854 C-3.99804 0 -3.99804 0 0 0 Z " fill="#030303" transform="translate(1203,804)"/>
<path d="M0 0 C0.33 0 0.66 0 1 0 C1.10579 1.37625 1.13411 2.7583 1.13867 4.1386 C1.14414 5.0617 1.14961 5.9848 1.15525 6.93588 C1.15672 8.48253 1.15672 8.48253 1.15822 10.06042 C1.16563 11.68364 1.16563 11.68364 1.17318 13.33964 C1.18595 16.36107 1.1942 19.38245 1.20061 22.40389 C1.20858 25.65547 1.22229 28.90702 1.23532 32.15858 C1.25713 37.79802 1.27526 43.43746 1.29093 49.07692 C1.31359 57.23074 1.34173 65.38454 1.37125 73.53835 C1.41897 86.76562 1.46222 99.99291 1.50269 113.22021 C1.54202 126.07341 1.58344 138.9266 1.62769 151.77979 C1.63041 152.57134 1.63313 153.36289 1.63594 154.17843 C1.64962 158.14921 1.66334 162.11999 1.67708 166.09077 C1.79112 199.06049 1.89791 232.03024 2 265 C0.68 264.67 -0.64 264.34 -2 264 C-1.67 263.34 -1.34 262.68 -1 262 C-0.9031 260.55659 -0.86798 259.10881 -0.86413 257.66215 C-0.85927 256.74552 -0.85441 255.82889 -0.84941 254.88448 C-0.84896 253.36408 -0.84896 253.36408 -0.84851 251.81296 C-0.84428 250.74136 -0.84005 249.66976 -0.83569 248.56569 C-0.82489 245.58298 -0.81856 242.60032 -0.81405 239.61761 C-0.80811 236.40424 -0.79644 233.19089 -0.78542 229.97754 C-0.76705 224.40743 -0.75221 218.83733 -0.73964 213.26721 C-0.72137 205.21368 -0.69671 197.16018 -0.67027 189.10668 C-0.62745 176.04134 -0.58834 162.976 -0.55225 149.91064 C-0.55008 149.12823 -0.54792 148.34582 -0.54569 147.5397 C-0.52817 141.18963 -0.51082 134.83955 -0.49349 128.48947 C-0.47833 122.93585 -0.46309 117.38223 -0.44775 111.82861 C-0.4456 111.04655 -0.44344 110.26448 -0.44121 109.45871 C-0.40516 96.44089 -0.36521 83.42309 -0.32245 70.40529 C-0.29624 62.36696 -0.27359 54.32864 -0.25547 46.29029 C-0.24284 40.78834 -0.22673 35.28642 -0.20782 29.78449 C-0.19702 26.60481 -0.18792 23.42514 -0.18312 20.24544 C-0.17791 16.80796 -0.16511 13.37053 -0.15149 9.93307 C-0.15119 8.91501 -0.1509 7.89695 -0.15059 6.84803 C-0.14331 5.48091 -0.14331 5.48091 -0.13587 4.08616 C-0.13376 3.29135 -0.13164 2.49655 -0.12946 1.67765 C-0.08674 1.12403 -0.04402 0.5704 0 0 Z M-4 259 C-3.01 259.495 -3.01 259.495 -2 260 C-2.33 260.66 -2.66 261.32 -3 262 C-3.33 261.01 -3.66 260.02 -4 259 Z " fill="#737373" transform="translate(912,561)"/>
</svg>