
<!-- Generator: visioncortex VTracer 0.6.4 -->
<svg version="1.1" xmlns="http://www.w3.org/2000/svg" viewBox="0 0 1110 625" preserveAspectRatio="xMidYMid meet">
<path d="M0 0 C366.3 0 732.6 0 1110 0 C1110 206.25 1110 412.5 1110 625 C743.7 625 377.4 625 0 625 C0 418.75 0 212.5 0 0 Z " fill="#F9F9F9" transform="translate(0,0)"/>
<path d="M0 0 C4.0755 2.04279 8.02042 4.29596 11.96533 6.57861 C14.03555 7.76466 16.10802 8.94675 18.18018 10.12939 C18.71785 10.43696 19.25552 10.74452 19.80948 11.0614 C25.85325 14.51524 31.93915 17.89229 38.02783 21.26611 C39.16018 21.89416 40.29251 22.52225 41.4248 23.15039 C43.71595 24.42125 46.00732 25.6917 48.29883 26.96191 C51.82026 28.91422 55.34026 30.86911 58.85986 32.82471 C59.44108 33.14764 60.02231 33.47058 60.62114 33.8033 C63.49667 35.40109 66.37205 36.99915 69.24731 38.59741 C74.20256 41.35152 79.15892 44.1035 84.12158 46.84424 C106.41297 59.1614 106.41297 59.1614 107.77783 61.89111 C106.32861 63.01343 106.32861 63.01343 104.09033 64.25439 C103.25881 64.722 102.42728 65.18961 101.57056 65.67139 C100.64896 66.17702 99.72736 66.68266 98.77783 67.20361 C97.82594 67.73632 96.87405 68.26902 95.89331 68.81787 C93.8713 69.94913 91.8478 71.07708 89.82129 72.2002 C85.1044 74.82086 80.41102 77.48272 75.71533 80.14111 C74.77222 80.67333 73.82911 81.20556 72.85742 81.75391 C64.59558 86.41743 56.36189 91.12933 48.12936 95.84433 C38.55236 101.32725 28.94126 106.74631 19.29785 112.11157 C18.35281 112.63823 17.40776 113.1649 16.43408 113.70752 C15.5124 114.21815 14.59072 114.72878 13.64111 115.25488 C11.58525 116.42971 9.57593 117.62765 7.5708 118.88281 C7.03628 119.21176 6.50177 119.54071 5.95105 119.87962 C4.45627 120.80361 2.97122 121.74327 1.48682 122.68384 C-1.75787 124.12985 -2.90652 124.06083 -6.22217 122.89111 C-8.17617 121.91593 -10.09227 120.86302 -11.97607 119.7583 C-12.51764 119.44338 -13.0592 119.12845 -13.61717 118.80399 C-15.34364 117.79797 -17.06417 116.7823 -18.78467 115.76611 C-19.91254 115.10661 -21.04079 114.44775 -22.16943 113.78955 C-26.60606 111.19882 -31.03429 108.59403 -35.45605 105.97803 C-40.36991 103.07951 -45.28711 100.27614 -50.41992 97.78174 C-53.48182 96.26863 -56.44089 94.57778 -59.40967 92.89111 C-60.08256 92.51084 -60.75545 92.13057 -61.44873 91.73877 C-68.11627 87.96492 -74.76491 84.15769 -81.41309 80.34985 C-86.25742 77.57703 -91.11164 74.82382 -95.98389 72.10034 C-111.02852 63.68788 -111.02852 63.68788 -113.22217 61.89111 C-113.22217 61.23111 -113.22217 60.57111 -113.22217 59.89111 C-111.45654 58.70532 -111.45654 58.70532 -108.97217 57.38721 C-108.06177 56.89849 -107.15137 56.40978 -106.21338 55.90625 C-105.22628 55.38563 -104.23918 54.86501 -103.22217 54.32861 C-101.18525 53.23701 -99.1488 52.14456 -97.11279 51.05127 C-95.60169 50.24327 -95.60169 50.24327 -94.06006 49.41895 C-90.33714 47.41464 -86.64988 45.3519 -82.97217 43.26611 C-77.54875 40.19855 -72.11054 37.15963 -66.65967 34.14111 C-58.67179 29.71445 -50.72125 25.22324 -42.77539 20.72168 C-35.9802 16.87528 -29.17063 13.05617 -22.32275 9.3042 C-19.04281 7.4994 -15.81221 5.66315 -12.65576 3.64893 C-12.11202 3.30781 -11.56828 2.96669 -11.00806 2.61523 C-9.59466 1.7188 -8.19665 0.79823 -6.80029 -0.12451 C-4.00759 -1.19082 -2.7399 -1.13879 0 0 Z " fill="#040404" transform="translate(267.22216796875,172.10888671875)"/>
<path d="M0 0 C0.9552 0.5427 1.91039 1.08539 2.89453 1.64453 C3.51787 1.98364 4.14122 2.32274 4.78345 2.67212 C6.9355 3.8651 9.0396 5.12038 11.14453 6.39453 C12.27496 7.06887 12.27496 7.06887 13.42822 7.75684 C16.57248 9.63487 19.70596 11.53049 22.83984 13.42578 C26.85409 15.8524 30.88447 18.21165 35.00781 20.44922 C35.97332 20.97387 36.93883 21.49852 37.93359 22.03906 C39.39926 22.83377 39.39926 22.83377 40.89453 23.64453 C52.96168 30.19675 65.01689 36.75307 76.89453 43.64453 C73.32705 46.6749 69.69326 48.95548 65.51953 51.08203 C51.36952 58.46832 37.48804 66.39076 23.84521 74.67456 C19.43217 77.34726 14.95455 79.86943 10.39453 82.28516 C8.70095 83.20604 7.03386 84.17707 5.39453 85.19141 C4.61078 85.67094 3.82703 86.15047 3.01953 86.64453 C2.00246 87.29422 2.00246 87.29422 0.96484 87.95703 C-1.99293 88.93924 -3.29806 87.92197 -6.10547 86.64453 C-7.99862 85.63112 -9.8737 84.58358 -11.73438 83.51172 C-12.27268 83.20289 -12.81099 82.89406 -13.36562 82.57587 C-15.13478 81.56004 -16.90132 80.53974 -18.66797 79.51953 C-19.9137 78.80352 -21.15963 78.08787 -22.40576 77.37256 C-25.00166 75.882 -27.59666 74.38989 -30.19092 72.89648 C-36.36465 69.34347 -42.54688 65.80535 -48.73047 62.26953 C-49.31269 61.93645 -49.89492 61.60337 -50.49478 61.26019 C-60.32044 55.64068 -70.18846 50.10151 -80.10547 44.64453 C-77.58123 41.7741 -74.60097 40.09402 -71.27734 38.30859 C-70.70047 37.99311 -70.1236 37.67763 -69.52925 37.35258 C-68.28773 36.67421 -67.04495 35.99814 -65.80106 35.32413 C-63.16376 33.89459 -60.53315 32.45297 -57.90224 31.01173 C-56.56312 30.27817 -55.22371 29.54513 -53.88402 28.81261 C-47.95487 25.56918 -42.05338 22.27931 -36.16797 18.95703 C-35.25378 18.44406 -34.33959 17.9311 -33.39771 17.40259 C-28.53608 14.65685 -23.74495 11.82593 -19.00391 8.87891 C-17.99494 8.25833 -16.98575 7.63813 -15.97632 7.01831 C-14.06756 5.8397 -12.1692 4.64403 -10.28345 3.42896 C-3.97355 -0.45483 -3.97355 -0.45483 0 0 Z " fill="#F8F8F8" transform="translate(266.10546875,189.35546875)"/>
<path d="M0 0 C0.62912 10.29845 1.1069 20.59226 1.39893 30.90608 C1.53923 35.69817 1.7287 40.47702 2.03687 45.26147 C3.92439 75.34677 3.92439 75.34677 -1.15569 82.66482 C-6.6316 88.52035 -14.20459 91.47635 -21.65578 93.99282 C-26.8837 95.78473 -31.32011 98.4019 -35.92453 101.43137 C-39.8351 104 -39.8351 104 -42 104 C-41.94226 104.79354 -41.88453 105.58709 -41.82504 106.40468 C-41.30035 113.94675 -40.90664 121.48259 -40.65288 129.03881 C-40.51796 132.92393 -40.33606 136.79383 -40.03857 140.67017 C-38.22176 164.97891 -38.22176 164.97891 -43.11347 171.47974 C-48.97901 177.4345 -56.94413 180.54471 -64.58531 183.55573 C-70.20421 185.83019 -75.27517 189.1023 -80.4375 192.25 C-82.39221 193.40189 -84.35411 194.5407 -86.31641 195.67969 C-90.09856 197.88729 -93.87653 200.10188 -97.65234 202.32031 C-99.39316 203.33866 -101.13404 204.3569 -102.875 205.375 C-103.6722 205.84583 -104.46941 206.31666 -105.29077 206.80176 C-106.01724 207.22554 -106.74371 207.64932 -107.49219 208.08594 C-108.44134 208.64354 -108.44134 208.64354 -109.40967 209.2124 C-111 210 -111 210 -113 210 C-113.93819 204.05041 -114.6947 197.8672 -113 192 C-109.99255 187.90846 -104.90069 186.12096 -100.39209 184.11768 C-95.97847 182.05546 -91.82921 179.51624 -87.625 177.0625 C-85.84078 176.04652 -84.05563 175.0322 -82.26953 174.01953 C-78.81069 172.04732 -75.37157 170.04658 -71.94922 168.01172 C-71.16531 167.54564 -70.3814 167.07957 -69.57373 166.59937 C-68.09779 165.71861 -66.62405 164.83417 -65.15283 163.94556 C-64.50041 163.55618 -63.84798 163.1668 -63.17578 162.76562 C-62.60771 162.42306 -62.03963 162.08049 -61.45435 161.72754 C-60 161 -60 161 -58 161 C-58.0083 160.34585 -58.01659 159.69171 -58.02514 159.01774 C-58.22399 143.09323 -58.37287 127.16897 -58.46631 111.24349 C-58.5127 103.54192 -58.57593 95.84118 -58.67896 88.14014 C-58.76873 81.427 -58.82674 74.71447 -58.8468 68.00075 C-58.85852 64.44623 -58.88602 60.89343 -58.95157 57.33946 C-59.01282 53.99168 -59.03148 50.64632 -59.01797 47.29803 C-59.02044 46.07165 -59.03826 44.84518 -59.07285 43.61929 C-59.17233 39.91029 -59.11766 36.55258 -58 33 C-55.33417 30.21625 -52.45808 28.63644 -49 27 C-47.67136 26.24733 -46.34631 25.48825 -45.02734 24.71875 C-43.66578 23.976 -42.30243 23.23654 -40.9375 22.5 C-32.24155 17.74423 -23.68577 12.76681 -15.14819 7.73438 C-1.98513 0 -1.98513 0 0 0 Z " fill="#020202" transform="translate(385,246)"/>
<path d="M0 0 C1.90477 0.94049 3.80819 1.88356 5.71094 2.82812 C6.24453 3.09125 6.77812 3.35438 7.32788 3.62549 C11.37627 5.63884 15.21747 7.88522 19.06641 10.25 C22.84991 12.507 26.70365 14.62516 30.5625 16.75 C36.94535 20.27192 43.27795 23.86784 49.5625 27.5625 C50.29477 27.99208 51.02704 28.42166 51.78149 28.86426 C56.87086 31.87086 56.87086 31.87086 58 33 C58.09312 34.50419 58.11746 36.01271 58.11353 37.51978 C58.11345 38.4807 58.11337 39.44162 58.1133 40.43166 C58.10814 41.47644 58.10297 42.52122 58.09766 43.59766 C58.09624 44.66165 58.09483 45.72565 58.09337 46.82188 C58.08775 50.23545 58.0752 53.64895 58.0625 57.0625 C58.05749 59.37044 58.05292 61.67838 58.04883 63.98633 C58.03778 69.65757 58.02102 75.32878 58 81 C54 79 50 77 46 75 C44.82329 74.62198 44.82329 74.62198 43.6228 74.23633 C43.08728 73.82834 42.55175 73.42035 42 73 C41.69746 70.54497 41.65111 68.53439 41.78516 66.09375 C41.82112 64.69662 41.85692 63.29948 41.89258 61.90234 C41.97356 59.69641 42.06288 57.49104 42.15747 55.28564 C42.2417 53.15926 42.29588 51.03363 42.34766 48.90625 C42.38601 48.24476 42.42437 47.58327 42.46388 46.90173 C42.566 44.8334 42.566 44.8334 42 42 C39.72082 40.91654 39.72082 40.91654 37 40 C35.2899 39.08949 33.59628 38.14755 31.91797 37.17969 C30.98662 36.64473 30.05527 36.10977 29.0957 35.55859 C28.136 35.00301 27.17629 34.44742 26.1875 33.875 C25.20846 33.31168 24.22941 32.74836 23.2207 32.16797 C20.8121 30.78156 18.40529 29.39215 16 28 C15.63877 41.87401 15.39978 55.74453 15.3031 69.62261 C15.25539 76.06821 15.16893 82.50878 14.98853 88.95215 C14.83122 94.574 14.74938 100.19125 14.75511 105.81538 C14.75558 108.79136 14.72039 111.75654 14.59447 114.73008 C14.07448 125.64626 14.07448 125.64626 17 136 C22.18819 141.34989 28.91607 144.36792 35.7677 147.06489 C38 148 38 148 41 150 C41.33 138.45 41.66 126.9 42 115 C45.77976 116.5119 48.82158 117.97363 52.25 120.0625 C53.12141 120.58973 53.99281 121.11695 54.89062 121.66016 C57 123 57 123 58 124 C58.02669 126.71562 57.99277 129.40758 57.92188 132.12109 C57.89462 133.7949 57.86862 135.46873 57.84375 137.14258 C57.80045 139.79426 57.7498 142.44488 57.67773 145.09595 C57.61132 147.64617 57.5764 150.19522 57.54688 152.74609 C57.51793 153.54196 57.48899 154.33783 57.45917 155.15782 C57.44908 157.22074 57.47004 159.00594 58 161 C60.25214 162.5246 60.25214 162.5246 63 163 C64.28266 163.67401 65.55036 164.37731 66.80078 165.10938 C67.8784 165.73671 67.8784 165.73671 68.97778 166.37671 C69.74824 166.8299 70.5187 167.28308 71.3125 167.75 C72.12485 168.22446 72.9372 168.69891 73.77417 169.18774 C75.55201 170.22628 77.32907 171.26613 79.10547 172.30713 C82.19113 174.11178 85.2825 175.90634 88.375 177.69922 C89.99139 178.63756 91.60761 179.5762 93.22372 180.51501 C94.27342 181.12449 95.3234 181.73347 96.37369 182.34192 C98.77952 183.7364 101.17756 185.14078 103.5625 186.5708 C105.89757 187.98406 105.89757 187.98406 108.01562 188.97217 C109.67578 189.83203 109.67578 189.83203 112 192 C112.70704 195.11994 112.56863 198.07245 112.375 201.25 C112.33439 202.5107 112.33439 202.5107 112.29297 203.79688 C112.22239 205.86721 112.12391 207.93228 112 210 C108.34291 208.62699 105.04409 206.97694 101.66797 205.01562 C101.16325 204.72361 100.65853 204.4316 100.13852 204.13074 C98.48629 203.1737 96.83689 202.21191 95.1875 201.25 C94.02547 200.57558 92.86327 199.90143 91.70093 199.22754 C88.13122 197.15638 84.56536 195.07865 81 193 C79.91376 192.36715 78.82749 191.73434 77.74121 191.10156 C72.69399 188.16092 67.64906 185.21639 62.60547 182.26953 C57.53742 179.31022 52.45774 176.37148 47.375 173.4375 C36.87136 167.36843 26.4289 161.19645 16 155 C15.2032 154.52659 14.4064 154.05318 13.58545 153.56543 C11.45142 152.29591 9.31899 151.02377 7.1875 149.75 C6.56521 149.37923 5.94291 149.00847 5.30176 148.62646 C1.11774 146.11774 1.11774 146.11774 0 145 C-0.09653 143.12705 -0.12187 141.25042 -0.12025 139.37498 C-0.12111 138.78202 -0.12196 138.18905 -0.12284 137.57811 C-0.1245 135.57735 -0.11897 133.57668 -0.11353 131.57593 C-0.11324 130.14723 -0.1134 128.71853 -0.11397 127.28983 C-0.11426 123.3995 -0.10836 119.50921 -0.10139 115.61889 C-0.09516 111.55762 -0.09456 107.49635 -0.09337 103.43507 C-0.09026 95.73921 -0.08204 88.04336 -0.07202 80.3475 C-0.06086 71.58828 -0.05535 62.82905 -0.05032 54.06982 C-0.03986 36.04654 -0.02226 18.02327 0 0 Z " fill="#020202" transform="translate(144,246)"/>
<path d="M0 0 C2.29417 1.12013 4.58529 2.24583 6.875 3.375 C7.52598 3.69211 8.17695 4.00922 8.84766 4.33594 C9.47285 4.64531 10.09805 4.95469 10.74219 5.27344 C11.31824 5.55623 11.89429 5.83901 12.48779 6.13037 C14 7 14 7 16 9 C16.2173 11.55765 16.31138 14.01037 16.31885 16.5708 C16.32889 17.35138 16.33894 18.13196 16.34929 18.93619 C16.38024 21.52255 16.39719 24.10882 16.41406 26.69531 C16.43276 28.48608 16.45234 30.27684 16.47275 32.0676 C16.52418 36.78577 16.56374 41.50398 16.60089 46.22229 C16.64086 51.03498 16.69199 55.84756 16.74219 60.66016 C16.83907 70.10669 16.92344 79.55328 17 89 C18.27391 87.41605 19.54663 85.83115 20.81885 84.24585 C21.52772 83.36336 22.23659 82.48087 22.96695 81.57164 C25.54642 78.30882 27.98397 74.96453 30.375 71.5625 C30.7991 70.96502 31.2232 70.36754 31.66016 69.75195 C32.77941 68.17194 33.89608 66.59076 35 65 C35.34442 64.5575 35.68884 64.115 36.0437 63.65909 C37.20965 61.63628 37.27482 60.3138 37.31885 57.98755 C37.33872 57.18695 37.35859 56.38634 37.37906 55.56148 C37.39639 54.27228 37.39639 54.27228 37.41406 52.95703 C37.43343 52.07343 37.45279 51.18984 37.47275 50.27946 C37.53253 47.45724 37.57892 44.63498 37.625 41.8125 C37.66318 39.89907 37.70223 37.98566 37.74219 36.07227 C37.83823 31.38166 37.92328 26.69096 38 22 C38.78246 22.31453 39.56492 22.62906 40.37109 22.95312 C43.61153 24.27269 43.61153 24.27269 47 25 C49.06669 24.09166 49.06669 24.09166 51 23 C51.99 23 52.98 23 54 23 C54.22375 25.75826 54.24491 28.31829 54.16016 31.07422 C54.14829 32.7923 54.1386 34.51041 54.13086 36.22852 C54.10434 38.93935 54.06371 41.6469 53.98315 44.35669 C53.71283 54.39213 53.58525 62.51311 60.63783 70.21547 C61.07881 70.67979 61.51979 71.1441 61.97414 71.62248 C65.23451 75.1662 68.0426 78.98043 70.85181 82.8855 C71.35106 83.5731 71.85031 84.2607 72.36469 84.96914 C73.57983 86.6437 74.79151 88.32064 76 90 C75.97216 88.48569 75.97216 88.48569 75.94376 86.9408 C75.77767 77.40712 75.6858 67.87521 75.66578 58.34008 C75.65312 53.43796 75.61472 48.53891 75.5166 43.6377 C75.42278 38.90336 75.39775 34.17311 75.41954 29.43794 C75.41591 27.63571 75.38787 25.83335 75.33458 24.03191 C74.95062 10.27166 74.95062 10.27166 78.41784 6.42838 C82.39748 3.30077 87.83063 0 93 0 C93.30419 14.20358 93.53316 28.4061 93.67356 42.61216 C93.74049 49.20902 93.83167 55.80385 93.98071 62.39941 C94.11062 68.15085 94.19423 73.90081 94.22315 79.65367 C94.24005 82.6985 94.27949 85.73913 94.37449 88.78261 C94.93047 107.28917 94.93047 107.28917 91.71032 111.811 C88.2524 115.00643 84.44569 116.59927 80 118 C78.515 118.495 78.515 118.495 77 119 C75.23047 117.35938 75.23047 117.35938 73.1875 114.75 C72.80932 114.27055 72.43114 113.7911 72.0415 113.29712 C63.75968 102.68328 55.73824 91.79562 48.23438 80.61719 C47.07716 78.8554 47.07716 78.8554 45 78 C44.77828 78.67805 44.55656 79.35609 44.32812 80.05469 C42.61837 83.84632 40.28721 86.84836 37.75 90.125 C36.67343 91.53435 35.59796 92.94455 34.52344 94.35547 C33.95464 95.10103 33.38584 95.84659 32.7998 96.61475 C30.89583 99.13805 29.02614 101.68392 27.16406 104.23828 C26.53274 105.10373 25.90143 105.96917 25.25098 106.86084 C24.01317 108.56097 22.77808 110.26308 21.5459 111.96729 C20.69947 113.12623 20.69947 113.12623 19.83594 114.30859 C19.33626 114.99752 18.83659 115.68644 18.32178 116.39624 C17 118 17 118 15 119 C13.50366 118.39502 13.50366 118.39502 11.77734 117.38281 C11.15666 117.02316 10.53598 116.66352 9.89648 116.29297 C9.25002 115.90754 8.60355 115.52211 7.9375 115.125 C7.28717 114.7473 6.63684 114.36961 5.9668 113.98047 C1.18268 111.18268 1.18268 111.18268 0 110 C-0.09554 108.57054 -0.12188 107.13637 -0.12025 105.70372 C-0.12163 104.77679 -0.123 103.84986 -0.12442 102.89484 C-0.12082 101.86985 -0.11723 100.84486 -0.11353 99.78882 C-0.11367 98.71578 -0.11382 97.64274 -0.11397 96.53719 C-0.11339 93.5869 -0.10836 90.63668 -0.10139 87.68641 C-0.09516 84.60609 -0.09456 81.52577 -0.09337 78.44545 C-0.09026 72.60892 -0.08204 66.77241 -0.07202 60.9359 C-0.06086 54.29271 -0.05535 47.64953 -0.05032 41.00634 C-0.03986 27.33755 -0.02226 13.66878 0 0 Z " fill="#020202" transform="translate(218,288)"/>
<path d="M0 0 C5.28 0 10.56 0 16 0 C21.29984 5.50905 21.29984 5.50905 22.80469 8.26172 C24.78366 11.7033 27.00807 14.89481 29.3313 18.11182 C34.71243 25.56523 39.89353 33.1645 45.0874 40.74902 C47.99987 45.0015 50.91915 49.24927 53.83984 53.49609 C54.33996 54.22341 54.84008 54.95072 55.35535 55.70007 C56.57017 57.46676 57.78505 59.2334 59 61 C58.97478 60.23579 58.94956 59.47157 58.92357 58.6842 C58.70149 51.50251 58.56001 44.3248 58.51034 37.13976 C58.48192 33.44445 58.42175 29.75521 58.29028 26.06201 C58.16465 22.50051 58.12078 18.9467 58.1349 15.3831 C58.12568 14.02052 58.08634 12.65782 58.01739 11.29695 C57.98575 10.63809 57.9541 9.97924 57.92149 9.30042 C57.86682 8.43261 57.86682 8.43261 57.81105 7.54728 C57.97827 5.59961 57.97827 5.59961 60 0 C65.61 0 71.22 0 77 0 C77 30.36 77 60.72 77 92 C61 92 61 92 56.35938 87.56641 C55.08573 85.57771 53.90691 83.61323 52.75 81.5625 C52.09071 80.49721 51.42541 79.43562 50.75439 78.37769 C49.41712 76.25778 48.10775 74.12454 46.81934 71.97461 C44.81395 68.69581 42.66835 65.56378 40.41772 62.4503 C35.41298 55.51507 30.5347 48.48851 25.63281 41.48047 C24.99158 40.56407 24.35036 39.64766 23.6897 38.70349 C22.12629 36.46912 20.56306 34.23462 19 32 C18.98454 33.1242 18.98454 33.1242 18.96877 34.2711 C18.87095 41.3199 18.76846 48.36862 18.66066 55.41727 C18.6054 59.04142 18.55197 62.66557 18.50269 66.28979 C18.45509 69.78467 18.40275 73.27945 18.34706 76.7742 C18.32661 78.11028 18.3079 79.44639 18.29093 80.78251 C18.26693 82.648 18.23687 84.51329 18.20532 86.37866 C18.18978 87.44234 18.17423 88.50601 18.15822 89.60191 C18 92 18 92 17 93 C11.39 93 5.78 93 0 93 C0 62.31 0 31.62 0 0 Z " fill="#050505" transform="translate(633,231)"/>
<path d="M0 0 C6.94171 -1.07943 14.28324 -2.13772 20.80444 0.98022 C25.85121 7.3049 27.3204 15.82779 29.01294 23.57983 C30.67966 30.74025 33.11711 37.66911 36.12085 44.37476 C37.6411 47.94517 38.72962 51.68158 39.90991 55.37476 C41.10941 59.06494 42.47188 62.60693 44.03247 66.15845 C45.45847 69.52366 46.65401 72.97126 47.86694 76.41772 C48.12282 77.12993 48.3787 77.84214 48.64233 78.57593 C50.31878 83.32083 51.67343 88.07697 52.80444 92.98022 C40.4756 94.21159 40.4756 94.21159 34.80444 92.98022 C31.15114 89.59102 31.00568 84.63502 30.42603 79.86841 C29.71604 76.26539 28.9916 73.95258 26.80444 70.98022 C21.54526 68.38321 15.27463 68.76848 9.55444 68.85522 C8.74267 68.84975 7.93089 68.84427 7.09451 68.83862 C1.91979 68.85723 -3.36578 68.93674 -8.19556 70.98022 C-12.09165 75.01619 -12.83629 79.73596 -13.84497 85.10327 C-14.92512 90.42548 -14.92512 90.42548 -16.19556 92.98022 C-21.62119 95.81874 -28.46736 94.29125 -34.19556 92.98022 C-32.17743 81.88054 -27.85953 71.38787 -23.89893 60.86279 C-22.86634 58.09907 -21.87298 55.32199 -20.88306 52.54272 C-20.67503 51.95926 -20.46701 51.3758 -20.25269 50.77466 C-19.04326 47.37811 -17.84182 43.97881 -16.64478 40.57788 C-16.38285 39.83401 -16.12093 39.09014 -15.85107 38.32373 C-15.34618 36.88864 -14.84206 35.45327 -14.33887 34.01758 C-12.915 29.96811 -11.43868 25.9425 -9.9231 21.92651 C-8.56868 18.30324 -7.28976 14.65305 -6.0022 11.00562 C-5.40692 9.32801 -4.80148 7.65402 -4.19556 5.98022 C-3.94242 5.11671 -3.68928 4.2532 -3.42847 3.36353 C-2.19556 0.98022 -2.19556 0.98022 0 0 Z " fill="#030303" transform="translate(838.195556640625,230.019775390625)"/>
<path d="M0 0 C3.02155 -0.40923 5.68169 -0.32485 8.71655 -0.04932 C9.71815 -0.03643 10.71976 -0.02354 11.75171 -0.01025 C14.53673 0.11685 16.92933 0.3754 19.59155 1.20068 C21.43165 3.55312 21.88476 4.47205 22.59155 7.20068 C23.06557 8.50465 23.54512 9.80661 24.02905 11.10693 C24.55309 12.63709 25.07369 14.16843 25.59155 15.70068 C28.66431 24.64015 31.88527 33.51913 35.15405 42.38818 C38.35584 51.08085 41.53892 59.77645 44.58252 68.52612 C45.77014 71.92589 47.00008 75.30432 48.28296 78.66943 C48.56422 79.40758 48.84547 80.14573 49.13525 80.90625 C49.67368 82.31138 50.21654 83.71483 50.76465 85.11621 C51.86183 87.97382 52.59155 90.1091 52.59155 93.20068 C40.22229 95.21762 40.22229 95.21762 34.59155 93.20068 C31.06881 89.51682 30.047 84.2222 29.08374 79.35059 C28.92132 78.64112 28.7589 77.93165 28.59155 77.20068 C28.30369 75.63133 28.30369 75.63133 28.01001 74.03027 C27.54192 73.09651 27.07383 72.16274 26.59155 71.20068 C23.81621 70.33761 21.86241 69.99285 19.02124 69.84131 C18.26831 69.78965 17.51538 69.73798 16.73964 69.68475 C14.31386 69.55275 11.89552 69.49049 9.46655 69.45068 C8.64978 69.43022 7.83301 69.40976 6.99149 69.38867 C1.81555 69.33002 -3.52938 69.27623 -8.40845 71.20068 C-12.34103 75.20939 -13.05023 79.9591 -14.05737 85.3252 C-15.13905 90.64804 -15.13905 90.64804 -16.40845 93.20068 C-21.83408 96.0392 -28.68025 94.51171 -34.40845 93.20068 C-33.80657 88.72381 -32.62341 84.75467 -30.97095 80.57568 C-28.0848 73.07459 -25.3519 65.52263 -22.65845 57.95068 C-22.23058 56.74918 -21.80268 55.54768 -21.37476 54.34619 C-20.49765 51.88282 -19.62113 49.41924 -18.74487 46.95557 C-16.74621 41.33781 -14.73919 35.72303 -12.73279 30.10803 C-11.73243 27.3083 -10.73257 24.50839 -9.73267 21.7085 C-9.34369 20.65791 -8.95472 19.60732 -8.55396 18.5249 C-7.69661 16.1458 -7.01883 13.76449 -6.39575 11.31396 C-3.85841 1.92353 -3.85841 1.92353 0 0 Z " fill="#030303" transform="translate(568.408447265625,229.79931640625)"/>
<path d="M0 0 C10.33297 -0.51665 20.39704 2.41381 28.25 9.15625 C33.2293 13.71969 35.79281 18.56054 37.25 25.15625 C37.25 26.14625 37.25 27.13625 37.25 28.15625 C25.32606 29.16741 25.32606 29.16741 20.25 28.15625 C18.11638 26.21701 17.65213 24.86878 16.85938 22.13281 C16.36717 19.86367 16.36717 19.86367 13.75 18.21875 C7.77556 15.67961 0.60805 14.88734 -5.69531 16.72266 C-8.46978 18.05412 -11.02132 19.60872 -12.75 22.15625 C-13.74854 26.00775 -14.10247 28.07366 -12.875 31.84375 C-6.84448 38.40637 3.85907 39.79756 12.16602 41.86719 C19.75567 43.83194 26.99936 45.87795 32.125 52.15625 C32.6793 52.81625 33.23359 53.47625 33.80469 54.15625 C38.58678 60.77363 38.04449 68.2592 37.25 76.15625 C35.65686 82.82121 30.85805 87.47363 25.25 91.15625 C11.8913 97.49011 -1.7533 97.52364 -15.75 93.15625 C-22.8617 90.2585 -28.2032 86.04726 -31.78125 79.17578 C-33.66898 74.65746 -33.85522 71.0198 -33.75 66.15625 C-21.73894 65.14838 -21.73894 65.14838 -16.75 66.15625 C-14.78915 68.14073 -14.58313 69.40033 -14.13672 72.11719 C-13.89206 74.47213 -13.89206 74.47213 -11.3125 76.53125 C-4.52573 80.83506 1.73532 81.21471 9.67188 79.69141 C13.83775 78.36804 16.48216 76.63039 18.625 72.76562 C19.69611 70.00752 19.74452 68.06155 19.25 65.15625 C16.46859 60.86796 13.70181 59.0923 8.9375 57.59375 C8.02641 57.28534 8.02641 57.28534 7.09692 56.9707 C2.59589 55.4836 -1.96665 54.30769 -6.5625 53.15625 C-12.54112 51.6507 -17.59098 49.61807 -22.75 46.15625 C-24.14219 45.29 -24.14219 45.29 -25.5625 44.40625 C-30.17135 39.66572 -31.98354 34.20743 -32.25 27.65625 C-31.88448 19.71441 -29.35702 14.34243 -23.625 8.84375 C-16.50182 2.96244 -9.0185 0.80522 0 0 Z " fill="#050505" transform="translate(932.75,228.84375)"/>
<path d="M0 0 C1.44681 0.01752 1.44681 0.01752 2.92285 0.0354 C14.63555 0.3976 22.62032 4.12528 31.0625 12.29688 C36.271 18.01833 39.33039 24.70638 39.125 32.5625 C27.33931 33.82518 27.33931 33.82518 22.125 32.5625 C19.74626 30.16127 19.01408 28.23153 17.95703 25.04688 C16.76383 21.48409 15.26643 20.49569 12.125 18.5625 C11.56426 18.2093 11.00352 17.85609 10.42578 17.49219 C4.67335 15.16778 -3.43553 15.73029 -9.42578 17.17969 C-15.88838 20.0157 -20.18136 26.19145 -22.875 32.5625 C-24.00139 37.51288 -24.05828 42.38756 -24.0625 47.4375 C-24.08087 48.58412 -24.08087 48.58412 -24.09961 49.75391 C-24.12362 59.18371 -21.95203 66.22964 -15.875 73.5625 C-10.13647 78.82402 -3.32233 78.91692 4.11328 78.84375 C9.73848 78.31844 13.48827 76.19923 17.4375 72.25 C19.14181 69.80913 19.14181 69.80913 19.64062 67.78418 C20.2424 65.73494 20.81641 64.25899 22.125 62.5625 C25.04007 61.66141 27.79628 61.89984 30.8125 62.125 C31.60979 62.15658 32.40707 62.18816 33.22852 62.2207 C35.19773 62.30324 37.15951 62.41819 39.125 62.5625 C37.8144 73.16295 33.7348 81.19471 25.31641 88.03125 C15.79217 94.52595 5.04351 96.88001 -6.28125 95.20703 C-8.5204 94.75843 -10.6834 94.20256 -12.875 93.5625 C-13.54145 93.37945 -14.20789 93.19641 -14.89453 93.00781 C-24.29323 90.00468 -31.83889 82.90591 -36.875 74.5625 C-43.28805 61.25439 -45.44304 45.8409 -40.875 31.5625 C-40.61848 30.68207 -40.36195 29.80164 -40.09766 28.89453 C-36.73536 18.43244 -30.38075 10.21642 -20.875 4.5625 C-13.89041 1.07579 -7.77286 -0.12618 0 0 Z " fill="#050505" transform="translate(486.875,229.4375)"/>
<path d="M0 0 C6.18976 -1.39699 13.03945 -2.73399 19 0 C23.47379 5.57522 24.74553 13.25927 26.31934 20.08154 C27.18933 23.81176 28.31831 27.42219 29.5 31.0625 C29.77989 31.97914 29.77989 31.97914 30.06543 32.91431 C32.16214 39.76899 34.66223 46.47957 37.14648 53.20142 C39.20342 58.76889 41.16268 64.35607 43 70 C47.18209 61.5182 49.93633 52.52553 52.875 43.5625 C53.38369 42.02134 53.8928 40.48033 54.40234 38.93945 C56.20784 33.47572 58.01316 28.01193 59.80481 22.54364 C60.59889 20.12063 61.39684 17.69891 62.19531 15.27734 C62.43265 14.54931 62.66999 13.82128 62.91452 13.07118 C63.58668 11.0386 64.28655 9.01842 65 7 C65.33923 5.98711 65.33923 5.98711 65.68532 4.95375 C66.39722 3.02539 66.39722 3.02539 68 0 C70.08472 -0.79468 70.08472 -0.79468 72.44922 -0.68359 C73.72056 -0.64976 73.72056 -0.64976 75.01758 -0.61523 C76.33919 -0.52726 76.33919 -0.52726 77.6875 -0.4375 C79.02651 -0.39013 79.02651 -0.39013 80.39258 -0.3418 C82.59836 -0.25923 84.79753 -0.14421 87 0 C79.7237 20.71435 72.37525 41.40287 64.99699 62.08109 C64.31106 64.00404 63.62562 65.92717 62.94031 67.85034 C61.85024 70.90918 60.75886 73.96755 59.66647 77.02556 C59.25861 78.16791 58.85117 79.31042 58.44417 80.45308 C57.88365 82.02644 57.32139 83.59917 56.75903 85.17188 C56.44215 86.05972 56.12527 86.94756 55.79878 87.8623 C55 90 55 90 54 92 C50.57379 92.5811 47.09438 92.51 43.625 92.5625 C42.65305 92.61213 41.68109 92.66176 40.67969 92.71289 C39.74641 92.72643 38.81313 92.73996 37.85156 92.75391 C36.99385 92.77783 36.13614 92.80176 35.25244 92.82642 C33 92 33 92 31.40527 89.01587 C30.92021 87.68318 30.45285 86.34397 30 85 C29.46738 83.58382 28.93297 82.16832 28.39697 80.75342 C27.8172 79.16712 27.23968 77.58 26.66406 75.99219 C26.34804 75.12482 26.03201 74.25745 25.70641 73.3638 C24.67686 70.53507 23.65066 67.70514 22.625 64.875 C22.27428 63.90901 21.92357 62.94302 21.56223 61.94775 C16.49556 47.98869 11.49013 34.00875 6.5625 20 C6.28392 19.20946 6.00534 18.41892 5.71832 17.60443 C4.93626 15.3829 4.15697 13.16043 3.37891 10.9375 C3.1505 10.28847 2.92208 9.63943 2.68675 8.97073 C1.65319 6.00529 0.68766 3.06604 0 0 Z " fill="#020202" transform="translate(722,231)"/>
<path d="M0 0 C23 0 23 0 29 4 C31.54031 7.81046 31.60383 10.52812 31 15 C29.5 17.8125 29.5 17.8125 28 20 C27.68159 22.90075 27.68159 22.90075 29.09375 24.32422 C29.55781 24.7741 30.02188 25.22398 30.5 25.6875 C32.66028 28.15464 33.40066 29.7717 33.5 33.0625 C33.13826 38.06016 31.35371 40.77264 27.65625 44.125 C22.85283 47.24569 17.12554 46.41715 11.625 46.25 C7.78875 46.1675 3.9525 46.085 0 46 C0 30.82 0 15.64 0 0 Z " fill="#0C0C0C" transform="translate(566,352)"/>
<path d="M0 0 C3.71161 38.73471 3.71161 38.73471 -2.09473 46.29639 C-8.43694 52.71623 -17.5276 54.88365 -26 57 C-29.80839 20.72603 -29.80839 20.72603 -24.95227 12.1496 C-19.6346 5.64488 -8.35078 0 0 0 Z " fill="#F5F5F5" transform="translate(369,274)"/>
<path d="M0 0 C23 0 23 0 29 4 C31.77842 6.9191 32.41245 8.8683 32.375 12.875 C32.22061 17.42614 31.6824 20.30014 29 24 C26.38672 25.15625 26.38672 25.15625 24 26 C24.30293 26.5348 24.60586 27.0696 24.91797 27.62061 C26.28305 30.03628 27.64159 32.45557 29 34.875 C29.47695 35.71676 29.95391 36.55852 30.44531 37.42578 C30.89648 38.23145 31.34766 39.03711 31.8125 39.86719 C32.23145 40.61082 32.65039 41.35444 33.08203 42.12061 C34 44 34 44 34 46 C29.59001 46.68012 29.59001 46.68012 27 46 C24.76474 43.69179 23.47115 40.99129 22.0625 38.125 C21.66482 37.37863 21.26715 36.63227 20.85742 35.86328 C18 30.40418 18 30.40418 18 28 C14.04 28 10.08 28 6 28 C6 33.94 6 39.88 6 46 C4.02 46 2.04 46 0 46 C0 30.82 0 15.64 0 0 Z " fill="#090909" transform="translate(936,352)"/>
<path d="M0 0 C24.6 0 24.6 0 29.46094 4.28906 C32.44028 8.64348 32.92573 12.82517 32 18 C30.31396 22.05166 27.96712 24.20813 24 26 C24.48211 26.94102 24.96422 27.88203 25.46094 28.85156 C26.09917 30.10927 26.73718 31.36708 27.375 32.625 C27.69211 33.24246 28.00922 33.85992 28.33594 34.49609 C30.24183 38.26816 31.76818 41.95615 33 46 C30.375 46.625 30.375 46.625 27 46 C24.06416 42.35179 21.86453 38.15173 20.12109 33.8125 C19.2449 31.78075 18.64894 30.48907 17 29 C13.22072 28.08946 9.93081 28.0468 6 28 C6 33.94 6 39.88 6 46 C4.02 46 2.04 46 0 46 C0 30.82 0 15.64 0 0 Z " fill="#0A0A0A" transform="translate(737,352)"/>
<path d="M0 0 C2.87207 -0.35596 2.87207 -0.35596 6 0 C7.29199 2.3833 7.29199 2.3833 8.04688 5.69531 C8.26008 6.57291 8.26008 6.57291 8.4776 7.46823 C8.92852 9.34867 9.33984 11.23529 9.75 13.125 C10.18306 14.99047 10.62393 16.85397 11.06525 18.7175 C11.46435 20.42227 11.84545 22.13123 12.22559 23.84033 C12.99485 26.979 13.93632 29.9518 15 33 C17.41186 30.58814 17.64707 29.09339 18.4375 25.80078 C18.69273 24.756 18.94797 23.71121 19.21094 22.63477 C19.47133 21.53842 19.73172 20.44207 20 19.3125 C20.76771 16.13712 21.53732 12.96317 22.33594 9.79541 C23.01936 7.09132 23.01936 7.09132 23.35156 4.66943 C23.6875 2.73047 23.6875 2.73047 25 0 C27.87763 -1.07262 30.12828 -1.09803 33 0 C34.30799 2.78854 34.77394 4.52985 35.1875 7.5 C35.47214 9.05184 35.76267 10.60261 36.05859 12.15234 C36.2041 12.9514 36.3496 13.75046 36.49951 14.57373 C37.30748 18.49059 38.51337 22.26307 39.75 26.0625 C40.08487 27.10664 40.08487 27.10664 40.42651 28.17188 C40.94552 29.78303 41.47187 31.39181 42 33 C43.51931 30.15212 44.56091 27.40083 45.4375 24.29688 C45.69273 23.3984 45.94797 22.49992 46.21094 21.57422 C46.47133 20.64223 46.73172 19.71023 47 18.75 C47.26039 17.83348 47.52078 16.91695 47.78906 15.97266 C49.1527 11.14482 50.42034 6.35045 51.36279 1.4209 C51.57307 0.952 51.78335 0.48311 52 0 C55.125 -0.5 55.125 -0.5 58 0 C56.51125 8.38032 54.29724 16.50307 52 24.6875 C51.6403 25.97973 51.28092 27.27204 50.92188 28.56445 C49.95357 32.04458 48.98007 35.52316 48 39 C47.89591 39.65079 47.79182 40.30157 47.68457 40.97208 C47.32031 42.91724 47.32031 42.91724 46 46 C44.05105 46.83297 42.75881 46.88926 40.65549 46.66687 C39 46 39 46 37.37915 43.12598 C37.00159 41.80672 36.66009 40.47681 36.34766 39.14062 C36.06287 38.08944 36.06287 38.08944 35.77232 37.01703 C35.17162 34.76817 34.61754 32.51051 34.0625 30.25 C33.66368 28.74143 33.26202 27.2336 32.85742 25.72656 C29.73016 13.85492 29.73016 13.85492 30 10 C29.34 10 28.68 10 28 10 C27.77242 11.76712 27.55651 13.53605 27.37598 15.30859 C26.65212 20.49031 25.26116 25.52445 23.89111 30.56641 C23.54416 31.86623 23.21102 33.16982 22.89111 34.47656 C22.42439 36.37945 21.91677 38.26686 21.39844 40.15625 C21.26271 40.74362 21.12699 41.33099 20.98715 41.93616 C20.51318 43.55664 20.51318 43.55664 19 46 C16.44935 47.01931 14.53999 47.06392 12 46 C10.24911 43.56238 9.66575 40.85309 8.94531 37.96875 C8.71343 37.14427 8.48155 36.3198 8.24265 35.47034 C7.50622 32.82087 6.81611 30.1616 6.125 27.5 C5.63825 25.73619 5.1487 23.97316 4.65625 22.21094 C2.62198 14.80717 0.80009 7.65041 0 0 Z " fill="#0A0A0A" transform="translate(447,352)"/>
<path d="M0 0 C22 0 22 0 30 5 C32.47286 9.94571 33.01791 14.38166 31.5 19.77734 C29.82007 23.52854 27.35482 25.7355 24 28 C21.41055 28.86315 20.04768 29.12007 17.42578 29.09766 C16.82419 29.09516 16.2226 29.09266 15.60278 29.09009 C14.46909 29.07643 14.46909 29.07643 13.3125 29.0625 C9.69281 29.03156 9.69281 29.03156 6 29 C6 34.61 6 40.22 6 46 C4.02 46 2.04 46 0 46 C0 30.82 0 15.64 0 0 Z " fill="#080808" transform="translate(641,352)"/>
<path d="M0 0 C6 0 6 0 7.59229 1.19897 C8.18469 2.04214 8.18469 2.04214 8.78906 2.90234 C9.48081 3.85536 9.48081 3.85536 10.18652 4.82764 C10.66122 5.52389 11.13592 6.22015 11.625 6.9375 C12.13063 7.64665 12.63627 8.35579 13.15723 9.08643 C14.23019 10.59604 15.29442 12.11189 16.35059 13.6333 C18.02353 16.03376 19.72942 18.40743 21.44531 20.77734 C22.54786 22.30919 23.64945 23.84172 24.75 25.375 C25.53818 26.47123 25.53818 26.47123 26.34229 27.5896 C27.06231 28.60872 27.06231 28.60872 27.79688 29.64844 C28.22323 30.24833 28.64959 30.84823 29.08887 31.46631 C30 33 30 33 30 35 C30.66 35 31.32 35 32 35 C32 23.45 32 11.9 32 0 C33.98 0 35.96 0 38 0 C38 15.18 38 30.36 38 46 C32 46 32 46 29.83203 44.15625 C28.83236 42.84141 28.83236 42.84141 27.8125 41.5 C27.44157 41.0195 27.07064 40.539 26.68848 40.04395 C22.44077 34.45154 18.50325 28.61792 14.57812 22.79688 C12.11789 19.14972 9.57205 15.56882 7 12 C7.00169 13.54494 7.00169 13.54494 7.00342 15.12109 C6.99976 18.92342 6.95711 22.72446 6.90234 26.52637 C6.88412 28.17537 6.87663 29.82453 6.87988 31.47363 C6.88272 33.83781 6.84762 36.19876 6.80469 38.5625 C6.81378 39.30621 6.82288 40.04992 6.83224 40.81616 C6.77295 42.87891 6.77295 42.87891 6 46 C4.02 46 2.04 46 0 46 C0 30.82 0 15.64 0 0 Z " fill="#0C0C0C" transform="translate(834,352)"/>
<path d="M0 0 C1.91797 0.04688 1.91797 0.04688 3.75 0.8125 C6.16326 4.49116 7.3743 8.66441 8.75 12.8125 C9.23516 14.20032 9.72355 15.587 10.21484 16.97266 C10.98579 19.14791 11.7539 21.32376 12.50879 23.50464 C14.37564 28.8782 16.47155 34.09108 18.76953 39.29688 C19.74476 41.79906 20.30777 44.16862 20.75 46.8125 C16.10854 47.88361 16.10854 47.88361 13.75 46.8125 C13.09766 44.17578 13.09766 44.17578 12.5625 40.875 C11.90071 37.49929 11.90071 37.49929 9.75 34.8125 C6.41713 33.51799 3.17576 33.21738 -0.375 33 C-1.29563 32.92338 -2.21626 32.84676 -3.16479 32.76782 C-5.84256 32.73016 -7.77618 32.77325 -10.25 33.8125 C-11.41824 36.08049 -11.72678 37.94907 -11.96436 40.48169 C-12.27782 43.03948 -12.80723 44.6774 -14.25 46.8125 C-17.375 47.0625 -17.375 47.0625 -20.25 46.8125 C-18.23657 39.46524 -15.64977 32.39164 -12.94141 25.28125 C-11.71564 22.06099 -10.51991 18.83104 -9.33984 15.59375 C-9.02306 14.72549 -8.70627 13.85722 -8.37988 12.96265 C-7.75877 11.25715 -7.13958 9.55094 -6.52246 7.84399 C-6.24048 7.07177 -5.9585 6.29954 -5.66797 5.50391 C-5.41813 4.81498 -5.1683 4.12606 -4.91089 3.41626 C-3.7384 0.57101 -3.26316 0.81579 0 0 Z " fill="#0A0A0A" transform="translate(701.25,351.1875)"/>
<path d="M0 0 C9.57 0 19.14 0 29 0 C29 1.65 29 3.3 29 5 C21.41 5 13.82 5 6 5 C6 9.95 6 14.9 6 20 C12.93 20 19.86 20 27 20 C27 21.65 27 23.3 27 25 C20.07 25 13.14 25 6 25 C6 30.28 6 35.56 6 41 C13.59 41 21.18 41 29 41 C29 42.65 29 44.3 29 46 C19.43 46 9.86 46 0 46 C0 30.82 0 15.64 0 0 Z " fill="#090909" transform="translate(890,352)"/>
<path d="M0 0 C9.24 0 18.48 0 28 0 C28 1.65 28 3.3 28 5 C20.74 5 13.48 5 6 5 C6 9.95 6 14.9 6 20 C12.93 20 19.86 20 27 20 C27 21.65 27 23.3 27 25 C20.07 25 13.14 25 6 25 C6 30.28 6 35.56 6 41 C13.59 41 21.18 41 29 41 C29 42.65 29 44.3 29 46 C19.43 46 9.86 46 0 46 C0 30.82 0 15.64 0 0 Z " fill="#070707" transform="translate(520,352)"/>
<path d="M0 0 C2.64265 2.64265 3.42901 5.62637 4.60156 9.08984 C4.84289 9.79017 5.08422 10.4905 5.33286 11.21205 C5.84161 12.69305 6.34745 14.17505 6.85059 15.65796 C7.62169 17.92775 8.40387 20.19349 9.1875 22.45898 C9.68036 23.89821 10.17256 25.33766 10.66406 26.77734 C10.8984 27.45555 11.13274 28.13375 11.37418 28.8325 C12.33791 31.69063 13 33.96015 13 37 C4.42 37 -4.16 37 -13 37 C-11.31208 31.89042 -9.62239 26.7815 -7.92798 21.67407 C-7.3517 19.93517 -6.77651 18.19591 -6.20239 16.4563 C-5.37862 13.96081 -4.55103 11.46662 -3.72266 8.97266 C-3.46533 8.19036 -3.20801 7.40807 -2.94289 6.60207 C-2.70271 5.88139 -2.46254 5.16072 -2.21509 4.41821 C-2.00413 3.7809 -1.79317 3.14358 -1.57582 2.48695 C-1 1 -1 1 0 0 Z " fill="#EFEFEF" transform="translate(847,250)"/>
<path d="M0 0 C2.2362 3.146 3.3647 6.56177 4.60156 10.1875 C4.84289 10.88641 5.08422 11.58533 5.33286 12.30542 C5.84091 13.78068 6.34677 15.25669 6.85059 16.7334 C7.62291 18.99388 8.40472 21.25093 9.1875 23.50781 C9.68026 24.94251 10.17247 26.3774 10.66406 27.8125 C11.01557 28.8251 11.01557 28.8251 11.37418 29.85815 C12.34056 32.70954 13 34.96534 13 38 C4.75 38 -3.5 38 -12 38 C-10.87486 30.12402 -10.87486 30.12402 -9.98438 27.46729 C-9.68902 26.57199 -9.68902 26.57199 -9.3877 25.6586 C-9.17726 25.04165 -8.96682 24.42471 -8.75 23.78906 C-8.42274 22.80865 -8.42274 22.80865 -8.08887 21.80844 C-7.63111 20.44116 -7.17046 19.07484 -6.70703 17.70947 C-5.99559 15.61199 -5.294 13.5114 -4.59375 11.41016 C-4.1464 10.07793 -3.69851 8.7459 -3.25 7.41406 C-3.03956 6.78497 -2.82912 6.15588 -2.6123 5.50772 C-1.11612 1.11612 -1.11612 1.11612 0 0 Z " fill="#EFEFEF" transform="translate(577,249)"/>
<path d="M0 0 C1.63819 6.2846 2.82964 12.93666 0 19 C-5.42971 24.06534 -18.3883 33 -26 33 C-26.85761 26.75735 -27.71694 20.14877 -26 14 C-23.01886 10.09595 -18.29296 8.48659 -13.83887 6.76318 C-11.09853 5.62586 -8.74758 4.10035 -6.25 2.5 C-2.23404 0 -2.23404 0 0 0 Z " fill="#040404" transform="translate(385,373)"/>
<path d="M0 0 C11.55 0 23.1 0 35 0 C35 1.65 35 3.3 35 5 C30.05 5 25.1 5 20 5 C20 18.53 20 32.06 20 46 C18.02 46 16.04 46 14 46 C14 32.47 14 18.94 14 5 C9.38 5 4.76 5 0 5 C0 3.35 0 1.7 0 0 Z " fill="#0C0C0C" transform="translate(783,352)"/>
<path d="M0 0 C3.34125 -0.06187 3.34125 -0.06187 6.75 -0.125 C7.79172 -0.15231 7.79172 -0.15231 8.85449 -0.18018 C12.42339 -0.2121 15.04948 -0.08191 18 2 C20.62522 4.91131 20.54939 7.99883 20.41406 11.76953 C19.82849 14.92391 18.87114 16.35649 16.26562 18.20312 C11.0717 20.02995 5.40186 19.2548 0 19 C0 12.73 0 6.46 0 0 Z " fill="#F4F4F4" transform="translate(647,357)"/>
<path d="M0 0 C3.55781 -0.12375 3.55781 -0.12375 7.1875 -0.25 C7.92509 -0.28642 8.66267 -0.32283 9.42261 -0.36035 C13.02841 -0.42073 14.7532 -0.14495 17.95312 1.73438 C20.22575 4.24988 20.65943 5.17004 20.5625 8.5 C20.38128 11.7406 20.14326 12.8024 18.1875 15.5 C14.30877 18.1597 10.82765 18.12561 6.3125 18.0625 C4.22938 18.04188 2.14625 18.02125 0 18 C0 12.06 0 6.12 0 0 Z " fill="#F0F0F0" transform="translate(942,357)"/>
<path d="M0 0 C2.37188 -0.10312 4.74375 -0.20625 7.1875 -0.3125 C7.92509 -0.35802 8.66267 -0.40354 9.42261 -0.45044 C13.06477 -0.52668 15.23859 -0.25398 17.94922 2.30078 C20.30309 5.39893 20.75955 6.57419 20.5 10.28906 C19.56843 13.47679 17.54479 14.93993 15 17 C12.18315 18.40842 9.45202 18.10491 6.375 18.0625 C4.27125 18.04188 2.1675 18.02125 0 18 C0 12.06 0 6.12 0 0 Z " fill="#F1F1F1" transform="translate(743,357)"/>
<path d="M0 0 C3.80531 -0.12375 3.80531 -0.12375 7.6875 -0.25 C8.87219 -0.30462 8.87219 -0.30462 10.08081 -0.36035 C13.84793 -0.41941 15.66955 -0.1987 18.98828 1.79688 C21 4 21 4 21.59375 5.78125 C21.38008 9.6985 20.96147 12.14822 18 15 C15.41055 15.86315 14.04768 16.12007 11.42578 16.09766 C10.82419 16.09516 10.2226 16.09266 9.60278 16.09009 C8.46909 16.07643 8.46909 16.07643 7.3125 16.0625 C3.69281 16.03156 3.69281 16.03156 0 16 C0 10.72 0 5.44 0 0 Z " fill="#F4F4F4" transform="translate(572,377)"/>
<path d="M0 0 C2.41735 -0.08118 4.83195 -0.14057 7.25 -0.1875 C7.93191 -0.21264 8.61383 -0.23777 9.31641 -0.26367 C12.53986 -0.31062 14.54374 -0.23467 17.45312 1.26172 C19.29203 3.32817 19.54148 4.26244 19.5 7 C19.51031 7.68063 19.52062 8.36125 19.53125 9.0625 C19 11 19 11 17.45312 12.73828 C14.00396 14.51229 11.06469 14.32812 7.25 14.1875 C6.55262 14.17396 5.85523 14.16043 5.13672 14.14648 C3.42414 14.11129 1.71197 14.05749 0 14 C0 9.38 0 4.76 0 0 Z " fill="#F7F7F7" transform="translate(572,357)"/>
<path d="M0 0 C1.98864 1.98864 2.54591 3.03132 3.50781 5.58984 C3.77207 6.29174 4.03633 6.99363 4.30859 7.7168 C4.57801 8.44963 4.84742 9.18246 5.125 9.9375 C5.40215 10.66646 5.6793 11.39543 5.96484 12.14648 C8 17.61534 8 17.61534 8 21 C3.05 21 -1.9 21 -7 21 C-5.875 14.25 -5.875 14.25 -4.58984 11.13281 C-4.32236 10.47539 -4.05488 9.81797 -3.7793 9.14062 C-3.5015 8.47547 -3.22371 7.81031 -2.9375 7.125 C-2.65584 6.43664 -2.37418 5.74828 -2.08398 5.03906 C-1.39485 3.3571 -0.69819 1.67822 0 0 Z " fill="#E9E9E9" transform="translate(701,359)"/>
</svg>