<svg width="216" height="255" viewBox="0 0 216 255" fill="none" xmlns="http://www.w3.org/2000/svg">
<path fill-rule="evenodd" clip-rule="evenodd" d="M65.8337 23.6162C43.0087 36.5762 20.8147 49.0912 16.5147 51.4282L8.69469 55.6772L14.5147 58.9622C17.7147 60.7692 27.5337 66.2992 36.3337 71.2522C63.0377 86.2822 64.9637 87.3732 75.8337 93.6332C81.6087 96.9592 89.0337 101.151 92.3337 102.95C95.6337 104.749 100.305 107.36 102.713 108.754C106.417 110.897 107.529 111.122 109.927 110.217C113.963 108.694 207.19 55.9192 206.634 55.4722C206.469 55.3392 201.609 52.6142 195.834 49.4152C183.677 42.6822 178.379 39.7072 155.834 26.9482C129.399 11.9892 107.822 -0.0577914 107.569 0.000208553C107.44 0.0292086 88.6587 10.6572 65.8337 23.6162ZM139.121 33.0752C155.738 42.4972 171.525 51.4392 174.202 52.9482L179.07 55.6912L169.702 61.2022C152.326 71.4242 108.59 95.9462 107.735 95.9462C107.268 95.9462 97.5367 90.5642 86.1097 83.9872C74.6827 77.4102 59.1647 68.5222 51.6247 64.2372C44.0857 59.9522 37.8977 56.1342 37.8747 55.7532C37.8527 55.3712 45.5957 50.6792 55.0837 45.3252C64.5717 39.9722 79.9837 31.1962 89.3337 25.8242C98.6837 20.4512 106.913 16.0312 107.621 16.0012C108.329 15.9712 122.504 23.6542 139.121 33.0752ZM0.0766896 132.525L0.333693 197.104L27.8337 213.134C53.1407 227.885 97.3177 253.615 99.0837 254.632C99.4957 254.87 99.8337 251.532 99.8337 247.215V239.367L91.0837 234.317C86.2717 231.54 78.2837 226.896 73.3337 223.997C68.3837 221.099 61.5217 217.16 58.0837 215.245L51.8337 211.762V195.41V179.057L45.0837 175.013L38.3337 170.969L38.0587 186.958C37.9077 195.751 37.6407 202.946 37.4647 202.946C37.2887 202.946 32.2377 200.023 26.2397 196.451C20.2417 192.879 14.9957 189.954 14.5837 189.951C14.1717 189.948 13.8337 167.896 13.8337 140.946C13.8337 113.996 14.1717 91.9602 14.5837 91.9762C14.9957 91.9932 20.2837 94.8152 26.3337 98.2482L37.3337 104.491L37.6237 117.968L37.9147 131.446L44.3067 135.196C47.8227 137.259 50.9637 138.946 51.2867 138.946C51.6097 138.946 51.7517 129.445 51.6037 117.833L51.3337 96.7212L37.3337 88.7302C15.3527 76.1842 0.639692 67.9462 0.211692 67.9462C-0.00430827 67.9462 -0.0653104 97.0072 0.0766896 132.525ZM189.628 82.2752L164.923 96.4462L164.628 153.774L164.334 211.102L144.885 222.57C134.189 228.877 123.276 235.213 120.635 236.651L115.834 239.264V247.164C115.834 251.509 116.172 254.871 116.584 254.636C121.14 252.034 158.807 230.138 166.834 225.426L177.334 219.261L177.834 189.879L178.334 160.498L184.375 156.972C187.698 155.033 196.136 150.079 203.125 145.964L215.834 138.481V103.214C215.834 83.8162 215.497 67.9812 215.084 68.0252C214.671 68.0682 203.216 74.4802 189.628 82.2752ZM201.605 111.556L201.334 131.165L190.341 137.556C184.296 141.07 178.999 143.946 178.57 143.946C178.142 143.946 177.914 135.069 178.063 124.219L178.334 104.492L189.334 98.2492C195.384 94.8152 200.681 91.9932 201.105 91.9762C201.529 91.9602 201.754 100.77 201.605 111.556ZM66.8407 154.696L66.8467 203.446L73.7117 207.184L80.5767 210.922L88.3717 200.184C92.6597 194.278 98.7517 185.93 101.911 181.633L107.655 173.821L119.026 189.133C125.28 197.555 131.446 205.937 132.729 207.76C135.356 211.492 135.655 211.463 143.584 206.686L148.834 203.523V154.735C148.834 127.901 148.633 105.946 148.388 105.946C148.142 105.946 145.217 107.543 141.888 109.494L135.834 113.042V149.994C135.834 170.318 135.496 186.93 135.084 186.91C134.672 186.889 129.952 180.927 124.595 173.66L114.857 160.446L114.845 142.598L114.834 124.75L111.642 126.77C108.471 128.779 108.427 128.779 104.642 126.848L100.834 124.905V142.536V160.166L91.0887 173.556C85.7287 180.92 81.0087 186.946 80.6007 186.946C80.1917 186.946 79.7397 170.215 79.5957 149.766L79.3337 112.586L73.8337 109.305C70.8087 107.5 67.9957 106.006 67.5837 105.985C67.1717 105.964 66.8367 127.884 66.8407 154.696ZM203.834 188.204L193.334 194.446L193.042 202.196C192.881 206.458 192.934 209.946 193.159 209.946C193.384 209.946 198.466 207.104 204.451 203.63L215.334 197.314L215.626 189.63C215.787 185.404 215.562 181.949 215.126 181.954C214.69 181.958 209.609 184.77 203.834 188.204Z" fill="black"/>
</svg>
