
<!-- Generator: visioncortex VTracer 0.6.4 -->
<svg version="1.1" xmlns="http://www.w3.org/2000/svg" viewBox="0 0 1633 1224" preserveAspectRatio="xMidYMid meet">
<path d="M0 0 C538.89 0 1077.78 0 1633 0 C1633 403.92 1633 807.84 1633 1224 C1094.11 1224 555.22 1224 0 1224 C0 820.08 0 416.16 0 0 Z " fill="#FEFEFE" transform="translate(0,0)"/>
<path d="M0 0 C0.74274 0.41476 1.48548 0.82951 2.25073 1.25684 C3.10401 1.72823 3.95729 2.19962 4.83643 2.6853 C6.20746 3.45548 6.20746 3.45548 7.6062 4.24121 C9.58241 5.33689 11.55899 6.43192 13.53589 7.52637 C14.04613 7.80999 14.55637 8.09361 15.08208 8.38582 C18.72284 10.40778 22.38104 12.39483 26.05151 14.3623 C35.43873 19.39788 44.767 24.45795 53.84497 30.0354 C57.35413 32.17713 60.89556 34.08409 64.6062 35.86621 C70.71616 38.81812 76.39181 42.37455 82.14917 45.95679 C87.31106 49.14645 92.49711 51.92406 97.96558 54.55371 C101.03103 56.11184 103.94575 57.8537 106.8562 59.67871 C119.89686 67.85136 133.32656 75.31857 146.85938 82.6394 C153.49199 86.24229 159.99445 90.01051 166.43042 93.95215 C168.72276 95.35492 171.03537 96.70916 173.37573 98.03027 C173.94211 98.35149 174.5085 98.67271 175.09204 99.00366 C176.62374 99.86807 178.15974 100.72485 179.69604 101.58105 C180.38827 102.04641 181.0805 102.51176 181.7937 102.99121 C181.7937 103.65121 181.7937 104.31121 181.7937 104.99121 C179.80151 106.14746 179.80151 106.14746 176.9187 107.49121 C164.47376 113.4666 152.5651 120.48958 140.69507 127.52148 C136.10222 130.23768 131.47023 132.85436 126.77026 135.38184 C122.12639 137.8927 117.51836 140.46771 112.90601 143.03589 C108.9955 145.21294 105.08251 147.38502 101.16089 149.54199 C94.2144 153.36906 87.31418 157.23458 80.5437 161.36621 C70.83291 167.27593 60.79638 172.59669 50.7937 177.99121 C46.70961 180.19815 42.62652 182.40693 38.5437 184.61621 C37.53775 185.16011 36.5318 185.70402 35.49536 186.2644 C29.38543 189.57241 23.29891 192.91897 17.2312 196.30371 C15.79901 197.09816 14.36672 197.89243 12.93433 198.68652 C10.12166 200.24661 7.32262 201.8286 4.52808 203.4209 C3.17945 204.1741 1.83051 204.92673 0.4812 205.67871 C-0.12345 206.03038 -0.7281 206.38206 -1.35107 206.74438 C-3.88024 208.1367 -5.63824 209.04669 -8.55591 208.76172 C-11.6157 207.87219 -14.00416 206.58323 -16.74927 204.96387 C-17.53143 204.50705 -17.53143 204.50705 -18.32939 204.041 C-20.02125 203.05144 -21.70738 202.05251 -23.3938 201.05371 C-25.74233 199.67705 -28.09364 198.30515 -30.44458 196.93262 C-31.02595 196.59223 -31.60731 196.25185 -32.2063 195.90115 C-37.12488 193.02507 -42.08888 190.23718 -47.0813 187.49121 C-51.39281 185.11764 -55.69373 182.73847 -59.9231 180.2207 C-64.13087 177.73519 -68.33937 175.40179 -72.74536 173.28418 C-78.89322 170.26446 -84.67282 166.75392 -90.4787 163.12985 C-100.82108 156.68746 -111.30956 150.62363 -122.0813 144.92871 C-122.67825 144.61308 -123.27519 144.29745 -123.89023 143.97226 C-126.18221 142.76153 -128.4747 141.55178 -130.7683 140.3441 C-136.35583 137.39708 -141.82615 134.27153 -147.28638 131.09766 C-150.6098 129.18238 -153.95348 127.303 -157.29468 125.41895 C-160.25962 123.74639 -163.22124 122.06808 -166.18286 120.38965 C-170.22761 118.10039 -174.28568 115.83835 -178.35474 113.59277 C-180.28444 112.51729 -182.21413 111.44177 -184.1438 110.36621 C-185.05589 109.8696 -185.96798 109.37299 -186.90771 108.86133 C-187.73715 108.3963 -188.56658 107.93127 -189.42114 107.45215 C-190.15454 107.04787 -190.88793 106.64358 -191.64355 106.22705 C-192.15926 105.81922 -192.67497 105.4114 -193.2063 104.99121 C-193.2063 104.00121 -193.2063 103.01121 -193.2063 101.99121 C-191.0542 100.44482 -191.0542 100.44482 -188.05396 98.81152 C-187.5204 98.51688 -186.98684 98.22224 -186.43712 97.91867 C-184.72004 96.97366 -182.9948 96.0448 -181.2688 95.11621 C-180.13997 94.49878 -179.0117 93.8803 -177.88403 93.26074 C-175.68026 92.05206 -173.47374 90.84868 -171.26416 89.65063 C-164.71152 86.09468 -158.24834 82.45211 -151.8938 78.55371 C-146.31699 75.16471 -140.67654 72.0988 -134.79224 69.28027 C-131.16804 67.47365 -127.78652 65.35834 -124.36646 63.19434 C-118.8547 59.70712 -113.33024 56.45719 -107.4563 53.61621 C-97.6704 48.86895 -88.43334 43.16741 -79.1438 37.52637 C-73.13288 33.88086 -67.16637 30.34361 -60.8313 27.28027 C-45.65875 19.82947 -30.58184 11.6257 -16.35229 2.50293 C-10.44032 -1.24817 -6.65272 -3.04183 0 0 Z " fill="#030303" transform="translate(821.206298828125,242.0087890625)"/>
<path d="M0 0 C2.72656 1.32031 2.72656 1.32031 5.625 3.125 C6.69448 3.7774 7.76481 4.42842 8.83594 5.07812 C9.63596 5.56829 9.63596 5.56829 10.45215 6.06836 C12.68007 7.40933 14.96007 8.64355 17.25 9.875 C21.71354 12.28876 26.14323 14.75654 30.5625 17.25 C36.17634 20.41622 41.80087 23.56204 47.4375 26.6875 C54.41452 30.55975 61.38775 34.43875 68.35379 38.33072 C69.43231 38.93299 70.51114 39.53472 71.5903 40.13583 C77.67008 43.52303 83.68502 46.98982 89.63916 50.59302 C92.61814 52.36839 95.64441 54.04691 98.68262 55.71826 C103.02342 58.11915 107.32062 60.59709 111.625 63.0625 C112.97852 63.8369 112.97852 63.8369 114.35938 64.62695 C116.10704 65.62689 117.85352 66.62891 119.59863 67.6333 C121.12527 68.50216 122.66034 69.35648 124.20605 70.19092 C125.83353 71.07502 127.42241 72.02967 129 73 C129 73.66 129 74.32 129 75 C126.70691 76.2592 124.42877 77.39331 122.0625 78.5 C115.23587 81.79381 108.69165 85.40978 102.20142 89.32227 C97.49784 92.15152 92.72093 94.81066 87.89429 97.42432 C83.48694 99.82373 79.11702 102.289 74.74365 104.74963 C66.03135 109.65047 57.29096 114.49115 48.5 119.25 C41.14807 123.23334 33.89719 127.35135 26.71045 131.625 C22.04637 134.39695 17.35103 137.06753 12.55859 139.61328 C10.71585 140.61202 8.89794 141.65708 7.09766 142.73047 C6.1373 143.29379 5.17695 143.85711 4.1875 144.4375 C2.90939 145.209 2.90939 145.209 1.60547 145.99609 C-1.90916 147.35031 -3.37412 147.11171 -7 146 C-10.49678 144.27063 -13.83681 142.30759 -17.1875 140.3125 C-18.97199 139.26579 -20.75715 138.22022 -22.54297 137.17578 C-23.44112 136.64888 -24.33928 136.12197 -25.26465 135.5791 C-28.88445 133.48941 -32.55336 131.49737 -36.22876 129.50757 C-40.97087 126.92784 -45.66962 124.27094 -50.375 121.625 C-57.26542 117.7547 -64.16381 113.90002 -71.08984 110.09375 C-71.68214 109.76821 -72.27444 109.44266 -72.88469 109.10725 C-75.3001 107.77996 -77.71561 106.45283 -80.13132 105.12607 C-86.97608 101.36387 -93.79695 97.56528 -100.57031 93.67578 C-101.19156 93.31917 -101.8128 92.96257 -102.45287 92.59515 C-105.40194 90.90036 -108.34752 89.19983 -111.28833 87.49072 C-112.36762 86.86686 -113.44729 86.24364 -114.52734 85.62109 C-115.04644 85.32068 -115.56553 85.02027 -116.10036 84.71075 C-119.00572 83.05381 -121.94078 81.52362 -124.96143 80.08643 C-125.61495 79.77367 -126.26846 79.46092 -126.94179 79.13869 C-128.2134 78.53737 -129.49104 77.94862 -130.77489 77.37389 C-132.49438 76.56274 -132.49438 76.56274 -135 75 C-133.78033 71.34098 -132.40321 70.92732 -129.08765 69.24805 C-128.3781 68.89807 -127.66855 68.54809 -126.9375 68.1875 C-119.45622 64.36865 -112.17342 60.26094 -104.9375 56 C-96.39928 50.9824 -87.82362 46.04773 -79.17627 41.2207 C-76.67386 39.81706 -74.17844 38.40143 -71.68359 36.98438 C-61.27588 31.07499 -50.83266 25.24553 -40.31055 19.54224 C-32.29 15.18428 -24.34293 10.70259 -16.41016 6.1875 C-15.49879 5.6693 -14.58742 5.15109 -13.64844 4.61719 C-12.84583 4.15941 -12.04323 3.70163 -11.21631 3.22998 C-4.41639 -0.54376 -4.41639 -0.54376 0 0 Z " fill="#FDFDFD" transform="translate(818,272)"/>
<path d="M0 0 C0.18695 17.36761 0.32799 34.73501 0.4145 52.10342 C0.45573 60.16808 0.51194 68.23212 0.60352 76.29639 C0.6833 83.32595 0.73488 90.35505 0.75271 97.38505 C0.76313 101.10706 0.78759 104.82777 0.84584 108.54937 C0.90026 112.05458 0.91687 115.55797 0.90486 119.06356 C0.90706 120.34796 0.92291 121.63243 0.95364 122.91646 C1.17374 132.58824 1.17374 132.58824 -1.70583 136.05174 C-3.74192 137.61308 -5.72156 138.82749 -8 140 C-9.29236 140.75924 -10.58413 141.51948 -11.875 142.28125 C-13.2472 143.02602 -14.62235 143.76536 -16 144.5 C-24.2712 149.00299 -32.41558 153.70194 -40.5332 158.47461 C-41.91862 159.28769 -41.91862 159.28769 -43.33203 160.11719 C-44.26643 160.6953 -45.20082 161.27341 -46.16353 161.86903 C-49.0835 163.58839 -52.05751 164.86241 -55.20097 166.12267 C-65.37049 170.33342 -65.37049 170.33342 -72.10815 178.51891 C-73.55291 185.38678 -72.93306 192.33152 -72.37619 199.27295 C-72.16247 202.32365 -72.09529 205.37709 -72.0188 208.43379 C-71.76617 217.50185 -71.30642 226.55783 -70.76923 235.61322 C-70.24305 244.49371 -69.82109 253.36573 -69.6875 262.26172 C-69.67773 262.86646 -69.66796 263.47119 -69.65789 264.09425 C-69.39928 285.34152 -69.39928 285.34152 -74.69214 291.97305 C-80.94126 298.22219 -88.99944 301.18228 -97.28874 303.72354 C-103.21401 305.61421 -108.26401 309.02135 -113.5 312.3125 C-115.44339 313.46569 -117.39872 314.596 -119.35547 315.72656 C-120.29439 316.27216 -121.23331 316.81775 -122.20068 317.37988 C-127.5914 320.49978 -133.00108 323.58636 -138.41333 326.6687 C-144.18843 329.95862 -149.94206 333.28361 -155.6875 336.625 C-161.99048 340.28428 -168.32027 343.89111 -174.6875 347.4375 C-175.76487 348.03909 -175.76487 348.03909 -176.86401 348.65283 C-181.51496 351.2307 -186.22535 353.65945 -191 356 C-191.12382 351.65847 -191.21443 347.31797 -191.27466 342.9751 C-191.29977 341.49868 -191.33386 340.02238 -191.3772 338.54639 C-191.43802 336.42124 -191.46624 334.29774 -191.48828 332.17188 C-191.51409 331.51443 -191.53989 330.85699 -191.56648 330.17963 C-191.56859 326.71224 -191.27989 325.28835 -188.8335 322.76807 C-185.96735 320.97963 -183.11165 319.21136 -180.17578 317.53906 C-179.62948 317.22601 -179.08317 316.91296 -178.52031 316.59042 C-176.78664 315.59792 -175.04976 314.61121 -173.3125 313.625 C-171.03681 312.32718 -168.76248 311.02699 -166.48828 309.72656 C-165.65165 309.24924 -165.65165 309.24924 -164.79813 308.76227 C-161.45644 306.8511 -158.14675 304.89572 -154.85547 302.89844 C-150.56819 300.30748 -146.20117 297.89469 -141.79443 295.51367 C-137.10651 292.97434 -132.45912 290.36393 -127.8125 287.75 C-126.8992 287.24082 -125.9859 286.73164 -125.04492 286.20703 C-123.1629 285.14751 -121.29526 284.062 -119.44356 282.95034 C-117.00729 281.51722 -114.53972 280.33196 -111.95535 279.18988 C-104.1878 275.53043 -104.1878 275.53043 -99.09261 268.93978 C-97.64837 262.79239 -98.04234 256.50428 -98.25049 250.2395 C-98.26152 248.13121 -98.26534 246.02287 -98.26253 243.91455 C-98.27271 238.79937 -98.35509 233.68903 -98.46759 228.57517 C-98.59364 222.61355 -98.61971 216.65273 -98.63773 210.68997 C-98.67161 200.04984 -98.76943 189.41137 -98.91504 178.77222 C-98.92372 178.13673 -98.9324 177.50123 -98.94134 176.84649 C-98.97658 174.27148 -99.01188 171.69647 -99.04728 169.12146 C-99.144 162.02666 -99.22624 154.93172 -99.30273 147.83667 C-99.3096 147.20105 -99.31648 146.56543 -99.32355 145.91055 C-99.43671 135.3052 -99.50975 124.69984 -99.55919 114.094 C-99.5949 106.9793 -99.6863 99.86794 -99.81839 92.75438 C-99.89127 88.33135 -99.92328 83.90868 -99.94478 79.48513 C-99.96346 77.43504 -99.99946 75.38502 -100.0541 73.33557 C-100.45439 57.86054 -100.45439 57.86054 -96.87008 53.27529 C-94.29168 51.41699 -91.94368 50.17622 -89 49 C-87.45551 48.23484 -85.91338 47.46488 -84.375 46.6875 C-83.55645 46.2982 -82.73789 45.90891 -81.89453 45.50781 C-78.15111 43.5578 -74.62345 41.32474 -71.0625 39.0625 C-64.8261 35.10427 -58.53327 31.45134 -52 28 C-46.12587 24.82509 -40.37206 21.46008 -34.625 18.0625 C-28.14948 14.23733 -21.63094 10.5499 -15 7 C-13.83668 6.3617 -12.67395 5.72232 -11.51172 5.08203 C-10.32035 4.42962 -9.12894 3.77728 -7.9375 3.125 C-7.0959 2.65864 -7.0959 2.65864 -6.2373 2.18286 C-2.22623 0 -2.22623 0 0 0 Z " fill="#040404" transform="translate(1020,366)"/>
<path d="M0 0 C3.1567 1.24671 6.1877 2.54782 9.1875 4.13672 C9.96174 4.54535 10.73599 4.95398 11.53369 5.375 C12.34757 5.80813 13.16146 6.24125 14 6.6875 C14.84869 7.13738 15.69737 7.58727 16.57178 8.05078 C18.27344 8.95369 19.97446 9.8578 21.6748 10.76318 C23.62698 11.80158 25.58203 12.83408 27.53906 13.86328 C34.13862 17.36355 40.58471 21.07988 47.00928 24.89111 C53.04637 28.46338 59.13866 31.93153 65.25 35.375 C66.21108 35.91697 67.17215 36.45894 68.16235 37.01733 C70.11842 38.12024 72.07456 39.22302 74.03076 40.32568 C78.96184 43.10625 83.88988 45.89199 88.8125 48.6875 C89.70808 49.19265 90.60365 49.6978 91.52637 50.21826 C92.34911 50.68635 93.17186 51.15444 94.01953 51.63672 C94.74245 52.04624 95.46538 52.45576 96.21021 52.87769 C98 54 98 54 100 56 C100.18784 58.55992 100.2519 61.0107 100.22705 63.5708 C100.22734 64.35138 100.22763 65.13196 100.22794 65.93619 C100.22654 68.52267 100.21097 71.10888 100.19531 73.69531 C100.19158 75.48607 100.18874 77.27683 100.18674 79.0676 C100.17909 83.78588 100.15944 88.50405 100.13733 93.22229 C100.11689 98.0349 100.10774 102.84752 100.09766 107.66016 C100.07619 117.10682 100.04205 126.5534 100 136 C96.72107 135.38626 94.12513 134.73327 91.22266 133.07422 C90.54396 132.68943 89.86527 132.30465 89.16602 131.9082 C88.47186 131.50537 87.7777 131.10254 87.0625 130.6875 C86.37221 130.29627 85.68191 129.90504 84.9707 129.50195 C82.9651 128.35562 80.97165 127.204 79 126 C78.22535 125.68322 78.22535 125.68322 77.43504 125.36005 C75.50768 124.42573 74.36127 123.66665 73 122 C72.1963 118.24225 72.42268 114.56467 72.58984 110.74219 C72.61019 109.64279 72.63054 108.54339 72.6515 107.41068 C72.71823 103.89738 72.82354 100.38697 72.9375 96.875 C73.0476 93.35604 73.14486 89.83798 73.21278 86.3179 C73.25531 84.1271 73.32134 81.9366 73.41258 79.74728 C73.43233 78.75931 73.45207 77.77133 73.47241 76.75342 C73.50161 75.88168 73.53081 75.00994 73.5609 74.11179 C73.3758 73.4149 73.19071 72.71801 73 72 C70.61288 70.68428 70.61288 70.68428 68 70 C66.91374 69.41507 65.84242 68.801 64.79297 68.15234 C64.21434 67.79874 63.63571 67.44513 63.03955 67.08081 C62.12279 66.51487 62.12279 66.51487 61.1875 65.9375 C55.7103 62.6085 50.20178 59.34717 44.625 56.1875 C43.99618 55.82713 43.36736 55.46675 42.71948 55.09546 C39.30183 53.16976 35.85158 51.45144 32.25928 49.87231 C31.45872 49.5195 30.65816 49.16668 29.83334 48.80318 C29.22834 48.53813 28.62334 48.27308 28 48 C27.88334 71.69525 27.7951 95.39046 27.74094 119.08594 C27.71513 130.0875 27.67992 141.08888 27.6228 152.09033 C27.57306 161.67616 27.54073 171.26187 27.52956 180.84783 C27.52302 185.92634 27.50761 191.00449 27.47135 196.08288 C27.43753 200.8583 27.42692 205.6332 27.43446 210.40872 C27.43308 212.1656 27.42306 213.92249 27.40397 215.67926 C27.37925 218.07018 27.38502 220.45911 27.39873 222.85007 C27.38416 223.55239 27.3696 224.25472 27.35459 224.97833 C27.32999 227.1203 27.32999 227.1203 28 230 C30.32066 231.46872 30.32066 231.46872 33 232 C34.86496 233.04196 36.70887 234.12211 38.53516 235.23047 C39.05452 235.54398 39.57389 235.85749 40.10899 236.1805 C41.7623 237.17935 43.41252 238.18317 45.0625 239.1875 C51.56465 243.12941 58.06836 247.06834 64.62109 250.92578 C65.5833 251.49337 66.5455 252.06096 67.53687 252.64575 C70.01741 254.10578 70.01741 254.10578 73 255 C73 234.87 73 214.74 73 194 C78.28 196.64 83.56 199.28 89 202 C91.13719 203.03705 93.27437 204.0741 95.47632 205.14258 C98.62962 207.23939 99.78853 208.21531 100.78104 211.89819 C100.91377 214.92419 100.8353 217.75709 100.55353 220.76378 C100.37511 222.76126 100.28232 224.74704 100.21214 226.7511 C100.00326 232.43156 99.68646 238.09874 99.21558 243.76367 C97.44849 258.75379 97.44849 258.75379 102.12791 272.43064 C108.13559 278.30915 116.15527 281.61471 123.84932 284.69275 C128.15109 286.4776 132.11003 288.71882 136.125 291.0625 C137.54385 291.84946 138.96424 292.63367 140.38672 293.41406 C149.02421 298.22178 157.52343 303.27773 166.05225 308.2749 C170.61223 310.94352 175.1796 313.59928 179.75 316.25 C180.5298 316.70367 181.3096 317.15734 182.11304 317.62476 C183.19404 318.25136 183.19404 318.25136 184.29688 318.89062 C184.91917 319.25188 185.54146 319.61314 186.18262 319.98535 C188.00473 321.08524 188.00473 321.08524 190.20703 321.68213 C190.79871 322.11703 191.39039 322.55192 192 323 C192.36491 325.543 192.46664 327.65605 192.39062 330.19531 C192.38497 330.90276 192.37931 331.6102 192.37347 332.33908 C192.35106 334.60174 192.30086 336.86282 192.25 339.125 C192.22994 340.65753 192.21169 342.19008 192.19531 343.72266 C192.15118 347.48238 192.08212 351.24092 192 355 C187.63767 354.25087 184.54596 352.71068 180.875 350.3125 C179.71361 349.57596 178.55083 348.84161 177.38672 348.10938 C176.52506 347.567 176.52506 347.567 175.646 347.01367 C172.50373 345.07854 169.24601 343.36242 165.99609 341.61719 C155.79569 336.11136 145.77268 330.31894 135.85547 324.32031 C131.71779 321.82084 127.54699 319.37913 123.375 316.9375 C118.25097 313.93746 113.16524 310.88868 108.125 307.75 C103.50322 304.8784 98.80796 302.19857 94.01172 299.62891 C90.31581 297.62995 86.6582 295.56692 83 293.5 C78.58132 291.005 74.15625 288.52965 69.6875 286.125 C57.09024 279.28111 44.78585 271.90514 32.51343 264.49951 C25.81309 260.46446 19.05725 256.53166 12.26562 252.65234 C11.53086 252.23082 10.79609 251.8093 10.03906 251.375 C9.40178 251.01148 8.7645 250.64797 8.10791 250.27344 C7.06449 249.64309 7.06449 249.64309 6 249 C4.98141 248.51549 3.96281 248.03099 2.91335 247.5318 C0.86846 246.14457 0.1195 245.42756 -0.55228 243.02402 C-0.76023 240.40518 -0.77028 237.84471 -0.72153 235.21783 C-0.72665 234.21395 -0.73178 233.21006 -0.73706 232.17575 C-0.74524 229.39078 -0.72648 226.60748 -0.69639 223.82271 C-0.67049 220.81934 -0.67925 217.81605 -0.68381 214.81261 C-0.68695 209.60958 -0.66813 204.407 -0.63438 199.20408 C-0.58562 191.68161 -0.56999 184.15936 -0.56245 176.63675 C-0.54932 164.43203 -0.50939 152.22754 -0.45264 140.02295 C-0.39756 128.16717 -0.35509 116.31145 -0.32959 104.45557 C-0.32723 103.35942 -0.32723 103.35942 -0.32481 102.24113 C-0.31698 98.57512 -0.3094 94.9091 -0.30194 91.24309 C-0.23974 60.82855 -0.13406 30.4143 0 0 Z " fill="#050505" transform="translate(609,366)"/>
<path d="M0 0 C3.02167 0.70892 5.43036 1.63767 8.15234 3.14453 C9.31733 3.78938 9.31733 3.78938 10.50586 4.44727 C11.3083 4.89779 12.11074 5.34832 12.9375 5.8125 C14.13536 6.47089 14.13536 6.47089 15.35742 7.14258 C16.13537 7.57635 16.91332 8.01012 17.71484 8.45703 C18.4173 8.84866 19.11976 9.2403 19.84351 9.6438 C26.76552 13.997 26.76552 13.997 27.61524 17.63177 C27.61063 18.63837 27.60602 19.64497 27.60127 20.68207 C27.60554 21.24493 27.60982 21.8078 27.61422 22.38772 C27.62244 24.26939 27.59499 26.14881 27.56763 28.03027 C27.56622 29.3806 27.56701 30.73093 27.56984 32.08125 C27.57127 35.74446 27.54188 39.40685 27.50697 43.06986 C27.47572 46.89885 27.47278 50.72785 27.46684 54.55695 C27.4513 61.80664 27.41027 69.05596 27.3601 76.30549 C27.30421 84.5593 27.27672 92.81313 27.25162 101.06709 C27.19935 118.04494 27.11141 135.02244 27 152 C30.76726 149.14015 32.39579 147.43197 34 143 C35.19482 141.37462 36.44966 139.79226 37.75 138.25 C40.89544 134.42003 43.71665 130.52983 46.42188 126.38281 C48.31221 123.52859 50.26246 120.72463 52.25 117.9375 C52.91516 116.99777 53.58031 116.05805 54.26562 115.08984 C55.12414 114.05537 55.12414 114.05537 56 113 C56.66 113 57.32 113 58 113 C58.68487 111.67592 59.3487 110.34091 60 109 C61 108 62 107 63 106 C64.08617 102.7415 64.17367 99.89472 64.20532 96.50903 C64.21522 95.85511 64.22512 95.20118 64.23532 94.52744 C64.26688 92.36859 64.29167 90.20972 64.31641 88.05078 C64.33698 86.55291 64.35798 85.05504 64.37938 83.55717 C64.43455 79.61661 64.48398 75.676 64.53223 71.73535 C64.58248 67.71349 64.63815 63.69171 64.69336 59.66992 C64.80088 51.78001 64.90234 43.89004 65 36 C65.67402 36.36021 66.34804 36.72042 67.04248 37.09155 C67.93338 37.55505 68.82429 38.01855 69.74219 38.49609 C70.62246 38.95943 71.50272 39.42277 72.40967 39.90015 C76.26021 41.53508 79.09763 41.3268 83 40 C85.17576 39.03557 87.25937 38.00223 89.33594 36.83984 C91 36 91 36 93 36 C93.18487 38.09489 93.22665 40.06273 93.19189 42.15942 C93.18909 42.81475 93.18629 43.47008 93.1834 44.14526 C93.17687 45.57763 93.16625 47.00999 93.15213 48.4423 C93.13272 50.71804 93.13046 52.99315 93.134 55.26897 C93.14371 61.74299 93.1446 68.21643 93.0791 74.69019 C93.04035 78.6459 93.04116 82.59999 93.06668 86.55579 C93.06907 88.05673 93.0572 89.55776 93.03009 91.05845 C92.84206 101.92707 94.51567 107.90373 102 116 C102.97225 117.10787 102.97225 117.10787 103.96414 118.23811 C105.0916 119.51901 106.22622 120.79362 107.36719 122.0625 C109.00513 124.00609 110.37543 125.98853 111.75 128.125 C114.49047 132.36903 117.50872 136.34155 120.625 140.3125 C121.09261 140.91143 121.56021 141.51036 122.04199 142.12744 C122.49478 142.70027 122.94756 143.2731 123.41406 143.86328 C123.81577 144.37157 124.21747 144.87987 124.63135 145.40356 C126.32111 147.37455 128.15799 149.17169 130 151 C129.98617 150.30739 129.97235 149.61478 129.9581 148.90118 C129.6264 132.02466 129.37841 115.1488 129.22282 98.26972 C129.14557 90.10676 129.04032 81.94598 128.86841 73.78442 C128.71858 66.66803 128.62206 59.55321 128.58867 52.43528 C128.56916 48.6676 128.52357 44.90444 128.41405 41.13822 C127.77404 18.25661 127.77404 18.25661 131.44215 12.89012 C134.87965 9.68607 138.65736 8.00851 143.10666 6.63856 C146.09329 5.63127 148.61257 4.05429 151.3125 2.4375 C155.73171 0 155.73171 0 158 0 C158.02339 22.4968 158.04101 44.9936 158.05181 67.49041 C158.05696 77.93673 158.06398 88.38304 158.07544 98.82935 C158.08543 107.93733 158.09186 117.0453 158.09409 126.15329 C158.09539 130.97316 158.09843 135.79301 158.10573 140.61288 C158.11255 145.15591 158.1146 149.69893 158.11311 154.24196 C158.11338 155.90312 158.11535 157.56427 158.11921 159.22542 C158.17292 183.57508 158.17292 183.57508 154.83862 187.62573 C153.90574 188.19655 152.97287 188.76736 152.01172 189.35547 C151.51211 189.67285 151.0125 189.99022 150.49776 190.31721 C148.91357 191.31016 147.3032 192.24693 145.6875 193.1875 C144.61583 193.85683 143.54615 194.52933 142.47852 195.20508 C133.5268 200.74185 133.5268 200.74185 130 200 C128.46362 198.61401 128.46362 198.61401 127.01172 196.66797 C126.47345 195.95665 125.93519 195.24533 125.38062 194.51245 C124.82189 193.74522 124.26316 192.97798 123.6875 192.1875 C123.11008 191.41447 122.53266 190.64143 121.93774 189.84497 C118.18794 184.77575 114.67729 179.62715 111.46484 174.19922 C109.86736 171.80087 108.04927 170.02285 106 168 C104.31324 165.98434 102.7175 163.90306 101.125 161.8125 C100.68229 161.23516 100.23958 160.65782 99.78345 160.06299 C96.87033 156.23249 94.1831 152.30586 91.57422 148.26172 C89.26801 144.94833 86.68878 141.87426 84.07007 138.8042 C81.96514 136.30958 80.44004 133.9128 79 131 C78.34 130.67 77.68 130.34 77 130 C76.75508 130.88301 76.51016 131.76602 76.25781 132.67578 C75.10612 136.11776 73.26169 138.43907 70.875 141.1875 C70.06385 142.13976 69.25532 143.09425 68.44922 144.05078 C68.04107 144.53499 67.63292 145.01919 67.2124 145.51807 C64.58988 148.7236 62.22516 152.11979 59.82422 155.49219 C58.59296 157.18484 57.31631 158.84526 56 160.47266 C53.9343 163.08303 52.12432 165.7707 50.3125 168.5625 C47.10272 173.45687 43.7076 178.17082 40.14575 182.8147 C36.93802 187.00976 33.9756 191.27393 31.375 195.875 C30.92125 196.57625 30.4675 197.2775 30 198 C29.34 198 28.68 198 28 198 C28 198.66 28 199.32 28 200 C23.30208 198.60776 19.33911 196.66831 15.125 194.1875 C14.55137 193.85686 13.97773 193.52621 13.38672 193.18555 C12.23443 192.51702 11.09389 191.82773 9.96743 191.11655 C8.04121 189.93917 8.04121 189.93917 5.92716 189.31153 C3.22817 188.21756 1.8495 187.27751 0 185 C-1.23684 179.17538 -1.01029 173.37988 -0.9082 167.44995 C-0.90595 165.62658 -0.90721 163.8032 -0.91174 161.97983 C-0.91404 157.0313 -0.86699 152.08432 -0.81115 147.13615 C-0.76116 141.96457 -0.75644 136.79295 -0.74695 131.62117 C-0.72208 121.82848 -0.65642 112.0365 -0.57615 102.24412 C-0.48675 91.09559 -0.44275 79.94702 -0.40259 68.79822 C-0.31896 45.86509 -0.17823 22.93258 0 0 Z " fill="#050505" transform="translate(736,438)"/>
<path d="M0 0 C9.24 0 18.48 0 28 0 C34.46978 7.54808 34.46978 7.54808 37.06641 12.375 C38.45276 14.78807 40.24402 16.8475 42 19 C42.43828 19.73734 42.87656 20.47469 43.32812 21.23438 C45.2945 24.48716 47.46471 27.54434 49.6875 30.625 C50.12812 31.23892 50.56874 31.85283 51.02271 32.48535 C53.72902 36.25143 56.45472 40.0031 59.1875 43.75 C68.69208 56.79475 68.69208 56.79475 71.54297 61.60156 C72.75654 63.59924 73.95792 65.26022 75.5 67 C77.70261 69.48499 79.29523 72.15307 81 75 C82.21142 76.70029 83.44176 78.3872 84.6875 80.0625 C90.64723 88.17107 96.37429 96.39417 100.99219 105.35547 C101.90721 107.17399 101.90721 107.17399 104 108 C104 72.36 104 36.72 104 0 C114.89 0 125.78 0 137 0 C137 54.45 137 108.9 137 165 C127.76 165 118.52 165 109 165 C106.69 161.7 104.38 158.4 102 155 C101.01 154.01 100.02 153.02 99 152 C95 146.74247 95 146.74247 95 144 C94.34 144 93.68 144 93 144 C91.95703 142.60156 91.95703 142.60156 90.8125 140.625 C86.71609 133.80973 82.22955 127.30892 77.03906 121.28125 C76 120 76 120 74.625 117.6875 C73.133 115.21996 71.53416 113.07243 69.75 110.8125 C67.2858 107.68981 64.94168 104.52735 62.6875 101.25 C59.92688 97.25762 57.03595 93.39653 54.0625 89.5625 C47.45772 81.02495 41.08445 72.47306 35.61279 63.15039 C33.8507 60.03168 33.8507 60.03168 31 58 C31 93.31 31 128.62 31 165 C20.77 165 10.54 165 0 165 C0 110.55 0 56.1 0 0 Z " fill="#040404" transform="translate(680,793)"/>
<path d="M0 0 C1.18177 -0.0483 1.18177 -0.0483 2.38741 -0.09758 C5.99916 -0.20801 9.61073 -0.29061 13.22363 -0.35254 C15.13009 -0.39426 17.03623 -0.45569 18.94141 -0.53711 C31.61301 -1.07008 31.61301 -1.07008 36.27808 0.27222 C39.30466 3.32149 39.71392 6.12372 40.27808 10.27222 C40.90716 11.95343 41.57022 13.62262 42.27808 15.27222 C43.33042 18.29771 44.28434 21.29633 45.09058 24.39722 C46.80716 30.53571 49.36552 36.66965 52.35229 42.29565 C53.48987 44.7244 54.01154 47.09163 54.59058 49.70972 C55.98851 55.57525 58.0001 60.98511 60.28979 66.55737 C61.27808 69.27222 61.27808 69.27222 61.27808 72.27222 C61.93808 72.27222 62.59808 72.27222 63.27808 72.27222 C63.95386 73.85425 63.95386 73.85425 64.59058 76.08472 C65.73968 79.8193 67.15112 83.2492 68.84058 86.77222 C70.72177 90.81539 71.97701 94.55746 72.81714 98.92456 C73.37324 101.75693 74.05705 104.53985 74.77808 107.33472 C75.01526 108.27444 75.25245 109.21417 75.49683 110.18237 C75.75464 110.87202 76.01245 111.56167 76.27808 112.27222 C76.93808 112.27222 77.59808 112.27222 78.27808 112.27222 C78.68703 114.87464 78.78825 117.45532 78.93433 120.08472 C79.04776 120.80659 79.1612 121.52847 79.27808 122.27222 C79.93808 122.27222 80.59808 122.27222 81.27808 122.27222 C84.77976 128.3928 86.17 135.56604 87.771 142.36572 C88.91367 147.11496 90.39728 151.5151 92.44604 155.96362 C93.5558 159.0428 93.84483 162.027 94.27808 165.27222 C89.61501 165.32159 84.95209 165.35792 80.28882 165.38208 C78.70188 165.39215 77.11495 165.4058 75.52808 165.4231 C73.24938 165.44731 70.97094 165.45869 68.69214 165.46753 C67.98063 165.47785 67.26911 165.48817 66.53604 165.49881 C64.78176 165.49921 63.02811 165.39424 61.27808 165.27222 C59.27808 163.27222 59.27808 163.27222 59.15308 161.14722 C59.19433 160.52847 59.23558 159.90972 59.27808 159.27222 C58.61808 159.27222 57.95808 159.27222 57.27808 159.27222 C56.56714 156.99878 56.56714 156.99878 55.90308 153.89722 C54.26236 146.87031 51.92866 140.35908 48.59058 133.95972 C47.27808 131.27222 47.27808 131.27222 47.0444 128.64568 C46.66507 127.47081 46.66507 127.47081 46.27808 126.27222 C43.7964 125.49453 43.7964 125.49453 40.70435 125.60938 C40.1238 125.59901 39.54326 125.58864 38.94513 125.57796 C37.01634 125.55074 35.0898 125.56058 33.16089 125.573 C31.82428 125.56709 30.48768 125.55985 29.15109 125.55132 C26.34467 125.53941 23.53904 125.54618 20.73267 125.56543 C17.13482 125.58828 13.53935 125.5616 9.94174 125.52037 C7.17923 125.49479 4.41728 125.49737 1.65469 125.50826 C0.32859 125.50975 -0.99755 125.50204 -2.32354 125.48501 C-9.19835 125.04498 -9.19835 125.04498 -15.1823 127.54614 C-16.18713 129.3086 -16.18713 129.3086 -16.72192 132.27222 C-17.01196 133.33183 -17.302 134.39144 -17.60083 135.48315 C-18.0599 137.608 -18.51822 139.733 -18.97583 141.85815 C-19.22204 142.65479 -19.46825 143.45144 -19.72192 144.27222 C-20.38192 144.27222 -21.04192 144.27222 -21.72192 144.27222 C-21.99261 145.9302 -22.25107 147.5913 -22.44067 149.2605 C-23.01876 153.39542 -24.40475 157.32069 -25.72192 161.27222 C-26.38192 161.27222 -27.04192 161.27222 -27.72192 161.27222 C-27.77727 161.92416 -27.83262 162.5761 -27.88965 163.2478 C-28.30162 164.24989 -28.30162 164.24989 -28.72192 165.27222 C-31.29914 165.64459 -33.46034 165.73711 -36.03833 165.66284 C-36.76938 165.65718 -37.50044 165.65152 -38.25365 165.64569 C-40.59789 165.62323 -42.94064 165.57302 -45.28442 165.52222 C-46.86969 165.50216 -48.45498 165.48391 -50.04028 165.46753 C-53.93475 165.42333 -57.82808 165.35424 -61.72192 165.27222 C-60.77759 157.84901 -60.77759 157.84901 -59.34302 154.31909 C-59.07731 153.64942 -58.8116 152.97976 -58.53784 152.28979 C-58.13396 151.29109 -58.13396 151.29109 -57.72192 150.27222 C-57.23042 148.98699 -56.74209 147.70054 -56.25708 146.41284 C-56.01635 145.77733 -55.77562 145.14183 -55.52759 144.48706 C-55.28234 143.83866 -55.0371 143.19026 -54.78442 142.52222 C-54.525 141.83772 -54.26558 141.15323 -53.99829 140.448 C-52.00024 135.12976 -50.22999 129.77251 -48.5813 124.33472 C-48.29771 123.65409 -48.01411 122.97347 -47.72192 122.27222 C-47.06192 122.27222 -46.40192 122.27222 -45.72192 122.27222 C-45.36099 120.65275 -45.36099 120.65275 -45.28442 118.64722 C-44.95197 115.29932 -44.2143 113.05486 -42.54224 110.10034 C-41.00124 106.66612 -40.36724 102.93652 -39.56567 99.27222 C-38.6479 96.00903 -37.242 93.29691 -35.72192 90.27222 C-34.73617 87.42119 -33.96093 84.5112 -33.1731 81.60034 C-32.75351 80.13769 -32.24551 78.70094 -31.72192 77.27222 C-31.06192 77.27222 -30.40192 77.27222 -29.72192 77.27222 C-29.48939 75.91432 -29.26756 74.55413 -29.08423 73.18872 C-28.349 69.29952 -26.75721 65.6457 -25.34692 61.95972 C-23.25071 56.42162 -21.2192 50.88557 -19.40332 45.24829 C-18.7479 43.34755 -17.99277 41.53842 -17.15942 39.70972 C-15.76119 36.56919 -14.91469 33.41594 -14.15161 30.06909 C-13.76357 28.44638 -13.24954 26.85506 -12.72192 25.27222 C-12.06192 25.27222 -11.40192 25.27222 -10.72192 25.27222 C-9.89459 22.95394 -9.89459 22.95394 -9.28442 20.02222 C-9.03048 18.93812 -8.77653 17.85401 -8.51489 16.73706 C-8.38518 16.16842 -8.25547 15.59979 -8.12183 15.01392 C-7.47505 12.19702 -6.78759 9.3912 -6.09692 6.58472 C-5.85716 5.59085 -5.61739 4.59698 -5.37036 3.573 C-4.36507 0.00601 -3.49378 0.1402 0 0 Z " fill="#050505" transform="translate(563.721923828125,792.727783203125)"/>
<path d="M0 0 C2.38904 -0.23431 4.73161 -0.29768 7.13229 -0.30449 C8.01019 -0.31876 8.88809 -0.33303 9.79259 -0.34773 C11.65108 -0.36868 13.50977 -0.3762 15.36838 -0.37138 C18.21803 -0.37479 21.05936 -0.45264 23.90768 -0.53496 C25.7117 -0.54603 27.51575 -0.55269 29.31979 -0.55449 C30.59958 -0.60064 30.59958 -0.60064 31.90523 -0.64772 C34.34656 -0.6002 36.06858 -0.51793 38.29245 0.5002 C40.01683 3.36218 40.62772 6.25398 41.29245 9.5002 C41.6965 10.6815 42.11874 11.85708 42.5737 13.01973 C44.60148 18.49097 46.46684 23.86861 47.79245 29.5627 C49.08915 35.12954 51.02809 40.22457 53.20651 45.49239 C54.29245 48.5002 54.29245 48.5002 54.81589 51.88301 C54.97315 52.74668 55.13042 53.61035 55.29245 54.5002 C55.95245 54.5002 56.61245 54.5002 57.29245 54.5002 C57.74948 56.11739 57.74948 56.11739 58.10495 58.3752 C59.03752 63.08988 60.83636 66.85961 63.05807 71.09395 C65.93776 76.70752 67.6148 82.33 68.76511 88.51973 C69.17939 90.50673 69.17939 90.50673 70.29636 91.99629 C71.55166 93.89156 71.78473 95.51639 72.16745 97.7502 C72.79546 100.80685 73.50668 103.17233 75.16745 105.8127 C78.47137 111.11637 81.38967 118.01 81.21432 124.30489 C81.253 125.39157 81.253 125.39157 81.29245 126.5002 C82.28245 126.8302 83.27245 127.1602 84.29245 127.5002 C85.25763 129.93282 86.02553 132.24163 86.72995 134.7502 C87.04754 135.82479 87.04754 135.82479 87.37155 136.9211 C87.80723 138.39535 88.23836 139.87096 88.66501 141.34785 C89.58247 144.49508 90.56394 147.62154 91.54245 150.7502 C93.23253 156.20832 93.23253 156.20832 93.77682 158.85957 C93.94698 159.40098 94.11714 159.94239 94.29245 160.5002 C94.95245 160.5002 95.61245 160.5002 96.29245 160.5002 C96.91745 163.0002 96.91745 163.0002 97.29245 165.5002 C92.34457 165.57425 87.397 165.62875 82.4487 165.66499 C80.76472 165.6801 79.08079 165.70058 77.39694 165.72652 C74.9792 165.76283 72.56198 165.77991 70.14401 165.79317 C69.38875 165.80865 68.63349 165.82413 67.85535 165.84009 C65.73239 165.84077 65.73239 165.84077 62.29245 165.5002 C60.14178 162.9841 59.50987 160.16565 58.66745 157.0002 C58.40706 156.04114 58.14667 155.08207 57.87839 154.09395 C57.29245 151.5002 57.29245 151.5002 57.29245 148.5002 C56.63245 148.5002 55.97245 148.5002 55.29245 148.5002 C53.53242 144.39346 53.08096 140.94159 53.29245 136.5002 C52.63245 136.5002 51.97245 136.5002 51.29245 136.5002 C50.47604 134.82051 50.47604 134.82051 49.72995 132.6252 C48.99537 130.5014 48.29815 128.51161 47.29245 126.5002 C37.81001 124.52478 27.63592 124.48866 17.97995 124.1252 C17.27868 124.0976 16.57741 124.07001 15.8549 124.04158 C-0.22352 123.00726 -0.22352 123.00726 -14.93857 128.07826 C-22.6784 136.5413 -23.93219 149.76259 -24.41522 160.77274 C-24.76684 162.85059 -25.2825 163.94568 -26.70755 165.5002 C-29.33217 165.76718 -31.71821 165.84853 -34.34036 165.79317 C-35.46812 165.7868 -35.46812 165.7868 -36.61865 165.7803 C-39.02365 165.76349 -41.42781 165.72583 -43.83255 165.6877 C-45.46144 165.67265 -47.09035 165.65897 -48.71927 165.64668 C-52.71568 165.61358 -56.71148 165.56178 -60.70755 165.5002 C-58.61504 159.14803 -58.61504 159.14803 -57.20755 156.1877 C-56.05426 153.57281 -55.36926 151.11774 -54.83255 148.3127 C-53.46665 141.56422 -50.42021 135.41856 -47.6763 129.14082 C-46.90036 127.02575 -46.35777 125.08587 -45.85989 122.90254 C-44.54231 117.42011 -42.37473 112.2819 -40.27005 107.0627 C-37.8418 101.00594 -35.47096 94.97093 -33.45633 88.76314 C-32.01616 84.41069 -30.40959 80.117 -28.83255 75.8127 C-28.1228 73.86352 -27.41316 71.9143 -26.70364 69.96504 C-25.53742 66.7666 -24.36473 63.57081 -23.18021 60.3791 C-20.7769 53.85005 -18.83164 47.43916 -17.38333 40.63301 C-17.04882 39.57727 -17.04882 39.57727 -16.70755 38.5002 C-16.04755 38.5002 -15.38755 38.5002 -14.70755 38.5002 C-14.46103 36.91717 -14.46103 36.91717 -14.45755 34.8752 C-13.89837 28.41917 -11.1163 23.00036 -8.46097 17.18086 C-5.28706 10.22521 -5.28706 10.22521 -3.20633 2.91402 C-1.70755 0.5002 -1.70755 0.5002 0 0 Z " fill="#050505" transform="translate(1040.7075500488281,792.4998016357422)"/>
<path d="M0 0 C3.05291 -0.07487 6.06585 -0.0101 9.11719 0.11719 C9.74609 0.14087 10.37499 0.16456 11.02295 0.18896 C26.41041 0.91888 40.17054 6.08696 51.23438 17.01953 C53.58382 19.63706 55.40674 22.03838 57.11719 25.11719 C57.41238 25.64313 57.70758 26.16906 58.01172 26.71094 C59.4531 29.39625 60.11719 31.024 60.11719 34.11719 C60.77719 34.11719 61.43719 34.11719 62.11719 34.11719 C63.0434 37.72941 63.16102 41.11774 63.14062 44.83984 C63.13724 45.64301 63.13386 46.44618 63.13037 47.27368 C63.12385 48.18622 63.12385 48.18622 63.11719 49.11719 C58.91832 49.34009 54.72291 49.50311 50.51953 49.61157 C49.09119 49.65678 47.66326 49.71816 46.23633 49.79614 C41.72602 50.03642 37.53469 50.14814 33.11719 49.11719 C30.59384 46.37065 29.91945 43.69275 29.11719 40.11719 C25.89587 34.66572 20.92278 32.24246 15.11719 30.11719 C10.88226 29.46288 6.76938 29.45958 2.49219 29.55469 C0.87184 29.53825 0.87184 29.53825 -0.78125 29.52148 C-7.19202 29.58012 -12.64739 30.14848 -17.88281 34.11719 C-19.44856 36.03517 -20.61759 37.97604 -21.88281 40.11719 C-22.54281 40.11719 -23.20281 40.11719 -23.88281 40.11719 C-23.90985 42.05461 -23.92922 43.99214 -23.94531 45.92969 C-23.95691 47.00863 -23.96852 48.08758 -23.98047 49.19922 C-23.87291 52.41296 -23.5765 54.35683 -21.37891 56.76562 C-14.7583 62.31839 -7.83621 64.37419 0.33594 66.61475 C2.46383 67.21497 4.53709 67.93165 6.61719 68.67969 C10.68224 70.06586 14.82157 71.04687 18.99219 72.05469 C34.54007 75.85107 52.30727 82.18883 61.26636 96.52563 C62.69326 99.19478 63.59866 101.95679 64.36719 104.86719 C64.53702 105.49826 64.70686 106.12934 64.88184 106.77954 C66.816 114.80321 66.45494 122.9267 66.11719 131.11719 C65.45719 131.11719 64.79719 131.11719 64.11719 131.11719 C63.64101 133.09184 63.64101 133.09184 63.36719 135.55469 C62.28575 141.49001 59.8613 145.45669 56.11719 150.11719 C55.39596 151.02598 55.39596 151.02598 54.66016 151.95312 C44.57103 163.24273 29.51824 168.36506 14.80127 169.33594 C-10.10168 170.53704 -30.62484 167.80443 -49.57129 150.64453 C-53.42852 146.96162 -57.72809 142.47726 -57.98462 136.90625 C-57.95102 136.31586 -57.91743 135.72547 -57.88281 135.11719 C-58.54281 135.11719 -59.20281 135.11719 -59.88281 135.11719 C-60.57331 132.86926 -61.10466 130.72586 -61.57031 128.42969 C-61.71275 127.80385 -61.8552 127.17801 -62.00195 126.5332 C-62.19628 125.60991 -62.19628 125.60991 -62.39453 124.66797 C-62.51272 124.10763 -62.63091 123.54729 -62.75269 122.96997 C-62.93953 120.30959 -62.92265 118.60824 -61.88281 116.11719 C-59.32432 115.51831 -57.40678 115.32158 -54.82031 115.3125 C-53.76058 115.29109 -53.76058 115.29109 -52.67944 115.26926 C-51.18323 115.24829 -49.68678 115.2408 -48.19043 115.24561 C-45.88861 115.2422 -43.59706 115.16436 -41.29688 115.08203 C-37.31425 115.01851 -33.75041 115.09572 -29.88281 116.11719 C-28.14904 119.10241 -28.66246 121.76881 -28.88281 125.11719 C-27.07067 128.33196 -24.58825 130.62448 -21.88281 133.11719 C-21.36719 133.61348 -20.85156 134.10977 -20.32031 134.62109 C-11.8371 141.72579 0.65197 141.65972 11.11719 141.11719 C11.78363 141.10945 12.45008 141.10172 13.13672 141.09375 C18.76218 140.75122 23.69181 137.36947 28.11719 134.11719 C28.79904 133.12748 29.47096 132.13052 30.11719 131.11719 C30.77719 131.11719 31.43719 131.11719 32.11719 131.11719 C32.17144 128.72105 32.21098 126.32615 32.24219 123.92969 C32.26732 122.91938 32.26732 122.91938 32.29297 121.88867 C32.34266 116.79564 31.87358 112.93024 28.17969 109.11719 C17.03892 101.19133 2.83759 99.02324 -10.23828 96.16016 C-26.25158 92.57097 -42.55482 85.12936 -52.00781 70.99219 C-52.67392 69.72123 -53.30126 68.42899 -53.88281 67.11719 C-54.19605 66.48039 -54.5093 65.84359 -54.83203 65.1875 C-59.28332 54.51247 -57.90672 39.70493 -53.88281 29.11719 C-51.90133 25.73085 -49.57733 22.9575 -46.88281 20.11719 C-46.24988 19.41852 -45.61695 18.71984 -44.96484 18 C-34.36515 6.78675 -21.41781 0.80281 -6.01562 0.17188 C-4.0099 0.13686 -2.00437 0.08148 0 0 Z " fill="#040404" transform="translate(1210.8828125,790.8828125)"/>
<path d="M0 0 C1.09086 0.45307 2.18324 0.90248 3.27734 1.34766 C11.05019 4.77891 16.79322 9.81117 22.73926 15.74414 C23.9151 16.91543 25.12062 18.0567 26.32812 19.19531 C28 21 28 21 28.25 23.25 C28.1675 23.8275 28.085 24.405 28 25 C28.66 25 29.32 25 30 25 C33.68692 29.55961 35.04763 35.07478 36.25 40.6875 C36.5091 41.80608 36.5091 41.80608 36.77344 42.94727 C37.54502 46.3796 38.09219 49.46803 38 53 C33.6771 53.24798 29.35836 53.42894 25.03003 53.54932 C23.55989 53.59949 22.09026 53.66766 20.62183 53.75439 C15.91666 54.02526 11.6005 54.12143 7 53 C4.15661 50.0135 3.15659 46.90078 2 43 C1.04346 41.34905 0.05562 39.71443 -1 38.125 C-1.45375 37.42633 -1.9075 36.72766 -2.375 36.00781 C-5.87373 31.68486 -9.89989 29.37466 -15 27.3125 C-16.01063 26.89613 -17.02125 26.47977 -18.0625 26.05078 C-29.30864 22.02789 -40.57464 23.887 -51.25 28.8125 C-63.10087 35.24583 -68.17624 45.22264 -72.01953 57.64453 C-72.34309 58.75184 -72.66664 59.85914 -73 61 C-73.18176 61.61633 -73.36352 62.23267 -73.55078 62.86768 C-74.52723 67.50261 -74.18476 72.34552 -74.1875 77.0625 C-74.20587 78.68575 -74.20587 78.68575 -74.22461 80.3418 C-74.24254 90.30714 -73.16514 99.86742 -69 109 C-68.62359 109.86496 -68.24719 110.72992 -67.85938 111.62109 C-64.0289 119.55722 -59.16638 124.16754 -52 129 C-51.19047 129.55043 -50.38094 130.10086 -49.54688 130.66797 C-41.02759 135.45002 -30.47215 135.52279 -21 134 C-9.50097 130.70395 -1.88156 123.20307 4 113 C4.7261 111.18049 4.7261 111.18049 5.1875 109.5 C5.45562 108.675 5.72375 107.85 6 107 C9.31745 105.89418 12.19319 105.87362 15.63672 105.90234 C16.59588 105.90447 16.59588 105.90447 17.57442 105.90663 C19.61216 105.91222 21.64979 105.92477 23.6875 105.9375 C25.07096 105.94252 26.45443 105.94708 27.83789 105.95117 C31.2253 105.96218 34.61263 105.97944 38 106 C38.2308 114.46392 38.2308 114.46392 36.75 117.9375 C36.47414 118.59621 36.19828 119.25492 35.91406 119.93359 C35.4616 120.95646 35.4616 120.95646 35 122 C34.69836 122.73348 34.39672 123.46695 34.08594 124.22266 C27.25674 140.40731 16.2725 151.28908 0.1875 158.3125 C-1.52694 158.91842 -3.25887 159.47571 -5 160 C-5.58556 160.17902 -6.17111 160.35804 -6.77441 160.54248 C-26.35422 166.3459 -48.33001 165.96918 -67 157 C-76.13375 151.80377 -84.66541 145.44611 -91 137 C-91 136.34 -91 135.68 -91 135 C-91.66 135 -92.32 135 -93 135 C-94.2501 133.16552 -95.35649 131.36876 -96.4375 129.4375 C-96.74953 128.88755 -97.06157 128.33761 -97.38306 127.771 C-103.5018 116.85788 -103.5018 116.85788 -103 110 C-103.66 110 -104.32 110 -105 110 C-111.73488 84.35802 -110.29583 53.85188 -97.09766 30.51562 C-89.40548 17.86137 -79.76729 6.98578 -66 1 C-65.19176 0.62617 -64.38352 0.25234 -63.55078 -0.13281 C-61.06308 -1.21442 -58.56971 -2.13186 -56 -3 C-55.14148 -3.30035 -54.28297 -3.6007 -53.39844 -3.91016 C-35.82273 -9.00285 -16.46593 -7.69321 0 0 Z " fill="#050505" transform="translate(453,797)"/>
<path d="M0 0 C4.75001 -0.29738 9.49459 -0.5146 14.25171 -0.65918 C15.86758 -0.71943 17.48279 -0.80126 19.09644 -0.90527 C29.85085 -1.58094 29.85085 -1.58094 34 0 C37.07267 3.68635 37.95995 7.38702 39 12 C39.69449 13.72272 40.41769 15.43459 41.1875 17.125 C42.50198 20.39555 43.34692 23.4651 43.9375 26.9375 C44.61079 30.81345 45.7908 33.95703 47.5 37.5 C49.57632 41.80443 50.76709 45.69523 51.44531 50.41797 C52.23657 54.10122 53.62604 57.49925 55 61 C55.48954 62.27426 55.97785 63.54899 56.46484 64.82422 C56.82546 65.76781 56.82546 65.76781 57.19336 66.73047 C59.69744 73.316 61.93042 79.89298 63.93359 86.64844 C65.13096 90.54134 66.60092 94.32516 68.0625 98.125 C70.15812 103.57633 71.96373 108.98696 73.35938 114.66797 C73.97579 117.08639 73.97579 117.08639 75.07031 119.65625 C75.99499 121.98737 76.18334 123.52497 76 126 C76.66 126 77.32 126 78 126 C78.52022 123.9679 78.52022 123.9679 78.8125 121.375 C80.16887 113.04301 83.09279 105.12042 86.5625 97.4375 C88.17847 93.83747 89.20016 90.07483 90.31543 86.2959 C91.5736 82.13997 93.12314 78.1844 94.8125 74.1875 C98.7868 64.67399 101.40589 54.73149 104.19702 44.82251 C106.14569 37.97285 108.10399 31.26602 111 24.75 C111.86793 22.36319 112.42339 20.16457 112.9375 17.6875 C113.85715 13.37167 114.87415 8.90093 117 5 C117.66 5 118.32 5 119 5 C119 3.35 119 1.7 119 0 C130.55 0 142.1 0 154 0 C150.74145 13.03421 150.74145 13.03421 148.80371 17.92139 C147.07009 22.405 145.63417 26.99959 144.125 31.5625 C143.77421 32.61502 143.42343 33.66754 143.06201 34.75195 C141.49413 39.46065 139.9374 44.17151 138.4375 48.90234 C138.21175 49.60609 137.98601 50.30984 137.75342 51.03491 C137.34378 52.31587 136.94139 53.59917 136.54736 54.88501 C136.00781 56.5625 136.00781 56.5625 135 59 C134.34 59 133.68 59 133 59 C132.77286 60.6224 132.55399 62.24847 132.44141 63.88281 C131.94819 66.24852 130.94521 68.10866 129.8313 70.2373 C128.19537 73.70614 127.17918 77.40101 126.0625 81.0625 C125.80308 81.89435 125.54365 82.7262 125.27637 83.58325 C124.08193 87.42372 122.91407 91.27029 121.79297 95.13281 C121.61435 95.73988 121.43574 96.34695 121.25171 96.97241 C120.77932 98.58728 120.31894 100.20565 119.85938 101.82422 C119.57578 102.54223 119.29219 103.26023 119 104 C118.34 104 117.68 104 117 104 C116.40818 105.72797 116.40818 105.72797 116.06641 107.92188 C115.07737 112.86028 113.59206 117.49967 111.9375 122.25 C109.88529 128.06507 109.88529 128.06507 108.44141 134.04688 C108.22291 135.01367 108.22291 135.01367 108 136 C107.34 136 106.68 136 106 136 C105.48002 137.83529 105.48002 137.83529 105.1875 140.1875 C104.00242 146.84289 101.55016 152.76356 99 159 C98.81744 159.86915 98.63487 160.7383 98.44678 161.63379 C97 164 97 164 95.37836 164.50395 C93.11763 164.75157 90.9072 164.82419 88.63281 164.83984 C87.80168 164.85649 86.97055 164.87313 86.11423 164.89027 C84.35412 164.91561 82.59378 164.92732 80.8335 164.92651 C78.13887 164.93744 75.45452 165.02809 72.76172 165.12305 C63.03991 165.28372 63.03991 165.28372 59 164 C56.0967 160.96149 55.5798 158.07628 55 154 C54.58234 152.99066 54.16469 151.98133 53.73438 150.94141 C53.24711 149.76385 53.24711 149.76385 52.75 148.5625 C52.41484 147.75941 52.07969 146.95633 51.73438 146.12891 C51 144 51 144 51 141 C50.34 141 49.68 141 49 141 C48.25391 138.875 48.25391 138.875 47.5625 136 C46.48593 131.73767 45.22833 127.71678 43.55078 123.65625 C43 122 43 122 43 119 C42.34 119 41.68 119 41 119 C40.25391 117.49048 40.25391 117.49048 39.5625 115.37891 C39.30727 114.6074 39.05203 113.8359 38.78906 113.04102 C38.52867 112.22311 38.26828 111.4052 38 110.5625 C37.73961 109.77939 37.47922 108.99629 37.21094 108.18945 C35.92491 104.2437 34.82606 100.34536 34 96.27734 C33.19781 92.47033 31.79136 89.46828 30 86 C28.75851 82.61452 27.66379 79.18328 26.5625 75.75 C24.55192 69.5059 22.40627 63.38211 19.92603 57.30811 C18.42386 53.56397 17.13132 49.75063 15.8457 45.92773 C14.91775 43.2527 13.93027 40.88525 12.45703 38.46094 C10.79289 35.65019 10.06433 33.09879 9.25 29.9375 C7.31064 22.67991 4.83414 15.64169 2.28613 8.57788 C1.99062 7.75296 1.6951 6.92804 1.39062 6.07812 C1.12282 5.33981 0.85502 4.6015 0.5791 3.84082 C0 2 0 2 0 0 Z " fill="#040404" transform="translate(836,794)"/>
<path d="M0 0 C43.8027 0 43.8027 0 50.71484 6.50781 C55.56426 12.13844 56.71958 17.72102 56.44922 25.08594 C55.76451 29.52759 54.21827 32.83994 51 36 C48.97687 37.04236 47.23854 37.47941 45 38 C45 38.66 45 39.32 45 40 C45.68062 40.2475 46.36125 40.495 47.0625 40.75 C51.44772 42.61605 55.51869 45.34274 57.89062 49.59766 C60.27759 56.80971 59.88312 65.99597 57 73 C54.04881 78.1616 49.57387 81.11954 44 83 C29.47699 85.07472 14.67045 84 0 84 C0 56.28 0 28.56 0 0 Z " fill="#0A0A0A" transform="translate(560,1007)"/>
<path d="M0 0 C42.11765 0 42.11765 0 52 8 C57.70562 14.62292 57.7597 22.88023 57.22656 31.25488 C56.46034 37.15675 53.23964 42.20773 48.875 46.125 C46 48 46 48 43 48 C43.23187 48.44803 43.46374 48.89606 43.70264 49.35767 C44.76663 51.42265 45.82084 53.49248 46.875 55.5625 C47.2398 56.26697 47.60461 56.97145 47.98047 57.69727 C49.7077 61.10462 51.17816 64.3199 52.13281 68.02734 C52.56207 69.49881 52.56207 69.49881 53 71 C53.66 71 54.32 71 55 71 C56.28906 72.86328 56.28906 72.86328 57.625 75.3125 C58.07102 76.11301 58.51703 76.91352 58.97656 77.73828 C60 80 60 80 60 83 C55.44528 83.72022 51.52238 84.06441 47 83 C44.56027 79.84238 43.64275 76.47292 42.54785 72.66797 C41.66948 69.99371 40.31639 67.63282 38.9375 65.1875 C38.43605 64.29676 37.93461 63.40602 37.41797 62.48828 C36.95004 61.66715 36.48211 60.84602 36 60 C35.60426 59.27168 35.20852 58.54336 34.80078 57.79297 C33.03435 54.29061 33.03435 54.29061 30 52 C28.55151 51.91658 27.09929 51.89267 25.64844 51.90234 C24.37227 51.90718 24.37227 51.90718 23.07031 51.91211 C22.18086 51.92049 21.29141 51.92887 20.375 51.9375 C19.02922 51.94427 19.02922 51.94427 17.65625 51.95117 C15.43743 51.96297 13.21875 51.97944 11 52 C11.00524 52.93385 11.01047 53.86769 11.01587 54.82983 C11.03392 58.28311 11.04543 61.73639 11.05493 65.1897 C11.05997 66.68645 11.0668 68.1832 11.07544 69.67993 C11.08752 71.827 11.09323 73.974 11.09766 76.12109 C11.10282 76.79402 11.10798 77.46695 11.1133 78.16026 C11.11349 79.77395 11.06186 81.3875 11 83 C10.505 83.495 10.505 83.495 10 84 C6.7 84 3.4 84 0 84 C0 56.28 0 28.56 0 0 Z " fill="#0D0D0D" transform="translate(863,1007)"/>
<path d="M0 0 C39 0 39 0 49 6 C54.96491 11.96491 57.18806 16.03547 57.32129 24.48755 C57.28478 34.14567 57.28478 34.14567 56 38 C55.34 38 54.68 38 54 38 C53.32871 39.33101 52.66288 40.66478 52 42 C50.34375 43.70312 50.34375 43.70312 48.5 45.25 C47.58734 46.03117 47.58734 46.03117 46.65625 46.82812 C45 48 45 48 43 48 C43.30293 48.66645 43.60586 49.33289 43.91797 50.01953 C44.79786 51.95528 45.67669 53.89151 46.55469 55.82812 C47.51038 57.92547 48.4738 60.01931 49.44531 62.10938 C49.89648 63.08391 50.34766 64.05844 50.8125 65.0625 C51.23145 65.96098 51.65039 66.85945 52.08203 67.78516 C53 70 53 70 53 72 C53.66 72 54.32 72 55 72 C56.84838 75.19911 58 77.27127 58 81 C58.66 81 59.32 81 60 81 C60 81.66 60 82.32 60 83 C55.64505 83.95596 51.19792 84.85294 47 83 C43.43385 79.15372 41.71915 73.95366 39.85107 69.13281 C38.45333 65.63004 36.81638 62.3032 35 59 C34.65671 58.34886 34.31341 57.69772 33.95972 57.02686 C31.72792 53.32213 29.77957 51.53304 25.60938 50.22656 C21.5406 49.52098 17.68816 49.09828 13.72461 50.42334 C10.67312 53.21305 10.78224 57.03094 10.55072 60.94025 C10.37338 66.67518 10.53133 72.43682 10.91962 78.16084 C11.01691 79.77118 11.0181 81.38683 11 83 C9 84 9 84 0 84 C0 56.28 0 28.56 0 0 Z " fill="#0C0C0C" transform="translate(1214,1007)"/>
<path d="M0 0 C0.18545 9.43133 0.32755 18.86222 0.4145 28.29499 C0.45623 32.67526 0.51282 37.05429 0.60352 41.43384 C0.69052 45.66146 0.73829 49.88788 0.75902 54.11633 C0.77379 55.72843 0.80263 57.34046 0.84584 58.95205 C1.17122 71.59204 1.17122 71.59204 -1.71489 75.06152 C-3.79036 76.38335 -5.67658 77.21272 -8 78 C-9.14176 78.59801 -10.27551 79.21202 -11.39453 79.85156 C-12.53275 80.44484 -13.67211 81.03592 -14.8125 81.625 C-21.93012 85.34432 -28.85528 89.3636 -35.74146 93.49463 C-36.51256 93.95015 -37.28366 94.40567 -38.07812 94.875 C-38.76294 95.28492 -39.44775 95.69484 -40.15332 96.11719 C-42 97 -42 97 -45 97 C-45.20877 87.71643 -45.36856 78.43341 -45.46631 69.14797 C-45.51323 64.83592 -45.57683 60.52548 -45.67896 56.21436 C-45.77694 52.05153 -45.8306 47.89025 -45.8539 43.72637 C-45.87049 42.14016 -45.90291 40.55403 -45.95157 38.96849 C-46.31659 26.57999 -46.31659 26.57999 -43.14977 22.77962 C-40.82766 21.19839 -38.5895 20.07768 -36 19 C-34.92761 18.38675 -33.86278 17.75986 -32.8103 17.11304 C-31.86099 16.58976 -30.91167 16.06648 -29.93359 15.52734 C-29.4104 15.23695 -28.88721 14.94655 -28.34816 14.64735 C-26.71325 13.74043 -25.07565 12.83854 -23.4375 11.9375 C-21.26801 10.74102 -19.10018 9.54157 -16.93359 8.33984 C-16.15827 7.91148 -16.15827 7.91148 -15.36728 7.47446 C-11.67335 5.41855 -8.1103 3.21264 -4.60571 0.84985 C-3 0 -3 0 0 0 Z " fill="#F8F8F8" transform="translate(993,413)"/>
<path d="M0 0 C1.97909 -0.02687 3.95829 -0.04633 5.9375 -0.0625 C7.03965 -0.0741 8.1418 -0.0857 9.27734 -0.09766 C12 0 12 0 13 1 C13.39287 2.81683 13.73303 4.6451 14.05078 6.47656 C14.25446 7.62716 14.45841 8.77771 14.6626 9.92822 C14.76856 10.53241 14.87453 11.1366 14.9837 11.75909 C17.27143 24.74183 19.97619 37.339 24.34375 49.80078 C25.41125 53.37818 25.97999 57.03307 26.57031 60.71484 C26.89556 63.01964 26.89556 63.01964 28 65 C31.01262 56.60515 33.576 48.39506 35.01099 39.57397 C35.27555 38.03668 35.62825 36.51495 36 35 C36.66 35 37.32 35 38 35 C38.21316 33.04601 38.41671 31.09076 38.58984 29.13281 C39.13017 25.00571 40.00795 20.99236 40.9375 16.9375 C41.1075 16.16285 41.27749 15.38821 41.45264 14.59009 C41.62167 13.86813 41.79069 13.14618 41.96484 12.40234 C42.11558 11.74742 42.26632 11.0925 42.42163 10.41772 C42.61249 9.94988 42.80335 9.48203 43 9 C43.66 9 44.32 9 45 9 C44.96724 7.6656 44.89807 6.33205 44.8125 5 C44.99609 2.83984 44.99609 2.83984 46 1 C50.71621 -0.75321 54.15071 -0.73247 59 1 C59.96047 3.36488 60.30522 4.88262 60.56641 7.35547 C60.77556 8.72962 60.99278 10.10256 61.2168 11.47437 C61.33426 12.20888 61.45173 12.94339 61.57275 13.70016 C62.32378 17.74291 63.48137 21.6642 64.62891 25.60938 C64.86609 26.4359 65.10328 27.26243 65.34766 28.114 C66.08087 30.66083 66.82074 33.20564 67.5625 35.75 C68.54928 39.13884 69.53072 42.52911 70.50391 45.92188 C70.73389 46.72097 70.96388 47.52007 71.20084 48.34338 C72.69247 53.62694 73.82953 58.82326 74.55835 64.27051 C74.70409 64.84124 74.84984 65.41197 75 66 C75.66 66 76.32 66 77 66 C77.3655 64.26105 77.3655 64.26105 77.44141 62.07812 C77.89599 56.98918 79.27451 52.55771 80.9375 47.75 C83.12074 41.16244 84.70082 34.96435 85.57422 28.07422 C86.04907 24.64569 86.7284 21.30942 87.5 17.9375 C87.73719 16.89465 87.97438 15.8518 88.21875 14.77734 C88.91964 12.28567 89.83873 10.29362 91 8 C91.40578 6.13658 91.40578 6.13658 91.5625 4.3125 C92 1 92 1 93 0 C95.01964 -0.07244 97.04167 -0.08377 99.0625 -0.0625 C100.16723 -0.05348 101.27195 -0.04445 102.41016 -0.03516 C103.2648 -0.02355 104.11945 -0.01195 105 0 C105 1.32 105 2.64 105 4 C104.34 4 103.68 4 103 4 C102.40711 6.66051 102.40711 6.66051 102.0625 9.9375 C101.42143 14.78557 100.41936 19.202 98.72266 23.78906 C97.61884 27.16613 97.08715 30.62613 96.52734 34.12891 C96.35332 34.74637 96.1793 35.36383 96 36 C95.34 36 94.68 36 94 36 C93.63621 37.90982 93.63621 37.90982 93.5625 40.3125 C93.10555 46.01619 92.12158 51.66052 90 57 C89.34 57 88.68 57 88 57 C87.71415 59.00725 87.71415 59.00725 87.6875 61.5625 C87.07389 69.0232 85.93444 76.5308 82 83 C78.1211 84.46648 74.94082 84.17399 71 83 C68.72616 80.72616 68.50873 79.67359 67.81641 76.59766 C67.61257 75.71223 67.40874 74.82681 67.19873 73.91455 C66.98877 72.97337 66.77882 72.0322 66.5625 71.0625 C66.11963 69.14427 65.67563 67.2263 65.23047 65.30859 C65.01826 64.38804 64.80604 63.46749 64.5874 62.51904 C63.0734 56.02632 61.46029 49.73343 58.67969 43.65625 C57.7016 41.27287 57.18148 38.83012 56.60547 36.32422 C55.56343 32.32414 54.15855 28.44253 52.80469 24.53906 C52 22 52 22 52 20 C51.34 20 50.68 20 50 20 C49.41703 22.48814 49.41703 22.48814 49.08594 25.62109 C48.18444 32.3038 46.74521 38.75529 45.07812 45.28442 C44.62478 47.06335 44.18289 48.84485 43.74219 50.62695 C42.06549 57.31936 40.14038 63.81074 37.79028 70.30347 C36.95067 73.16833 36.70842 75.7755 36.5625 78.75 C36.15625 81.15625 36.15625 81.15625 35 83 C30.35109 84.54964 26.65615 84.51581 22 83 C19.7702 79.93479 19.52748 76.69237 19 73 C18.555 71.61356 18.07637 70.23741 17.5625 68.875 C14.10575 58.61335 11.93403 47.91371 9.72266 37.32812 C8.80378 33.09632 7.74286 28.90817 6.64844 24.71875 C6 22 6 22 5.53906 18.65625 C5.36117 17.77969 5.18328 16.90313 5 16 C4.34 16 3.68 16 3 16 C2.14844 13.51562 2.14844 13.51562 1.375 10.25 C1.11461 9.18266 0.85422 8.11531 0.58594 7.01562 C0.10802 4.55593 -0.13271 2.48539 0 0 Z " fill="#0F0F0F" transform="translate(350,1007)"/>
<path d="M0 0 C5.22859 -0.1246 10.4563 -0.2148 15.68604 -0.27466 C17.46093 -0.29964 19.23572 -0.33363 21.01025 -0.3772 C41.70979 -0.87226 41.70979 -0.87226 50.11646 6.97583 C56.4808 13.61321 58.5472 19.52712 58.48804 28.65894 C58.13197 36.64019 54.94017 42.50699 49.125 47.9375 C41.37271 54.5383 33.73242 54.38783 24.0625 54.1875 C22.79364 54.17243 21.52475 54.15874 20.25586 54.14648 C17.17021 54.11368 14.08522 54.06204 11 54 C11.00524 54.87326 11.01047 55.74652 11.01587 56.64624 C11.03392 59.87588 11.04543 63.10552 11.05493 66.33521 C11.05997 67.73495 11.0668 69.13469 11.07544 70.53442 C11.08752 72.54249 11.09323 74.55049 11.09766 76.55859 C11.10282 77.18777 11.10798 77.81695 11.1133 78.46519 C11.11349 79.97727 11.06179 81.48919 11 83 C10 84 10 84 7.96875 84.13281 C7.15406 84.13023 6.33938 84.12766 5.5 84.125 C4.68531 84.12758 3.87063 84.13016 3.03125 84.13281 C1 84 1 84 0 83 C-0.09508 80.41361 -0.12556 77.85401 -0.11353 75.26733 C-0.11367 74.45764 -0.11382 73.64795 -0.11397 72.81372 C-0.11327 70.12448 -0.10548 67.43532 -0.09766 64.74609 C-0.09579 62.88664 -0.09437 61.02719 -0.09337 59.16774 C-0.08954 54.26371 -0.07971 49.35971 -0.06866 44.45569 C-0.05845 39.45549 -0.05387 34.45528 -0.04883 29.45508 C-0.03809 19.63671 -0.02101 9.81836 0 0 Z " fill="#0C0C0C" transform="translate(693,1007)"/>
<path d="M0 0 C3.23828 0.15625 3.23828 0.15625 6.125 1.0625 C8.87136 4.36531 9.93444 7.97828 11.125 12.0625 C11.62408 13.47949 12.12401 14.89618 12.625 16.3125 C13.12541 17.89571 13.62535 19.47906 14.125 21.0625 C14.71575 22.83632 15.31367 24.60766 15.91138 26.37915 C17.81304 32.02568 19.66746 37.68576 21.4375 43.375 C21.76363 44.42301 22.08977 45.47102 22.42578 46.55078 C23.125 49.0625 23.125 49.0625 23.125 51.0625 C23.785 51.0625 24.445 51.0625 25.125 51.0625 C27.97745 56.3997 29.57829 62.22332 30.63281 68.15234 C31.01992 70.09457 31.01992 70.09457 32.17969 71.62891 C33.125 73.0625 33.125 73.0625 33.125 76.0625 C33.785 76.0625 34.445 76.0625 35.125 76.0625 C35.79297 77.77734 35.79297 77.77734 36.3125 80 C36.49168 80.7309 36.67086 81.4618 36.85547 82.21484 C36.94441 82.82457 37.03336 83.4343 37.125 84.0625 C35.38396 85.80354 33.05136 85.27561 30.6875 85.3125 C29.69879 85.33828 28.71008 85.36406 27.69141 85.39062 C25.125 85.0625 25.125 85.0625 24.04517 83.7998 C23.02209 81.86821 22.41881 80.04435 21.83594 77.9375 C21.6168 77.14859 21.39766 76.35969 21.17188 75.54688 C20.8393 74.31711 20.8393 74.31711 20.5 73.0625 C20.27055 72.24266 20.04109 71.42281 19.80469 70.57812 C18.125 64.45926 18.125 64.45926 18.125 61.0625 C13.19384 60.93356 8.26902 60.87632 3.33618 60.8855 C1.6589 60.87852 -0.01842 60.85194 -1.69507 60.80542 C-9.42237 60.423 -9.42237 60.423 -16.875 62.0625 C-18.87867 65.035 -19.30928 67.14879 -19.64526 70.698 C-19.72108 71.47828 -19.79689 72.25857 -19.875 73.0625 C-20.535 73.0625 -21.195 73.0625 -21.875 73.0625 C-22.13449 74.71678 -22.38587 76.37479 -22.53125 78.04297 C-22.98572 80.71299 -23.50951 82.70319 -24.875 85.0625 C-27.47656 85.55078 -27.47656 85.55078 -30.5 85.375 C-31.50289 85.32988 -32.50578 85.28477 -33.53906 85.23828 C-34.30992 85.18027 -35.08078 85.12227 -35.875 85.0625 C-36.12477 81.52415 -35.25221 78.92005 -34 75.625 C-33.65195 74.69816 -33.30391 73.77133 -32.94531 72.81641 C-32.59211 71.90762 -32.23891 70.99883 -31.875 70.0625 C-31.37613 68.65291 -31.37613 68.65291 -30.86719 67.21484 C-30.53977 66.50457 -30.21234 65.7943 -29.875 65.0625 C-29.215 65.0625 -28.555 65.0625 -27.875 65.0625 C-27.66236 63.53861 -27.45889 62.01319 -27.28516 60.48438 C-26.74435 57.29103 -25.86643 54.22213 -24.9375 51.125 C-24.7675 50.53308 -24.59751 49.94116 -24.42236 49.3313 C-23.97883 47.88421 -23.43529 46.46851 -22.875 45.0625 C-22.215 45.0625 -21.555 45.0625 -20.875 45.0625 C-20.97812 44.27875 -21.08125 43.495 -21.1875 42.6875 C-21.20717 38.48834 -19.10133 35.38605 -17.17188 31.76562 C-15.47377 28.2262 -14.57269 24.66284 -13.62109 20.86719 C-12.58954 16.98942 -11.26885 13.26068 -9.8125 9.52344 C-8.85662 7.16397 -8.85662 7.16397 -8.375 5.03906 C-7.04411 0.60971 -4.11825 0.41283 0 0 Z " fill="#0E0E0E" transform="translate(800.875,1005.9375)"/>
<path d="M0 0 C1.78005 -0.10291 3.56179 -0.17688 5.34375 -0.23828 C6.33568 -0.28251 7.32762 -0.32674 8.34961 -0.37231 C11 0 11 0 12.55859 1.78711 C13.5 3.8125 13.5 3.8125 14.21875 5.95703 C15.11365 8.29718 16.19909 9.28781 18 11 C18.98803 12.41725 19.9447 13.8567 20.875 15.3125 C22.61212 17.97154 24.33494 20.49488 26.4375 22.875 C29.51779 26.42382 31.88369 30.42751 34.35156 34.41406 C35.80943 36.70106 37.36157 38.84173 39 41 C39.47438 41.80437 39.94875 42.60875 40.4375 43.4375 C41.96531 46.06498 41.96531 46.06498 44 48.5 C46 51 46 51 47.375 53.375 C48.81758 55.70531 50.31106 57.60329 52.10156 59.66406 C52.91488 60.60306 52.91488 60.60306 53.74463 61.56104 C54.1589 62.03589 54.57317 62.51075 55 63 C54.99032 62.22326 54.98064 61.44652 54.97067 60.64624 C54.88851 53.34663 54.85375 46.04869 54.87303 38.74861 C54.88125 34.99474 54.87076 31.24281 54.81836 27.48926 C54.76851 23.87034 54.76671 20.25437 54.79905 16.63528 C54.80281 15.25084 54.7889 13.86624 54.7575 12.48215 C54.71659 10.5485 54.73709 8.62493 54.77295 6.69141 C54.76851 5.58998 54.76407 4.48856 54.75949 3.35376 C55.16886 2.57702 55.57823 1.80028 56 1 C59.3 1 62.6 1 66 1 C66 28.06 66 55.12 66 83 C55 83 55 83 52.60547 81.12891 C51.90357 79.85854 51.90357 79.85854 51.1875 78.5625 C50.65383 77.65629 50.12016 76.75008 49.57031 75.81641 C48.79301 74.42229 48.79301 74.42229 48 73 C46.86649 71.32493 45.72145 69.65757 44.5625 68 C42 64.25326 42 64.25326 42 62 C41.34 62 40.68 62 40 62 C38.91406 60.375 38.91406 60.375 37.625 58 C34.25292 52.13039 30.22059 46.86034 26.05127 41.53516 C25.54322 40.87645 25.03517 40.21773 24.51172 39.53906 C23.82276 38.66049 23.82276 38.66049 23.11987 37.76416 C22 36 22 36 21.46802 33.77881 C21.31357 33.1918 21.15913 32.60479 21 32 C20.34 32 19.68 32 19 32 C17.49219 29.88281 17.49219 29.88281 15.875 27.125 C15.33617 26.22008 14.79734 25.31516 14.24219 24.38281 C13 22 13 22 13 20 C12.34 20 11.68 20 11 20 C11.00666 20.78705 11.01332 21.5741 11.02019 22.38499 C11.08019 29.78687 11.12592 37.18867 11.15544 44.59073 C11.17112 48.39661 11.19241 52.20229 11.22632 56.00806 C11.25881 59.67794 11.27683 63.34764 11.28463 67.01766 C11.29019 68.42078 11.30105 69.82389 11.31719 71.22693 C11.33884 73.18594 11.34197 75.14415 11.34058 77.10327 C11.34724 78.22024 11.3539 79.33721 11.36076 80.48802 C11.24171 81.31697 11.12266 82.14593 11 83 C7.37539 84.2082 4.80866 84.14106 1 84 C-0.75439 82.24561 -0.11983 79.94503 -0.12442 77.60829 C-0.12082 76.83578 -0.11723 76.06326 -0.11353 75.26733 C-0.11367 74.45764 -0.11382 73.64795 -0.11397 72.81372 C-0.11327 70.12448 -0.10548 67.43532 -0.09766 64.74609 C-0.09579 62.88664 -0.09437 61.02719 -0.09337 59.16774 C-0.08954 54.26371 -0.07971 49.35971 -0.06866 44.45569 C-0.05845 39.45549 -0.05387 34.45528 -0.04883 29.45508 C-0.03809 19.63671 -0.02101 9.81836 0 0 Z " fill="#0D0D0D" transform="translate(1034,1007)"/>
<path d="M0 0 C12.59156 -0.03094 12.59156 -0.03094 25.4375 -0.0625 C28.09095 -0.0716 30.74441 -0.08071 33.47827 -0.09009 C35.56755 -0.09301 37.65682 -0.09556 39.74609 -0.09766 C40.84216 -0.10277 41.93823 -0.10789 43.0675 -0.11316 C44.10282 -0.11328 45.13814 -0.1134 46.20483 -0.11353 C47.10862 -0.11575 48.01241 -0.11797 48.94359 -0.12025 C51 0 51 0 52 1 C52.09791 2.49738 52.12975 3.99943 52.125 5.5 C52.12887 6.72203 52.12887 6.72203 52.13281 7.96875 C52 10 52 10 51 11 C49.39915 11.12025 49.39915 11.12025 47.3064 11.11353 C46.1353 11.11341 46.1353 11.11341 44.94054 11.1133 C44.09262 11.10814 43.2447 11.10297 42.37109 11.09766 C41.07475 11.09553 41.07475 11.09553 39.75221 11.09337 C36.98061 11.08775 34.20908 11.0752 31.4375 11.0625 C29.56315 11.05749 27.6888 11.05292 25.81445 11.04883 C21.20961 11.03778 16.60481 11.02102 12 11 C12.00524 11.68626 12.01047 12.37253 12.01587 13.07959 C12.03661 16.17805 12.04965 19.2765 12.0625 22.375 C12.07088 23.45523 12.07926 24.53547 12.08789 25.64844 C12.09111 26.67969 12.09434 27.71094 12.09766 28.77344 C12.10289 29.72654 12.10813 30.67964 12.11353 31.66162 C12 34 12 34 11 36 C12.1459 35.99476 13.29179 35.98953 14.47241 35.98413 C18.70841 35.96608 22.9444 35.95457 27.18042 35.94507 C29.01669 35.94003 30.85295 35.9332 32.68921 35.92456 C35.32276 35.91248 37.95627 35.90677 40.58984 35.90234 C41.41589 35.89718 42.24193 35.89202 43.093 35.8867 C44.23407 35.88659 44.23407 35.88659 45.39819 35.88647 C46.07104 35.88425 46.74388 35.88203 47.43712 35.87975 C49 36 49 36 50 37 C50 40.3 50 43.6 50 47 C37.13 47 24.26 47 11 47 C11 55.91 11 64.82 11 74 C24.2 74 37.4 74 51 74 C51 77.3 51 80.6 51 84 C34.17 84 17.34 84 0 84 C0 56.28 0 28.56 0 0 Z " fill="#171717" transform="translate(1133,1007)"/>
<path d="M0 0 C16.83 0 33.66 0 51 0 C51 2.97 51 5.94 51 9 C37.47 9 23.94 9 10 9 C10 17.91 10 26.82 10 36 C22.54 36 35.08 36 48 36 C48 38.97 48 41.94 48 45 C44.8225 45.65574 43.04644 45.59929 39.90625 45.18359 C38.2144 45.05716 36.52197 44.93824 34.8291 44.82617 C33.95193 44.75842 33.07477 44.69066 32.17102 44.62085 C21.40951 43.74712 21.40951 43.74712 11 46 C6.80326 50.48335 6.23164 54.88598 6.2583 60.85956 C6.5056 64.62669 7.3135 67.81823 9.61938 70.85712 C15.92826 76.07965 28.58993 73.72555 36.11816 73.17383 C37.46307 73.08935 37.46307 73.08935 38.83514 73.00316 C40.57905 72.8795 42.32033 72.70945 44.05499 72.49159 C46.41992 72.29907 46.41992 72.29907 50 73 C50 75.97 50 78.94 50 82 C33.5 82 17 82 0 82 C0 54.94 0 27.88 0 0 Z " fill="#040404" transform="translate(479,1008)"/>
<path d="M0 0 C8.1969 -0.02313 16.3938 -0.04092 24.59073 -0.05181 C28.39652 -0.05704 32.20228 -0.06414 36.00806 -0.07544 C39.67793 -0.08627 43.34777 -0.09228 47.01766 -0.09488 C48.42075 -0.09673 49.82384 -0.10035 51.22693 -0.10573 C53.18573 -0.11294 55.14445 -0.11399 57.10327 -0.11353 C58.22024 -0.11575 59.33721 -0.11797 60.48802 -0.12025 C63 0 63 0 64 1 C64.13281 2.8125 64.13281 2.8125 64.125 5 C64.12887 6.08281 64.12887 6.08281 64.13281 7.1875 C64 9 64 9 63 10 C54.42 10 45.84 10 37 10 C37 34.09 37 58.18 37 83 C33.37 83 29.74 83 26 83 C26 58.91 26 34.82 26 10 C17.42 10 8.84 10 0 10 C0 6.7 0 3.4 0 0 Z " fill="#0F0F0F" transform="translate(944,1007)"/>
<path d="M0 0 C0.6907 8.10912 1.12144 16.19978 0.89062 24.33984 C0.89128 25.3641 0.89128 25.3641 0.89195 26.40904 C0.72298 30.27363 0.0745 32.36752 -2.70801 35.13135 C-4.98694 37.0174 -7.00246 38.25404 -9.875 39.05859 C-16.26072 41.24518 -21.74995 44.90135 -27.46371 48.42627 C-30.43409 50.25181 -33.42623 52.03931 -36.42578 53.81641 C-36.95853 54.13771 -37.49127 54.45901 -38.04016 54.79005 C-41.77077 57 -41.77077 57 -44 57 C-46.49853 29.49936 -46.49853 29.49936 -42.78418 22.81055 C-39.3521 19.5766 -35.01482 18.36279 -30.59473 16.97021 C-25.46059 15.05047 -20.90721 11.9798 -16.25 9.125 C-14.3808 8.02243 -12.51105 6.92081 -10.64062 5.82031 C-8.25578 4.4124 -6.0257 3.0199 -3.83496 1.32373 C-2 0 -2 0 0 0 Z " fill="#060606" transform="translate(1020,580)"/>
<path d="M0 0 C3.02179 2.50441 3.79312 4.88311 4.82422 8.62109 C5.28345 10.27142 5.28345 10.27142 5.75195 11.95508 C5.90543 12.52686 6.05891 13.09864 6.21704 13.68774 C6.68584 15.43131 7.17068 17.16979 7.6582 18.9082 C10.20671 28.19478 10.20671 28.19478 10 32 C10.66 32 11.32 32 12 32 C12.74609 33.76904 12.74609 33.76904 13.4375 36.24219 C13.69273 37.14453 13.94797 38.04688 14.21094 38.97656 C14.47133 39.93305 14.73172 40.88953 15 41.875 C15.26039 42.79281 15.52078 43.71063 15.78906 44.65625 C17.49226 50.76369 18.74764 56.73822 20 63 C6.14 63 -7.72 63 -22 63 C-21.34 60.69 -20.68 58.38 -20 56 C-19.34 56 -18.68 56 -18 56 C-17.59261 54.0047 -17.59261 54.0047 -17.375 51.375 C-16.29257 44.12188 -13.82402 37.58384 -11.25122 30.73901 C-8.35513 23.03335 -5.70942 15.2681 -3.17114 7.43774 C-2.89939 6.60622 -2.62764 5.77469 -2.34766 4.91797 C-1.992 3.81618 -1.992 3.81618 -1.62915 2.69214 C-1 1 -1 1 0 0 Z " fill="#F6F7F6" transform="translate(580,829)"/>
<path d="M0 0 C0.66 0 1.32 0 2 0 C2.66605 3.10821 3.02895 6.22333 3.4375 9.375 C3.62313 10.24125 3.80875 11.1075 4 12 C4.66 12 5.32 12 6 12 C6.93146 14.25026 7.71002 16.43263 8.4375 18.75 C8.65632 19.42797 8.87514 20.10593 9.10059 20.80444 C11.3394 27.8557 13.45691 34.99703 14.45312 42.33984 C14.63359 43.2177 14.81406 44.09555 15 45 C15.66 45 16.32 45 17 45 C17.98909 47.43676 18.83491 49.81131 19.625 52.3125 C19.96918 53.34794 19.96918 53.34794 20.32031 54.4043 C21.31158 57.45776 22 59.75306 22 63 C8.47 63 -5.06 63 -19 63 C-17.87306 52.85751 -17.87306 52.85751 -16.22266 47.87109 C-15.87396 46.81729 -15.52527 45.76348 -15.16602 44.67773 C-14.80186 43.60846 -14.4377 42.53918 -14.0625 41.4375 C-13.69796 40.32246 -13.33402 39.20723 -12.9707 38.0918 C-12.62072 37.04959 -12.27074 36.00738 -11.91016 34.93359 C-11.59184 33.98541 -11.27352 33.03722 -10.94556 32.0603 C-10.63352 31.3804 -10.32149 30.7005 -10 30 C-9.34 30 -8.68 30 -8 30 C-7.38781 28.29718 -7.38781 28.29718 -7.03516 26.12109 C-6.01822 21.04637 -4.75982 16.06532 -3.4375 11.0625 C-3.21643 10.21365 -2.99535 9.3648 -2.76758 8.49023 C-2.55424 7.68006 -2.3409 6.86988 -2.12109 6.03516 C-1.83383 4.9428 -1.83383 4.9428 -1.54077 3.82837 C-1 2 -1 2 0 0 Z " fill="#F5F5F5" transform="translate(1057,829)"/>
<path d="M0 0 C1.01707 -0.03738 2.03414 -0.07477 3.08203 -0.11328 C10.19332 -0.19544 15.34804 0.89655 21 5.375 C24.60789 9.74061 24.61972 13.80475 24.48438 19.29297 C23.70952 24.22332 21.46609 27.83373 18 31.375 C14.21032 34.07602 11.67342 34.73921 7.04297 34.66797 C5.93115 34.6583 4.81934 34.64863 3.67383 34.63867 C2.52334 34.61354 1.37285 34.5884 0.1875 34.5625 C-0.99412 34.54744 -2.17577 34.53375 -3.35742 34.52148 C-6.23875 34.4862 -9.11914 34.4369 -12 34.375 C-12.02465 29.69361 -12.04284 25.01225 -12.05493 20.33081 C-12.05997 18.73705 -12.0668 17.1433 -12.07544 15.54956 C-12.08752 13.2635 -12.09323 10.9775 -12.09766 8.69141 C-12.10282 7.97473 -12.10798 7.25806 -12.1133 6.51967 C-12.11349 4.80436 -12.06192 3.08919 -12 1.375 C-9.54095 -1.08405 -3.29455 0.04458 0 0 Z " fill="#F9F9F9" transform="translate(716,1016.625)"/>
<path d="M0 0 C1.60972 -0.05607 1.60972 -0.05607 3.25195 -0.11328 C10.07334 -0.18847 15.38569 0.44668 20.4375 5.375 C23.42736 10.3859 22.92384 15.70606 22.4375 21.375 C21.25818 26.03698 18.36349 28.72496 14.4375 31.375 C11.39985 32.38755 9.32588 32.50401 6.14844 32.50781 C4.61316 32.50975 4.61316 32.50975 3.04688 32.51172 C1.97953 32.50785 0.91219 32.50398 -0.1875 32.5 C-1.26258 32.50387 -2.33766 32.50773 -3.44531 32.51172 C-4.46625 32.51043 -5.48719 32.50914 -6.53906 32.50781 C-7.47831 32.50668 -8.41755 32.50556 -9.38525 32.50439 C-11.5625 32.375 -11.5625 32.375 -12.5625 31.375 C-12.66318 29.1562 -12.70225 26.96921 -12.69531 24.75 C-12.69627 24.08791 -12.69723 23.42581 -12.69821 22.74365 C-12.69889 21.34147 -12.69704 19.93929 -12.69287 18.53711 C-12.68752 16.38404 -12.69282 14.23118 -12.69922 12.07812 C-12.69856 10.71875 -12.69728 9.35937 -12.69531 8 C-12.69734 7.35208 -12.69936 6.70417 -12.70145 6.03662 C-12.65831 -2.13685 -6.90095 0.08894 0 0 Z " fill="#FAFAFA" transform="translate(886.5625,1016.625)"/>
<path d="M0 0 C3.57423 -0.14955 7.14722 -0.25776 10.72388 -0.32959 C11.93742 -0.35956 13.15074 -0.40036 14.36353 -0.45264 C25.72381 -0.92968 25.72381 -0.92968 30.21484 2.83594 C33.96281 6.68371 35.31894 9.24078 35.4375 14.6875 C35.33815 20.54937 34.14248 24.75524 30 29 C26.29421 31.61241 23.81386 32.37151 19.29688 32.32812 C18.23469 32.32297 17.1725 32.31781 16.07812 32.3125 C14.97984 32.29187 13.88156 32.27125 12.75 32.25 C11.63625 32.24484 10.5225 32.23969 9.375 32.23438 C1.15417 32.15417 1.15417 32.15417 0 31 C-0.08835 28.69691 -0.11532 26.42405 -0.09766 24.12109 C-0.09624 23.43443 -0.09483 22.74777 -0.09337 22.0403 C-0.08775 19.83932 -0.0752 17.63845 -0.0625 15.4375 C-0.05749 13.94857 -0.05292 12.45964 -0.04883 10.9707 C-0.03778 7.31376 -0.02051 3.6569 0 0 Z " fill="#F7F8F7" transform="translate(1225,1017)"/>
<path d="M0 0 C1.80883 -0.00964 3.61649 -0.04061 5.42505 -0.07227 C12.66865 -0.10477 16.95763 0.20141 22.82544 4.45898 C25.84981 7.7008 26.55616 10.37381 26.77075 14.80273 C26.60986 18.3912 26.38713 20.69452 23.83325 23.30273 C22.50294 24.2618 22.50294 24.2618 21.14575 25.24023 C20.67138 25.65273 20.197 26.06523 19.70825 26.49023 C13.9137 29.27162 6.56426 28.38836 0.33325 28.36523 C-1.25906 28.37104 -1.25906 28.37104 -2.88354 28.37695 C-4.39465 28.37502 -4.39465 28.37502 -5.93628 28.37305 C-6.85643 28.37192 -7.77658 28.37079 -8.72461 28.36963 C-10.85425 28.24023 -10.85425 28.24023 -11.85425 27.24023 C-11.95397 25.32565 -11.98505 23.40741 -11.98706 21.49023 C-11.98802 20.91692 -11.98897 20.34361 -11.98996 19.75293 C-11.99064 18.53906 -11.98879 17.32519 -11.98462 16.11133 C-11.97927 14.24796 -11.98457 12.38484 -11.99097 10.52148 C-11.99031 9.3444 -11.98902 8.16732 -11.98706 6.99023 C-11.98593 5.91258 -11.9848 4.83492 -11.98364 3.72461 C-11.68148 -2.077 -4.53214 0.01461 0 0 Z " fill="#F4F4F4" transform="translate(582.854248046875,1052.759765625)"/>
<path d="M0 0 C1.12922 -0.04576 2.25844 -0.09152 3.42188 -0.13867 C12.82694 -0.26532 12.82694 -0.26532 17.11719 3.33984 C21.35503 7.64114 21.38455 11.53615 21.36328 17.44141 C20.80969 20.83822 20.13502 21.90993 17.5625 24.125 C13.54508 26.98015 10.20558 27.56094 5.33203 27.53516 C4.25889 27.53193 3.18574 27.52871 2.08008 27.52539 C0.96053 27.51701 -0.15902 27.50863 -1.3125 27.5 C-2.44365 27.49549 -3.5748 27.49098 -4.74023 27.48633 C-7.53521 27.47453 -10.33008 27.45808 -13.125 27.4375 C-13.14966 23.75302 -13.16784 20.06858 -13.17993 16.38403 C-13.18497 15.12979 -13.1918 13.87556 -13.20044 12.62134 C-13.21253 10.82176 -13.21823 9.02226 -13.22266 7.22266 C-13.22789 6.13864 -13.23313 5.05461 -13.23853 3.93774 C-12.9664 -2.05543 -4.61721 0.07489 0 0 Z " fill="#F1F2F1" transform="translate(584.125,1016.5625)"/>
<path d="M0 0 C0.66 0 1.32 0 2 0 C4.73654 5.13101 5.66242 10.10644 6.47266 15.83984 C6.64668 16.5527 6.8207 17.26555 7 18 C7.66 18 8.32 18 9 18 C9.96765 20.22771 10.78978 22.39226 11.5625 24.6875 C11.78357 25.31334 12.00465 25.93918 12.23242 26.58398 C13.44806 30.09134 14.26233 33.31164 15 37 C5.76 37 -3.48 37 -13 37 C-12.19067 32.95337 -11.15033 29.28748 -9.75 25.4375 C-9.5311 24.82906 -9.3122 24.22062 -9.08667 23.59375 C-7.2548 18.56412 -5.23285 13.63449 -3.11328 8.71875 C-1.92202 5.92919 -1.92202 5.92919 -0.98047 2.65625 C-0.65691 1.77969 -0.33336 0.90313 0 0 Z " fill="#ECECEC" transform="translate(800,1021)"/>
<path d="M0 0 C2.57566 -0.47919 4.51859 -0.58407 7.09766 -0.48828 C8.16094 -0.47767 8.16094 -0.47767 9.24571 -0.46684 C11.51903 -0.43876 13.78992 -0.37601 16.0625 -0.3125 C17.59957 -0.28743 19.13669 -0.26462 20.67383 -0.24414 C24.45016 -0.18889 28.22467 -0.10253 32 0 C32 1.65 32 3.3 32 5 C31.96785 4.34354 31.93571 3.68709 31.90259 3.01074 C31.60473 2.3472 31.30688 1.68365 31 1 C28.68916 0.69836 26.85552 0.6729 24.55859 0.82812 C23.59519 0.86991 23.59519 0.86991 22.61232 0.91254 C20.55264 1.00622 18.49566 1.12779 16.4375 1.25 C15.04501 1.31824 13.65243 1.38467 12.25977 1.44922 C8.83778 1.60838 5.42088 1.80513 2 2 C2.33 7.61 2.66 13.22 3 19 C0.96617 15.94926 0.45833 14.16977 -0.1875 10.625 C-0.45627 9.22121 -0.45627 9.22121 -0.73047 7.78906 C-1.02558 4.7353 -1.16391 2.85534 0 0 Z " fill="#777777" transform="translate(1149,907)"/>
<path d="M0 0 C1.5625 1.25 1.5625 1.25 3 3 C2.6875 5.1875 2.6875 5.1875 2 7 C2 6.34 2 5.68 2 5 C-0.32283 6.37258 -1.62742 7.67717 -3 10 C-2.14286 2.42857 -2.14286 2.42857 0 0 Z " fill="#9C9C9C" transform="translate(580,829)"/>
<path d="M0 0 C0.66 0 1.32 0 2 0 C3.1875 1.25 3.1875 1.25 4 3 C3.625 5.1875 3.625 5.1875 3 7 C3 6.01 3 5.02 3 4 C1.02 4.99 1.02 4.99 -1 6 C-0.625 3 -0.625 3 0 0 Z " fill="#A9A9A9" transform="translate(800,1021)"/>
<path d="M0 0 C0.99 0.33 1.98 0.66 3 1 C3 1.66 3 2.32 3 3 C0.5 4.625 0.5 4.625 -2 6 C-1.34 4.02 -0.68 2.04 0 0 Z " fill="#B7B7B7" transform="translate(813,568)"/>
<path d="M0 0 C0.99 0.33 1.98 0.66 3 1 C3.6875 3.0625 3.6875 3.0625 4 5 C3.01 4.67 2.02 4.34 1 4 C0.67 4.99 0.34 5.98 0 7 C0 4.69 0 2.38 0 0 Z " fill="#CACACA" transform="translate(712,852)"/>
</svg>